SplineFontDB: 3.2
FontName: LiberationMono
FullName: Liberation Mono
FamilyName: Liberation Mono
Weight: Book
Copyright: Digitized data (c) 2007 Ascender Corporation. All rights reserved.
Version: 1.02
ItalicAngle: 0
UnderlinePosition: -519
UnderlineWidth: 84
Ascent: 1638
Descent: 410
InvalidEm: 0
sfntRevision: 0x0001051e
LayerCount: 2
Layer: 0 1 "Back" 1
Layer: 1 1 "Fore" 0
XUID: [1021 183 1393766621 22329]
StyleMap: 0x0040
FSType: 8
OS2Version: 3
OS2_WeightWidthSlopeOnly: 0
OS2_UseTypoMetrics: 0
CreationTime: 1095817380
ModificationTime: 1645022445
PfmFamily: 17
TTFWeight: 400
TTFWidth: 5
LineGap: 0
VLineGap: 0
Panose: 2 7 4 9 2 2 5 2 4 4
OS2TypoAscent: 1255
OS2TypoAOffset: 0
OS2TypoDescent: -386
OS2TypoDOffset: 0
OS2TypoLinegap: 550
OS2WinAscent: 1705
OS2WinAOffset: 0
OS2WinDescent: 615
OS2WinDOffset: 0
HheadAscent: 1705
HheadAOffset: 0
HheadDescent: -615
HheadDOffset: 0
OS2SubXSize: 1434
OS2SubYSize: 1331
OS2SubXOff: 0
OS2SubYOff: 285
OS2SupXSize: 1434
OS2SupYSize: 1331
OS2SupXOff: 0
OS2SupYOff: 865
OS2StrikeYSize: 102
OS2StrikeYPos: 530
OS2CapHeight: 1349
OS2XHeight: 1082
OS2FamilyClass: 2053
OS2Vendor: '1ASC'
OS2CodePages: 6000009f.dfd70000
OS2UnicodeRanges: a00002af.400078fb.00000000.00000000
DEI: 91125
TtTable: prep
NPUSHB
 100
 9
 3
 4
 253
 1
 245
 80
 40
 31
 242
 70
 40
 31
 241
 70
 42
 31
 240
 70
 53
 31
 139
 238
 155
 238
 171
 238
 3
 107
 239
 139
 239
 2
 187
 239
 1
 164
 239
 1
 27
 239
 91
 239
 107
 239
 3
 4
 236
 68
 236
 2
 10
 235
 70
 255
 31
 231
 228
 38
 31
 230
 228
 61
 31
 229
 228
 30
 31
 227
 226
 70
 31
 11
 226
 1
 64
 226
 70
 22
 31
 225
 224
 70
 31
 187
 224
 203
 224
 219
 224
 3
 64
 224
 51
 54
 70
 224
 70
 24
 31
PUSHW_5
 276
 62
 274
 85
 275
NPUSHB
 12
 61
 3
 85
 223
 61
 221
 85
 222
 61
 220
 85
 187
NPUSHW
 9
 278
 1
 84
 278
 100
 278
 2
 -64
 278
PUSHB_4
 12
 22
 70
 32
PUSHW_1
 278
PUSHB_3
 1
 2
 0
PUSHW_5
 278
 16
 278
 2
 277
PUSHB_3
 220
 61
 31
PUSHW_1
 273
NPUSHB
 99
 3
 255
 31
 16
 221
 32
 221
 64

StartChar: .notdef
Encoding: 1114112 -1 0
Width: 748
Flags: W
LayerCount: 2
Fore
SplineSet
68 0 m 1,0,-1
 68 1365 l 1,1,-1
 612 1365 l 1,2,-1
 612 0 l 1,3,-1
 68 0 l 1,0,-1
136 68 m 1,4,-1
 544 68 l 1,5,-1
 544 1297 l 1,6,-1
 136 1297 l 1,7,-1
 136 68 l 1,4,-1
EndSplineSet
Validated: 1
EndChar

StartChar: exclam
Encoding: 33 33 3
Width: 1229
GlyphClass: 2
Flags: W
LayerCount: 2
Fore
SplineSet
689 397 m 1,0,-1
 541 397 l 1,1,-1
 517 1348 l 1,2,-1
 713 1348 l 1,3,-1
 689 397 l 1,0,-1
515 0 m 1,4,-1
 515 201 l 1,5,-1
 709 201 l 1,6,-1
 709 0 l 1,7,-1
 515 0 l 1,4,-1
EndSplineSet
Validated: 1
EndChar

StartChar: quotedbl
Encoding: 34 34 4
Width: 1229
GlyphClass: 2
Flags: W
LayerCount: 2
Fore
SplineSet
908 845 m 1,0,-1
 766 845 l 1,1,-1
 726 1484 l 1,2,-1
 950 1484 l 1,3,-1
 908 845 l 1,0,-1
459 845 m 1,4,-1
 318 845 l 1,5,-1
 277 1484 l 1,6,-1
 501 1484 l 1,7,-1
 459 845 l 1,4,-1
EndSplineSet
Validated: 1
EndChar

StartChar: numbersign
Encoding: 35 35 5
Width: 1229
GlyphClass: 2
Flags: W
LayerCount: 2
Fore
SplineSet
930 833 m 1,0,-1
 863 516 l 1,1,-1
 1123 516 l 1,2,-1
 1123 408 l 1,3,-1
 840 408 l 1,4,-1
 752 0 l 1,5,-1
 642 0 l 1,6,-1
 728 408 l 1,7,-1
 365 408 l 1,8,-1
 281 0 l 1,9,-1
 171 0 l 1,10,-1
 255 408 l 1,11,-1
 54 408 l 1,12,-1
 54 516 l 1,13,-1
 279 516 l 1,14,-1
 346 833 l 1,15,-1
 105 833 l 1,16,-1
 105 941 l 1,17,-1
 368 941 l 1,18,-1
 457 1349 l 1,19,-1
 567 1349 l 1,20,-1
 479 941 l 1,21,-1
 842 941 l 1,22,-1
 930 1349 l 1,23,-1
 1040 1349 l 1,24,-1
 952 941 l 1,25,-1
 1163 941 l 1,26,-1
 1163 833 l 1,27,-1
 930 833 l 1,0,-1
459 833 m 1,28,-1
 390 516 l 1,29,-1
 752 516 l 1,30,-1
 819 833 l 1,31,-1
 459 833 l 1,28,-1
EndSplineSet
Validated: 1
EndChar

StartChar: dollar
Encoding: 36 36 6
Width: 1229
GlyphClass: 2
Flags: W
LayerCount: 2
Fore
SplineSet
1150 380 m 0,0,1
 1150 305 1150 305 1122 241 c 128,-1,2
 1094 177 1094 177 1037 129.5 c 128,-1,3
 980 82 980 82 892.5 53.5 c 128,-1,4
 805 25 805 25 686 20 c 1,5,-1
 686 -141 l 1,6,-1
 558 -141 l 1,7,-1
 558 20 l 1,8,9
 343 27 343 27 221.5 119.5 c 128,-1,10
 100 212 100 212 66 379 c 1,11,-1
 236 416 l 1,12,13
 247 362 247 362 269.5 316.5 c 128,-1,14
 292 271 292 271 330.5 237 c 128,-1,15
 369 203 369 203 425 182.5 c 128,-1,16
 481 162 481 162 558 158 c 1,17,-1
 558 647 l 1,18,19
 550 649 550 649 543 651 c 0,20,21
 539 652 539 652 533 654 c 0,22,23
 530 655 530 655 528 655 c 0,24,25
 479 667 479 667 430 681.5 c 128,-1,26
 381 696 381 696 337 715.5 c 128,-1,27
 293 735 293 735 255 762.5 c 128,-1,28
 217 790 217 790 189 826.5 c 128,-1,29
 161 863 161 863 145.5 911.5 c 128,-1,30
 130 960 130 960 130 1023 c 0,31,32
 130 1105 130 1105 162 1164.5 c 128,-1,33
 194 1224 194 1224 251 1263.5 c 128,-1,34
 308 1303 308 1303 386.5 1323 c 128,-1,35
 465 1343 465 1343 558 1346 c 1,36,-1
 558 1476 l 1,37,-1
 686 1476 l 1,38,-1
 686 1346 l 1,39,40
 788 1342 788 1342 860.5 1320 c 128,-1,41
 933 1298 933 1298 984 1258 c 128,-1,42
 1035 1218 1035 1218 1067 1159.5 c 128,-1,43
 1099 1101 1099 1101 1119 1025 c 1,44,-1
 945 992 l 1,45,46
 935 1040 935 1040 915.5 1079.5 c 128,-1,47
 896 1119 896 1119 864.5 1147.5 c 128,-1,48
 833 1176 833 1176 789 1192.5 c 128,-1,49
 745 1209 745 1209 686 1213 c 1,50,-1
 686 787 l 1,51,52
 744 773 744 773 801 757.5 c 128,-1,53
 858 742 858 742 909.5 720.5 c 128,-1,54
 961 699 961 699 1005 670 c 128,-1,55
 1049 641 1049 641 1081.5 600.5 c 128,-1,56
 1114 560 1114 560 1132 506 c 128,-1,57
 1150 452 1150 452 1150 380 c 0,0,1
302 1018 m 0,58,59
 302 964 302 964 322 928.5 c 128,-1,60
 342 893 342 893 376.5 869.5 c 128,-1,61
 411 846 411 846 457.5 831 c 128,-1,62
 504 816 504 816 558 802 c 1,63,-1
 558 1215 l 1,64,65
 487 1212 487 1212 438 1195.5 c 128,-1,66
 389 1179 389 1179 359 1152.5 c 128,-1,67
 329 1126 329 1126 315.5 1091.5 c 128,-1,68
 302 1057 302 1057 302 1018 c 0,58,59
978 383 m 0,69,70
 978 446 978 446 954 486.5 c 128,-1,71
 930 527 930 527 890 553 c 128,-1,72
 850 579 850 579 797 595.5 c 128,-1,73
 744 612 744 612 686 627 c 1,74,-1
 686 156 l 1,75,76
 751 160 751 160 804.5 175 c 128,-1,77
 858 190 858 190 896.5 218 c 128,-1,78
 935 246 935 246 956.5 287 c 128,-1,79
 978 328 978 328 978 383 c 0,69,70
EndSplineSet
Validated: 1
EndChar

StartChar: percent
Encoding: 37 37 7
Width: 1229
GlyphClass: 2
Flags: W
LayerCount: 2
Fore
SplineSet
221 0 m 1,0,-1
 76 0 l 1,1,-1
 1008 1353 l 1,2,-1
 1155 1353 l 1,3,-1
 221 0 l 1,0,-1
291 1361 m 0,4,5
 349 1361 349 1361 400.5 1345.5 c 128,-1,6
 452 1330 452 1330 490.5 1291.5 c 128,-1,7
 529 1253 529 1253 551.5 1188.5 c 128,-1,8
 574 1124 574 1124 574 1025 c 0,9,10
 574 929 574 929 551.5 864 c 128,-1,11
 529 799 529 799 490 759 c 128,-1,12
 451 719 451 719 399 701.5 c 128,-1,13
 347 684 347 684 287 684 c 256,14,15
 227 684 227 684 174.5 701.5 c 128,-1,16
 122 719 122 719 83 758.5 c 128,-1,17
 44 798 44 798 22 863.5 c 128,-1,18
 0 929 0 929 0 1025 c 0,19,20
 0 1124 0 1124 22.5 1188.5 c 128,-1,21
 45 1253 45 1253 84 1291.5 c 128,-1,22
 123 1330 123 1330 176 1345.5 c 128,-1,23
 229 1361 229 1361 291 1361 c 0,4,5
427 1025 m 0,24,25
 427 1091 427 1091 418 1135 c 128,-1,26
 409 1179 409 1179 391.5 1205.5 c 128,-1,27
 374 1232 374 1232 348.5 1242.5 c 128,-1,28
 323 1253 323 1253 290 1253 c 0,29,30
 255 1253 255 1253 228 1242 c 128,-1,31
 201 1231 201 1231 183 1204.5 c 128,-1,32
 165 1178 165 1178 156 1134.5 c 128,-1,33
 147 1091 147 1091 147 1025 c 0,34,35
 147 961 147 961 156.5 917.5 c 128,-1,36
 166 874 166 874 184 847 c 128,-1,37
 202 820 202 820 228.5 808.5 c 128,-1,38
 255 797 255 797 289 797 c 0,39,40
 321 797 321 797 346.5 808.5 c 128,-1,41
 372 820 372 820 390 847 c 128,-1,42
 408 874 408 874 417.5 917.5 c 128,-1,43
 427 961 427 961 427 1025 c 0,24,25
947 665 m 0,44,45
 1005 665 1005 665 1056.5 649.5 c 128,-1,46
 1108 634 1108 634 1146.5 595.5 c 128,-1,47
 1185 557 1185 557 1207.5 492.5 c 128,-1,48
 1230 428 1230 428 1230 329 c 0,49,50
 1230 233 1230 233 1207.5 168 c 128,-1,51
 1185 103 1185 103 1146 63 c 128,-1,52
 1107 23 1107 23 1055 5.5 c 128,-1,53
 1003 -12 1003 -12 943 -12 c 256,54,55
 883 -12 883 -12 830.5 5.5 c 128,-1,56
 778 23 778 23 739 62.5 c 128,-1,57
 700 102 700 102 678 167.5 c 128,-1,58
 656 233 656 233 656 329 c 0,59,60
 656 428 656 428 678.5 492.5 c 128,-1,61
 701 557 701 557 740 595.5 c 128,-1,62
 779 634 779 634 832 649.5 c 128,-1,63
 885 665 885 665 947 665 c 0,44,45
1083 329 m 0,64,65
 1083 395 1083 395 1074 439 c 128,-1,66
 1065 483 1065 483 1047.5 509.5 c 128,-1,67
 1030 536 1030 536 1004.5 546.5 c 128,-1,68
 979 557 979 557 946 557 c 0,69,70
 911 557 911 557 884 546 c 128,-1,71
 857 535 857 535 839 508.5 c 128,-1,72
 821 482 821 482 812 438.5 c 128,-1,73
 803 395 803 395 803 329 c 0,74,75
 803 265 803 265 812.5 221.5 c 128,-1,76
 822 178 822 178 840 151 c 128,-1,77
 858 124 858 124 884.5 112.5 c 128,-1,78
 911 101 911 101 945 101 c 0,79,80
 977 101 977 101 1002.5 112.5 c 128,-1,81
 1028 124 1028 124 1046 151 c 128,-1,82
 1064 178 1064 178 1073.5 221.5 c 128,-1,83
 1083 265 1083 265 1083 329 c 0,64,65
EndSplineSet
Validated: 1
EndChar

StartChar: ampersand
Encoding: 38 38 8
Width: 1229
GlyphClass: 2
Flags: W
LayerCount: 2
Fore
SplineSet
1072 -12 m 0,0,1
 1031 -12 1031 -12 993 -1.5 c 128,-1,2
 955 9 955 9 921.5 26.5 c 128,-1,3
 888 44 888 44 859 67.5 c 128,-1,4
 830 91 830 91 808 117 c 1,5,6
 780 92 780 92 744.5 67 c 128,-1,7
 709 42 709 42 666 23 c 128,-1,8
 623 4 623 4 571.5 -8 c 128,-1,9
 520 -20 520 -20 461 -20 c 0,10,11
 352 -20 352 -20 273 9 c 128,-1,12
 194 38 194 38 143 89 c 128,-1,13
 92 140 92 140 67.5 209 c 128,-1,14
 43 278 43 278 43 358 c 0,15,16
 43 435 43 435 65.5 498 c 128,-1,17
 88 561 88 561 127 612.5 c 128,-1,18
 166 664 166 664 219.5 704.5 c 128,-1,19
 273 745 273 745 335 777 c 1,20,21
 320 805 320 805 306.5 839 c 128,-1,22
 293 873 293 873 282.5 909.5 c 128,-1,23
 272 946 272 946 266 984 c 128,-1,24
 260 1022 260 1022 260 1059 c 0,25,26
 260 1121 260 1121 281.5 1175.5 c 128,-1,27
 303 1230 303 1230 346.5 1270.5 c 128,-1,28
 390 1311 390 1311 456 1334 c 128,-1,29
 522 1357 522 1357 611 1357 c 0,30,31
 680 1357 680 1357 739 1339.5 c 128,-1,32
 798 1322 798 1322 841 1288 c 128,-1,33
 884 1254 884 1254 908 1204 c 128,-1,34
 932 1154 932 1154 932 1090 c 0,35,36
 932 1019 932 1019 898 965 c 128,-1,37
 864 911 864 911 807 868 c 128,-1,38
 750 825 750 825 676.5 790 c 128,-1,39
 603 755 603 755 525 722 c 1,40,41
 556 668 556 668 587 618 c 128,-1,42
 618 568 618 568 652 520 c 128,-1,43
 686 472 686 472 723 425.5 c 128,-1,44
 760 379 760 379 802 333 c 1,45,46
 844 420 844 420 875.5 519 c 128,-1,47
 907 618 907 618 927 739 c 1,48,-1
 1072 696 l 1,49,50
 1046 557 1046 557 1002.5 442.5 c 128,-1,51
 959 328 959 328 910 234 c 1,52,53
 953 180 953 180 1001.5 154.5 c 128,-1,54
 1050 129 1050 129 1090 129 c 0,55,56
 1116 129 1116 129 1140 132.5 c 128,-1,57
 1164 136 1164 136 1185 145 c 1,58,-1
 1185 10 l 1,59,60
 1161 -1 1161 -1 1133 -6.5 c 128,-1,61
 1105 -12 1105 -12 1072 -12 c 0,0,1
780 1085 m 0,62,63
 780 1119 780 1119 768 1147 c 128,-1,64
 756 1175 756 1175 733.5 1194.5 c 128,-1,65
 711 1214 711 1214 679 1225 c 128,-1,66
 647 1236 647 1236 608 1236 c 0,67,68
 564 1236 564 1236 527.5 1223.5 c 128,-1,69
 491 1211 491 1211 464.5 1188 c 128,-1,70
 438 1165 438 1165 423 1131.5 c 128,-1,71
 408 1098 408 1098 408 1056 c 0,72,73
 408 991 408 991 427 933 c 128,-1,74
 446 875 446 875 469 832 c 1,75,76
 533 859 533 859 589.5 884 c 128,-1,77
 646 909 646 909 688.5 938 c 128,-1,78
 731 967 731 967 755.5 1002.5 c 128,-1,79
 780 1038 780 1038 780 1085 c 0,62,63
706 217 m 1,80,81
 617 317 617 317 536.5 429.5 c 128,-1,82
 456 542 456 542 390 658 c 1,83,84
 305 612 305 612 258 537.5 c 128,-1,85
 211 463 211 463 211 362 c 0,86,87
 211 310 211 310 227 264 c 128,-1,88
 243 218 243 218 275 184 c 128,-1,89
 307 150 307 150 355.5 130.5 c 128,-1,90
 404 111 404 111 469 111 c 0,91,92
 508 111 508 111 543.5 120.5 c 128,-1,93
 579 130 579 130 609 145 c 128,-1,94
 639 160 639 160 663.5 179 c 128,-1,95
 688 198 688 198 706 217 c 1,80,81
EndSplineSet
Validated: 1
EndChar

StartChar: quotesingle
Encoding: 39 39 9
Width: 1229
GlyphClass: 2
Flags: W
LayerCount: 2
Fore
SplineSet
684 845 m 1,0,-1
 543 845 l 1,1,-1
 502 1484 l 1,2,-1
 726 1484 l 1,3,-1
 684 845 l 1,0,-1
EndSplineSet
Validated: 1
EndChar

StartChar: parenleft
Encoding: 40 40 10
Width: 1229
GlyphClass: 2
Flags: W
LayerCount: 2
Fore
SplineSet
529 530 m 0,0,1
 529 392 529 392 549.5 270 c 128,-1,2
 570 148 570 148 614 33 c 128,-1,3
 658 -82 658 -82 726.5 -194.5 c 128,-1,4
 795 -307 795 -307 891 -425 c 1,5,-1
 701 -425 l 1,6,7
 609 -312 609 -312 541.5 -202.5 c 128,-1,8
 474 -93 474 -93 429.5 22 c 128,-1,9
 385 137 385 137 363.5 262.5 c 128,-1,10
 342 388 342 388 342 532 c 256,11,12
 342 676 342 676 363.5 800.5 c 128,-1,13
 385 925 385 925 429.5 1039.5 c 128,-1,14
 474 1154 474 1154 541.5 1262.5 c 128,-1,15
 609 1371 609 1371 701 1484 c 1,16,-1
 891 1484 l 1,17,18
 795 1366 795 1366 726.5 1253.5 c 128,-1,19
 658 1141 658 1141 614 1026 c 128,-1,20
 570 911 570 911 549.5 789 c 128,-1,21
 529 667 529 667 529 530 c 0,0,1
EndSplineSet
Validated: 1
EndChar

StartChar: parenright
Encoding: 41 41 11
Width: 1229
GlyphClass: 2
Flags: W
LayerCount: 2
Fore
SplineSet
885 532 m 256,0,1
 885 388 885 388 864 262.5 c 128,-1,2
 843 137 843 137 799 22 c 128,-1,3
 755 -93 755 -93 687.5 -202.5 c 128,-1,4
 620 -312 620 -312 528 -425 c 1,5,-1
 336 -425 l 1,6,7
 432 -307 432 -307 501 -194.5 c 128,-1,8
 570 -82 570 -82 614 33 c 128,-1,9
 658 148 658 148 679 270 c 128,-1,10
 700 392 700 392 700 530 c 0,11,12
 700 667 700 667 679 789 c 128,-1,13
 658 911 658 911 614 1026 c 128,-1,14
 570 1141 570 1141 501 1253.5 c 128,-1,15
 432 1366 432 1366 336 1484 c 1,16,-1
 528 1484 l 1,17,18
 620 1371 620 1371 687.5 1262.5 c 128,-1,19
 755 1154 755 1154 799 1039.5 c 128,-1,20
 843 925 843 925 864 800.5 c 128,-1,21
 885 676 885 676 885 532 c 256,0,1
EndSplineSet
Validated: 1
EndChar

StartChar: asterisk
Encoding: 42 42 12
Width: 1229
GlyphClass: 2
Flags: W
LayerCount: 2
Fore
SplineSet
671 1188 m 1,0,-1
 935 1291 l 1,1,-1
 980 1159 l 1,2,-1
 698 1086 l 1,3,-1
 883 836 l 1,4,-1
 764 764 l 1,5,-1
 614 1022 l 1,6,-1
 458 766 l 1,7,-1
 339 838 l 1,8,-1
 528 1086 l 1,9,-1
 248 1159 l 1,10,-1
 293 1293 l 1,11,-1
 560 1186 l 1,12,-1
 548 1483 l 1,13,-1
 684 1483 l 1,14,-1
 671 1188 l 1,0,-1
EndSplineSet
Validated: 1
EndChar

StartChar: plus
Encoding: 43 43 13
Width: 1229
GlyphClass: 2
Flags: W
LayerCount: 2
Fore
SplineSet
687 608 m 1,0,-1
 687 180 l 1,1,-1
 540 180 l 1,2,-1
 540 608 l 1,3,-1
 116 608 l 1,4,-1
 116 754 l 1,5,-1
 540 754 l 1,6,-1
 540 1182 l 1,7,-1
 687 1182 l 1,8,-1
 687 754 l 1,9,-1
 1111 754 l 1,10,-1
 1111 608 l 1,11,-1
 687 608 l 1,0,-1
EndSplineSet
Validated: 1
EndChar

StartChar: comma
Encoding: 44 44 14
Width: 1229
GlyphClass: 2
Flags: W
LayerCount: 2
Fore
SplineSet
259 -363 m 1,0,-1
 428 299 l 1,1,-1
 693 299 l 1,2,-1
 382 -363 l 1,3,-1
 259 -363 l 1,0,-1
EndSplineSet
Validated: 1
EndChar

StartChar: period
Encoding: 46 46 15
Width: 1229
GlyphClass: 2
Flags: W
LayerCount: 2
Fore
SplineSet
496 0 m 1,0,-1
 496 299 l 1,1,-1
 731 299 l 1,2,-1
 731 0 l 1,3,-1
 496 0 l 1,0,-1
EndSplineSet
Validated: 1
EndChar

StartChar: slash
Encoding: 47 47 16
Width: 1229
GlyphClass: 2
Flags: W
LayerCount: 2
Fore
SplineSet
114 -20 m 1,0,-1
 935 1484 l 1,1,-1
 1113 1484 l 1,2,-1
 296 -20 l 1,3,-1
 114 -20 l 1,0,-1
EndSplineSet
Validated: 1
EndChar

StartChar: zero
Encoding: 48 48 17
Width: 1229
GlyphClass: 2
Flags: W
LayerCount: 2
Fore
SplineSet
1103 675 m 0,0,1
 1103 480 1103 480 1064.5 347.5 c 128,-1,2
 1026 215 1026 215 959.5 133 c 128,-1,3
 893 51 893 51 803 15.5 c 128,-1,4
 713 -20 713 -20 611 -20 c 0,5,6
 508 -20 508 -20 419 15.5 c 128,-1,7
 330 51 330 51 264.5 132.5 c 128,-1,8
 199 214 199 214 161.5 347 c 128,-1,9
 124 480 124 480 124 675 c 0,10,11
 124 879 124 879 161.5 1013 c 128,-1,12
 199 1147 199 1147 265 1226.5 c 128,-1,13
 331 1306 331 1306 421 1338 c 128,-1,14
 511 1370 511 1370 617 1370 c 0,15,16
 718 1370 718 1370 806.5 1338 c 128,-1,17
 895 1306 895 1306 961 1226.5 c 128,-1,18
 1027 1147 1027 1147 1065 1013 c 128,-1,19
 1103 879 1103 879 1103 675 c 0,0,1
920 675 m 0,20,21
 920 834 920 834 900 940 c 128,-1,22
 880 1046 880 1046 841 1109 c 128,-1,23
 802 1172 802 1172 745.5 1198 c 128,-1,24
 689 1224 689 1224 617 1224 c 0,25,26
 541 1224 541 1224 483 1197.5 c 128,-1,27
 425 1171 425 1171 385.5 1108 c 128,-1,28
 346 1045 346 1045 326 939.5 c 128,-1,29
 306 834 306 834 306 675 c 0,30,31
 306 521 306 521 326.5 416 c 128,-1,32
 347 311 347 311 386.5 247 c 128,-1,33
 426 183 426 183 483 155 c 128,-1,34
 540 127 540 127 613 127 c 0,35,36
 684 127 684 127 741 155 c 128,-1,37
 798 183 798 183 837.5 247 c 128,-1,38
 877 311 877 311 898.5 416 c 128,-1,39
 920 521 920 521 920 675 c 0,20,21
496 555 m 1,40,-1
 496 804 l 1,41,-1
 731 804 l 1,42,-1
 731 555 l 1,43,-1
 496 555 l 1,40,-1
EndSplineSet
Validated: 1
EndChar

StartChar: one
Encoding: 49 49 18
Width: 1229
GlyphClass: 2
Flags: W
LayerCount: 2
Fore
SplineSet
157 0 m 1,0,-1
 157 145 l 1,1,-1
 596 145 l 1,2,-1
 596 1166 l 1,3,4
 577 1126 577 1126 529 1090.5 c 128,-1,5
 481 1055 481 1055 418.5 1029 c 128,-1,6
 356 1003 356 1003 285 987.5 c 128,-1,7
 214 972 214 972 148 972 c 1,8,-1
 148 1120 l 1,9,10
 222 1120 222 1120 293.5 1137 c 128,-1,11
 365 1154 365 1154 427 1184.5 c 128,-1,12
 489 1215 489 1215 537 1257 c 128,-1,13
 585 1299 585 1299 611 1349 c 1,14,-1
 777 1349 l 1,15,-1
 777 145 l 1,16,-1
 1130 145 l 1,17,-1
 1130 0 l 1,18,-1
 157 0 l 1,0,-1
EndSplineSet
Validated: 1
EndChar

StartChar: two
Encoding: 50 50 19
Width: 1229
GlyphClass: 2
Flags: W
LayerCount: 2
Fore
SplineSet
144 0 m 1,0,-1
 144 117 l 1,1,2
 188 214 188 214 260 296 c 128,-1,3
 332 378 332 378 413.5 450.5 c 128,-1,4
 495 523 495 523 577.5 589 c 128,-1,5
 660 655 660 655 726.5 719.5 c 128,-1,6
 793 784 793 784 835 850.5 c 128,-1,7
 877 917 877 917 877 991 c 0,8,9
 877 1051 877 1051 857.5 1094.5 c 128,-1,10
 838 1138 838 1138 802.5 1166.5 c 128,-1,11
 767 1195 767 1195 718.5 1208.5 c 128,-1,12
 670 1222 670 1222 611 1222 c 0,13,14
 557 1222 557 1222 510.5 1207 c 128,-1,15
 464 1192 464 1192 429 1162 c 128,-1,16
 394 1132 394 1132 372 1087.5 c 128,-1,17
 350 1043 350 1043 343 984 c 1,18,-1
 159 1001 l 1,19,20
 168 1077 168 1077 200 1144 c 128,-1,21
 232 1211 232 1211 287.5 1261.5 c 128,-1,22
 343 1312 343 1312 424 1341 c 128,-1,23
 505 1370 505 1370 611 1370 c 0,24,25
 716 1370 716 1370 799.5 1346 c 128,-1,26
 883 1322 883 1322 941.5 1275.5 c 128,-1,27
 1000 1229 1000 1229 1031 1160 c 128,-1,28
 1062 1091 1062 1091 1062 1002 c 0,29,30
 1062 908 1062 908 1019 827.5 c 128,-1,31
 976 747 976 747 908.5 675 c 128,-1,32
 841 603 841 603 759 538 c 128,-1,33
 677 473 677 473 599 409 c 128,-1,34
 521 345 521 345 457 280.5 c 128,-1,35
 393 216 393 216 361 146 c 1,36,-1
 1084 146 l 1,37,-1
 1084 0 l 1,38,-1
 144 0 l 1,0,-1
EndSplineSet
Validated: 1
EndChar

StartChar: three
Encoding: 51 51 20
Width: 1229
GlyphClass: 2
Flags: W
LayerCount: 2
Fore
SplineSet
1099 370 m 0,0,1
 1099 279 1099 279 1067.5 206.5 c 128,-1,2
 1036 134 1036 134 975.5 84 c 128,-1,3
 915 34 915 34 826 7 c 128,-1,4
 737 -20 737 -20 621 -20 c 0,5,6
 491 -20 491 -20 401 12.5 c 128,-1,7
 311 45 311 45 253 98.5 c 128,-1,8
 195 152 195 152 166 220.5 c 128,-1,9
 137 289 137 289 128 362 c 1,10,-1
 314 379 l 1,11,12
 322 323 322 323 343.5 277 c 128,-1,13
 365 231 365 231 402 198 c 128,-1,14
 439 165 439 165 493.5 147 c 128,-1,15
 548 129 548 129 621 129 c 0,16,17
 757 129 757 129 834.5 192 c 128,-1,18
 912 255 912 255 912 376 c 0,19,20
 912 444 912 444 877.5 489 c 128,-1,21
 843 534 843 534 791.5 560.5 c 128,-1,22
 740 587 740 587 679.5 598 c 128,-1,23
 619 609 619 609 568 609 c 2,24,-1
 466 609 l 1,25,-1
 466 765 l 1,26,-1
 564 765 l 2,27,28
 615 765 615 765 670 777.5 c 128,-1,29
 725 790 725 790 770.5 817.5 c 128,-1,30
 816 845 816 845 845.5 889.5 c 128,-1,31
 875 934 875 934 875 997 c 0,32,33
 875 1103 875 1103 808.5 1162.5 c 128,-1,34
 742 1222 742 1222 611 1222 c 0,35,36
 492 1222 492 1222 418.5 1161 c 128,-1,37
 345 1100 345 1100 333 989 c 1,38,-1
 152 1003 l 1,39,40
 163 1096 163 1096 203 1165 c 128,-1,41
 243 1234 243 1234 304.5 1279.5 c 128,-1,42
 366 1325 366 1325 445 1347.5 c 128,-1,43
 524 1370 524 1370 613 1370 c 0,44,45
 732 1370 732 1370 816.5 1342 c 128,-1,46
 901 1314 901 1314 955 1266 c 128,-1,47
 1009 1218 1009 1218 1034.5 1153.5 c 128,-1,48
 1060 1089 1060 1089 1060 1016 c 0,49,50
 1060 961 1060 961 1041.5 909.5 c 128,-1,51
 1023 858 1023 858 986.5 815 c 128,-1,52
 950 772 950 772 894.5 740 c 128,-1,53
 839 708 839 708 765 693 c 1,54,-1
 765 689 l 1,55,56
 847 680 847 680 909.5 650 c 128,-1,57
 972 620 972 620 1014 576.5 c 128,-1,58
 1056 533 1056 533 1077.5 480 c 128,-1,59
 1099 427 1099 427 1099 370 c 0,0,1
EndSplineSet
Validated: 1
EndChar

StartChar: four
Encoding: 52 52 21
Width: 1229
GlyphClass: 2
Flags: W
LayerCount: 2
Fore
SplineSet
937 319 m 1,0,-1
 937 0 l 1,1,-1
 757 0 l 1,2,-1
 757 319 l 1,3,-1
 103 319 l 1,4,-1
 103 459 l 1,5,-1
 738 1349 l 1,6,-1
 937 1349 l 1,7,-1
 937 461 l 1,8,-1
 1125 461 l 1,9,-1
 1125 319 l 1,10,-1
 937 319 l 1,0,-1
757 1154 m 1,11,-1
 257 461 l 1,12,-1
 757 461 l 1,13,-1
 757 1154 l 1,11,-1
EndSplineSet
Validated: 1
EndChar

StartChar: five
Encoding: 53 53 22
Width: 1229
GlyphClass: 2
Flags: W
LayerCount: 2
Fore
SplineSet
1099 444 m 0,0,1
 1099 344 1099 344 1067 258.5 c 128,-1,2
 1035 173 1035 173 972 111.5 c 128,-1,3
 909 50 909 50 815.5 15 c 128,-1,4
 722 -20 722 -20 599 -20 c 0,5,6
 488 -20 488 -20 405.5 6 c 128,-1,7
 323 32 323 32 266 77.5 c 128,-1,8
 209 123 209 123 175.5 184 c 128,-1,9
 142 245 142 245 128 315 c 1,10,-1
 310 336 l 1,11,12
 321 296 321 296 341 258.5 c 128,-1,13
 361 221 361 221 395.5 191.5 c 128,-1,14
 430 162 430 162 480.5 144.5 c 128,-1,15
 531 127 531 127 603 127 c 0,16,17
 673 127 673 127 730 148.5 c 128,-1,18
 787 170 787 170 827.5 210 c 128,-1,19
 868 250 868 250 890 308.5 c 128,-1,20
 912 367 912 367 912 440 c 0,21,22
 912 500 912 500 891 551.5 c 128,-1,23
 870 603 870 603 831 641 c 128,-1,24
 792 679 792 679 735.5 700.5 c 128,-1,25
 679 722 679 722 607 722 c 0,26,27
 562 722 562 722 524 714 c 128,-1,28
 486 706 486 706 453.5 692 c 128,-1,29
 421 678 421 678 394.5 659.5 c 128,-1,30
 368 641 368 641 345 621 c 1,31,-1
 169 621 l 1,32,-1
 216 1349 l 1,33,-1
 1017 1349 l 1,34,-1
 1017 1204 l 1,35,-1
 382 1204 l 1,36,-1
 353 779 l 1,37,38
 401 816 401 816 473 842.5 c 128,-1,39
 545 869 545 869 644 869 c 0,40,41
 749 869 749 869 833 837 c 128,-1,42
 917 805 917 805 976 748.5 c 128,-1,43
 1035 692 1035 692 1067 614 c 128,-1,44
 1099 536 1099 536 1099 444 c 0,0,1
EndSplineSet
Validated: 1
EndChar

StartChar: six
Encoding: 54 54 23
Width: 1229
GlyphClass: 2
Flags: W
LayerCount: 2
Fore
SplineSet
1096 446 m 0,0,1
 1096 346 1096 346 1066.5 260.5 c 128,-1,2
 1037 175 1037 175 979.5 112.5 c 128,-1,3
 922 50 922 50 837 15 c 128,-1,4
 752 -20 752 -20 641 -20 c 0,5,6
 518 -20 518 -20 426 26.5 c 128,-1,7
 334 73 334 73 273 159 c 128,-1,8
 212 245 212 245 181.5 367.5 c 128,-1,9
 151 490 151 490 151 642 c 0,10,11
 151 819 151 819 185.5 955 c 128,-1,12
 220 1091 220 1091 285 1183 c 128,-1,13
 350 1275 350 1275 443.5 1322.5 c 128,-1,14
 537 1370 537 1370 655 1370 c 0,15,16
 727 1370 727 1370 790 1355 c 128,-1,17
 853 1340 853 1340 904.5 1306.5 c 128,-1,18
 956 1273 956 1273 995 1218 c 128,-1,19
 1034 1163 1034 1163 1057 1083 c 1,20,-1
 885 1052 l 1,21,22
 857 1143 857 1143 795.5 1183.5 c 128,-1,23
 734 1224 734 1224 653 1224 c 0,24,25
 579 1224 579 1224 519 1189.5 c 128,-1,26
 459 1155 459 1155 417 1088 c 128,-1,27
 375 1021 375 1021 352.5 922.5 c 128,-1,28
 330 824 330 824 330 695 c 1,29,30
 379 786 379 786 468 833.5 c 128,-1,31
 557 881 557 881 672 881 c 0,32,33
 768 881 768 881 846.5 850 c 128,-1,34
 925 819 925 819 980.5 762 c 128,-1,35
 1036 705 1036 705 1066 625 c 128,-1,36
 1096 545 1096 545 1096 446 c 0,0,1
913 438 m 0,37,38
 913 505 913 505 895 561 c 128,-1,39
 877 617 877 617 841 657 c 128,-1,40
 805 697 805 697 752 719.5 c 128,-1,41
 699 742 699 742 629 742 c 0,42,43
 580 742 580 742 530 725.5 c 128,-1,44
 480 709 480 709 439.5 676.5 c 128,-1,45
 399 644 399 644 373.5 595 c 128,-1,46
 348 546 348 546 348 481 c 0,47,48
 348 409 348 409 368 344.5 c 128,-1,49
 388 280 388 280 425.5 231 c 128,-1,50
 463 182 463 182 516 153.5 c 128,-1,51
 569 125 569 125 635 125 c 0,52,53
 700 125 700 125 751.5 147.5 c 128,-1,54
 803 170 803 170 839 211 c 128,-1,55
 875 252 875 252 894 310 c 128,-1,56
 913 368 913 368 913 438 c 0,37,38
EndSplineSet
Validated: 1
EndChar

StartChar: seven
Encoding: 55 55 24
Width: 1229
GlyphClass: 2
Flags: W
LayerCount: 2
Fore
SplineSet
1069 1210 m 1,0,1
 973 1072 973 1072 887.5 925 c 128,-1,2
 802 778 802 778 737 625.5 c 128,-1,3
 672 473 672 473 634 316 c 128,-1,4
 596 159 596 159 596 0 c 1,5,-1
 408 0 l 1,6,7
 408 158 408 158 448 315.5 c 128,-1,8
 488 473 488 473 555 626 c 128,-1,9
 622 779 622 779 710 925 c 128,-1,10
 798 1071 798 1071 895 1204 c 1,11,-1
 158 1204 l 1,12,-1
 158 1349 l 1,13,-1
 1069 1349 l 1,14,-1
 1069 1210 l 1,0,1
EndSplineSet
Validated: 1
EndChar

StartChar: eight
Encoding: 56 56 25
Width: 1229
GlyphClass: 2
Flags: W
LayerCount: 2
Fore
SplineSet
1094 378 m 0,0,1
 1094 294 1094 294 1065.5 221.5 c 128,-1,2
 1037 149 1037 149 978.5 95 c 128,-1,3
 920 41 920 41 829.5 10.5 c 128,-1,4
 739 -20 739 -20 614 -20 c 0,5,6
 490 -20 490 -20 399.5 10.5 c 128,-1,7
 309 41 309 41 249.5 94.5 c 128,-1,8
 190 148 190 148 161.5 220.5 c 128,-1,9
 133 293 133 293 133 376 c 0,10,11
 133 447 133 447 156.5 504.5 c 128,-1,12
 180 562 180 562 219.5 604 c 128,-1,13
 259 646 259 646 309.5 672 c 128,-1,14
 360 698 360 698 414 707 c 1,15,-1
 414 711 l 1,16,17
 355 725 355 725 308.5 756 c 128,-1,18
 262 787 262 787 230.5 829 c 128,-1,19
 199 871 199 871 182.5 921 c 128,-1,20
 166 971 166 971 166 1024 c 0,21,22
 166 1092 166 1092 194.5 1154.5 c 128,-1,23
 223 1217 223 1217 279 1265 c 128,-1,24
 335 1313 335 1313 418 1341.5 c 128,-1,25
 501 1370 501 1370 610 1370 c 0,26,27
 725 1370 725 1370 809.5 1341 c 128,-1,28
 894 1312 894 1312 949.5 1264 c 128,-1,29
 1005 1216 1005 1216 1032 1153 c 128,-1,30
 1059 1090 1059 1090 1059 1022 c 0,31,32
 1059 970 1059 970 1042.5 920 c 128,-1,33
 1026 870 1026 870 994.5 828 c 128,-1,34
 963 786 963 786 916.5 755.5 c 128,-1,35
 870 725 870 725 809 713 c 1,36,-1
 809 709 l 1,37,38
 870 699 870 699 922 672.5 c 128,-1,39
 974 646 974 646 1012.5 604 c 128,-1,40
 1051 562 1051 562 1072.5 505.5 c 128,-1,41
 1094 449 1094 449 1094 378 c 0,0,1
872 1012 m 0,42,43
 872 1059 872 1059 858.5 1100 c 128,-1,44
 845 1141 845 1141 814 1171 c 128,-1,45
 783 1201 783 1201 733 1218.5 c 128,-1,46
 683 1236 683 1236 610 1236 c 0,47,48
 540 1236 540 1236 490.5 1218.5 c 128,-1,49
 441 1201 441 1201 409.5 1171 c 128,-1,50
 378 1141 378 1141 364 1100 c 128,-1,51
 350 1059 350 1059 350 1012 c 0,52,53
 350 975 350 975 361 934 c 128,-1,54
 372 893 372 893 401 858.5 c 128,-1,55
 430 824 430 824 481 801.5 c 128,-1,56
 532 779 532 779 612 779 c 0,57,58
 698 779 698 779 749 802 c 128,-1,59
 800 825 800 825 827.5 859.5 c 128,-1,60
 855 894 855 894 863.5 935 c 128,-1,61
 872 976 872 976 872 1012 c 0,42,43
907 395 m 0,62,63
 907 440 907 440 893 484.5 c 128,-1,64
 879 529 879 529 845 564.5 c 128,-1,65
 811 600 811 600 753.5 622 c 128,-1,66
 696 644 696 644 610 644 c 0,67,68
 531 644 531 644 475.5 622 c 128,-1,69
 420 600 420 600 385.5 564 c 128,-1,70
 351 528 351 528 335 483 c 128,-1,71
 319 438 319 438 319 391 c 0,72,73
 319 332 319 332 335 281.5 c 128,-1,74
 351 231 351 231 386 194 c 128,-1,75
 421 157 421 157 478 136 c 128,-1,76
 535 115 535 115 616 115 c 0,77,78
 699 115 699 115 754.5 135.5 c 128,-1,79
 810 156 810 156 844 193.5 c 128,-1,80
 878 231 878 231 892.5 282.5 c 128,-1,81
 907 334 907 334 907 395 c 0,62,63
EndSplineSet
Validated: 1
EndChar

StartChar: nine
Encoding: 57 57 26
Width: 1229
GlyphClass: 2
Flags: W
LayerCount: 2
Fore
SplineSet
1087 703 m 0,0,1
 1087 526 1087 526 1052 391 c 128,-1,2
 1017 256 1017 256 951 164.5 c 128,-1,3
 885 73 885 73 790.5 26.5 c 128,-1,4
 696 -20 696 -20 577 -20 c 0,5,6
 496 -20 496 -20 431 -3.5 c 128,-1,7
 366 13 366 13 315 48 c 128,-1,8
 264 83 264 83 228 139 c 128,-1,9
 192 195 192 195 170 274 c 1,10,-1
 342 301 l 1,11,12
 370 210 370 210 429.5 167.5 c 128,-1,13
 489 125 489 125 580 125 c 0,14,15
 654 125 654 125 714 159 c 128,-1,16
 774 193 774 193 816.5 259 c 128,-1,17
 859 325 859 325 883.5 423 c 128,-1,18
 908 521 908 521 909 650 c 1,19,20
 888 603 888 603 851.5 566 c 128,-1,21
 815 529 815 529 768.5 503.5 c 128,-1,22
 722 478 722 478 668.5 464.5 c 128,-1,23
 615 451 615 451 559 451 c 0,24,25
 463 451 463 451 385.5 485 c 128,-1,26
 308 519 308 519 254 580 c 128,-1,27
 200 641 200 641 170.5 725.5 c 128,-1,28
 141 810 141 810 141 911 c 0,29,30
 141 1015 141 1015 172.5 1099.5 c 128,-1,31
 204 1184 204 1184 264 1244 c 128,-1,32
 324 1304 324 1304 411.5 1337 c 128,-1,33
 499 1370 499 1370 610 1370 c 0,34,35
 846 1370 846 1370 966.5 1204 c 128,-1,36
 1087 1038 1087 1038 1087 703 c 0,0,1
891 862 m 0,37,38
 891 935 891 935 872.5 1000.5 c 128,-1,39
 854 1066 854 1066 817.5 1115.5 c 128,-1,40
 781 1165 781 1165 727.5 1194.5 c 128,-1,41
 674 1224 674 1224 604 1224 c 0,42,43
 539 1224 539 1224 487 1201.5 c 128,-1,44
 435 1179 435 1179 399 1137.5 c 128,-1,45
 363 1096 363 1096 343.5 1038.5 c 128,-1,46
 324 981 324 981 324 911 c 0,47,48
 324 845 324 845 341.5 787.5 c 128,-1,49
 359 730 359 730 394 686.5 c 128,-1,50
 429 643 429 643 481 618 c 128,-1,51
 533 593 533 593 602 593 c 0,52,53
 652 593 652 593 703.5 610 c 128,-1,54
 755 627 755 627 796.5 660.5 c 128,-1,55
 838 694 838 694 864.5 744.5 c 128,-1,56
 891 795 891 795 891 862 c 0,37,38
EndSplineSet
Validated: 1
EndChar

StartChar: colon
Encoding: 58 58 27
Width: 1229
GlyphClass: 2
Flags: W
LayerCount: 2
Fore
SplineSet
496 0 m 1,0,-1
 496 299 l 1,1,-1
 731 299 l 1,2,-1
 731 0 l 1,3,-1
 496 0 l 1,0,-1
496 783 m 1,4,-1
 496 1082 l 1,5,-1
 731 1082 l 1,6,-1
 731 783 l 1,7,-1
 496 783 l 1,4,-1
EndSplineSet
Validated: 1
EndChar

StartChar: less
Encoding: 60 60 28
Width: 1229
GlyphClass: 2
Flags: W
LayerCount: 2
Fore
SplineSet
116 571 m 1,0,-1
 116 776 l 1,1,-1
 1111 1194 l 1,2,-1
 1111 1040 l 1,3,-1
 253 674 l 1,4,-1
 1111 307 l 1,5,-1
 1111 154 l 1,6,-1
 116 571 l 1,0,-1
EndSplineSet
Validated: 1
EndChar

StartChar: equal
Encoding: 61 61 29
Width: 1229
GlyphClass: 2
Flags: W
LayerCount: 2
Fore
SplineSet
116 856 m 1,0,-1
 116 1004 l 1,1,-1
 1111 1004 l 1,2,-1
 1111 856 l 1,3,-1
 116 856 l 1,0,-1
116 344 m 1,4,-1
 116 492 l 1,5,-1
 1111 492 l 1,6,-1
 1111 344 l 1,7,-1
 116 344 l 1,4,-1
EndSplineSet
Validated: 1
EndChar

StartChar: greater
Encoding: 62 62 30
Width: 1229
GlyphClass: 2
Flags: W
LayerCount: 2
Fore
SplineSet
116 154 m 1,0,-1
 116 307 l 1,1,-1
 974 674 l 1,2,-1
 116 1040 l 1,3,-1
 116 1194 l 1,4,-1
 1111 776 l 1,5,-1
 1111 571 l 1,6,-1
 116 154 l 1,0,-1
EndSplineSet
Validated: 1
EndChar

StartChar: question
Encoding: 63 63 31
Width: 1229
GlyphClass: 2
Flags: W
LayerCount: 2
Fore
SplineSet
1073 1002 m 0,0,1
 1073 933 1073 933 1054.5 881 c 128,-1,2
 1036 829 1036 829 1005 788 c 128,-1,3
 974 747 974 747 934.5 714 c 128,-1,4
 895 681 895 681 854 651.5 c 128,-1,5
 813 622 813 622 773.5 592.5 c 128,-1,6
 734 563 734 563 702.5 529 c 128,-1,7
 671 495 671 495 651.5 453.5 c 128,-1,8
 632 412 632 412 631 357 c 1,9,-1
 456 357 l 1,10,11
 458 424 458 424 477.5 475 c 128,-1,12
 497 526 497 526 528 566.5 c 128,-1,13
 559 607 559 607 598 639.5 c 128,-1,14
 637 672 637 672 677 701.5 c 128,-1,15
 717 731 717 731 755.5 760.5 c 128,-1,16
 794 790 794 790 824 824 c 128,-1,17
 854 858 854 858 872.5 899.5 c 128,-1,18
 891 941 891 941 891 994 c 0,19,20
 891 1049 891 1049 870.5 1091 c 128,-1,21
 850 1133 850 1133 811.5 1161.5 c 128,-1,22
 773 1190 773 1190 718.5 1205 c 128,-1,23
 664 1220 664 1220 596 1220 c 256,24,25
 528 1220 528 1220 472.5 1201 c 128,-1,26
 417 1182 417 1182 376 1146.5 c 128,-1,27
 335 1111 335 1111 310 1060.5 c 128,-1,28
 285 1010 285 1010 278 948 c 1,29,-1
 94 960 l 1,30,31
 106 1050 106 1050 143 1125.5 c 128,-1,32
 180 1201 180 1201 243 1255 c 128,-1,33
 306 1309 306 1309 394 1339.5 c 128,-1,34
 482 1370 482 1370 594 1370 c 0,35,36
 702 1370 702 1370 790.5 1346 c 128,-1,37
 879 1322 879 1322 942 1275.5 c 128,-1,38
 1005 1229 1005 1229 1039 1160.5 c 128,-1,39
 1073 1092 1073 1092 1073 1002 c 0,0,1
448 0 m 1,40,-1
 448 201 l 1,41,-1
 643 201 l 1,42,-1
 643 0 l 1,43,-1
 448 0 l 1,40,-1
EndSplineSet
Validated: 1
EndChar

StartChar: at
Encoding: 64 64 32
Width: 1229
GlyphClass: 2
Flags: W
LayerCount: 2
Fore
SplineSet
1189 755 m 0,0,1
 1189 611 1189 611 1168.5 491.5 c 128,-1,2
 1148 372 1148 372 1109 286 c 128,-1,3
 1070 200 1070 200 1013 152 c 128,-1,4
 956 104 956 104 884 104 c 0,5,6
 854 104 854 104 828 112 c 128,-1,7
 802 120 802 120 782.5 138.5 c 128,-1,8
 763 157 763 157 752 187 c 128,-1,9
 741 217 741 217 741 261 c 0,10,11
 741 263 741 263 741 268.5 c 128,-1,12
 741 274 741 274 741.5 280 c 128,-1,13
 742 286 742 286 742.5 291 c 128,-1,14
 743 296 743 296 743 299 c 2,15,-1
 737 299 l 1,16,17
 722 260 722 260 699 224.5 c 128,-1,18
 676 189 676 189 646.5 162 c 128,-1,19
 617 135 617 135 580.5 119.5 c 128,-1,20
 544 104 544 104 502 104 c 0,21,22
 439 104 439 104 396 136.5 c 128,-1,23
 353 169 353 169 326.5 222.5 c 128,-1,24
 300 276 300 276 288.5 345.5 c 128,-1,25
 277 415 277 415 277 489 c 0,26,27
 277 565 277 565 288.5 640 c 128,-1,28
 300 715 300 715 322 783 c 128,-1,29
 344 851 344 851 376.5 909.5 c 128,-1,30
 409 968 409 968 449.5 1010.5 c 128,-1,31
 490 1053 490 1053 539 1077 c 128,-1,32
 588 1101 588 1101 644 1101 c 0,33,34
 686 1101 686 1101 717 1087.5 c 128,-1,35
 748 1074 748 1074 769.5 1050.5 c 128,-1,36
 791 1027 791 1027 805 995.5 c 128,-1,37
 819 964 819 964 828 928 c 1,38,-1
 833 928 l 1,39,-1
 865 1079 l 1,40,-1
 981 1079 l 1,41,-1
 882 572 l 2,42,43
 874 530 874 530 866.5 489.5 c 128,-1,44
 859 449 859 449 853.5 412.5 c 128,-1,45
 848 376 848 376 845 345.5 c 128,-1,46
 842 315 842 315 842 294 c 0,47,48
 842 242 842 242 856.5 224 c 128,-1,49
 871 206 871 206 891 206 c 0,50,51
 931 206 931 206 963.5 246 c 128,-1,52
 996 286 996 286 1019.5 358.5 c 128,-1,53
 1043 431 1043 431 1055.5 531.5 c 128,-1,54
 1068 632 1068 632 1068 753 c 0,55,56
 1068 882 1068 882 1041.5 994 c 128,-1,57
 1015 1106 1015 1106 964.5 1189 c 128,-1,58
 914 1272 914 1272 840 1320 c 128,-1,59
 766 1368 766 1368 670 1368 c 0,60,61
 550 1368 550 1368 456.5 1301 c 128,-1,62
 363 1234 363 1234 299.5 1118.5 c 128,-1,63
 236 1003 236 1003 203 847 c 128,-1,64
 170 691 170 691 170 514 c 0,65,66
 170 362 170 362 199.5 237 c 128,-1,67
 229 112 229 112 284.5 22.5 c 128,-1,68
 340 -67 340 -67 421 -116 c 128,-1,69
 502 -165 502 -165 604 -165 c 0,70,71
 663 -165 663 -165 714 -152.5 c 128,-1,72
 765 -140 765 -140 809.5 -119 c 128,-1,73
 854 -98 854 -98 894.5 -69 c 128,-1,74
 935 -40 935 -40 973 -7 c 1,75,-1
 1044 -94 l 1,76,77
 1001 -131 1001 -131 952.5 -165 c 128,-1,78
 904 -199 904 -199 848.5 -225.5 c 128,-1,79
 793 -252 793 -252 730 -267.5 c 128,-1,80
 667 -283 667 -283 594 -283 c 0,81,82
 467 -283 467 -283 365 -226.5 c 128,-1,83
 263 -170 263 -170 192 -66 c 128,-1,84
 121 38 121 38 82.5 185 c 128,-1,85
 44 332 44 332 44 514 c 0,86,87
 44 723 44 723 86 900.5 c 128,-1,88
 128 1078 128 1078 208.5 1208 c 128,-1,89
 289 1338 289 1338 405.5 1411 c 128,-1,90
 522 1484 522 1484 672 1484 c 0,91,92
 803 1484 803 1484 900.5 1425 c 128,-1,93
 998 1366 998 1366 1062 1266 c 128,-1,94
 1126 1166 1126 1166 1157.5 1034 c 128,-1,95
 1189 902 1189 902 1189 755 c 0,0,1
775 784 m 0,96,97
 775 890 775 890 740 944.5 c 128,-1,98
 705 999 705 999 646 999 c 0,99,100
 609 999 609 999 577 977 c 128,-1,101
 545 955 545 955 519 917.5 c 128,-1,102
 493 880 493 880 473 830 c 128,-1,103
 453 780 453 780 439.5 723.5 c 128,-1,104
 426 667 426 667 419 607.5 c 128,-1,105
 412 548 412 548 412 491 c 0,106,107
 412 431 412 431 417.5 379.5 c 128,-1,108
 423 328 423 328 436.5 290.5 c 128,-1,109
 450 253 450 253 472 231.5 c 128,-1,110
 494 210 494 210 526 210 c 0,111,112
 565 210 565 210 600.5 237.5 c 128,-1,113
 636 265 636 265 665 315 c 128,-1,114
 694 365 694 365 717 436.5 c 128,-1,115
 740 508 740 508 753 595 c 0,116,117
 756 614 756 614 760 640 c 128,-1,118
 764 666 764 666 767.5 693 c 128,-1,119
 771 720 771 720 773 744.5 c 128,-1,120
 775 769 775 769 775 784 c 0,96,97
EndSplineSet
Validated: 1
EndChar

StartChar: A
Encoding: 65 65 33
Width: 1229
GlyphClass: 2
Flags: W
LayerCount: 2
Fore
SplineSet
701 954 m 2,0,1
 682 1008 682 1008 674 1031 c 0,2,3
 660 1070 660 1070 648.5 1105 c 128,-1,4
 637 1140 637 1140 628.5 1166.5 c 128,-1,5
 620 1193 620 1193 616 1205 c 1,6,7
 612 1193 612 1193 604 1166 c 128,-1,8
 596 1139 596 1139 584.5 1104 c 128,-1,9
 573 1069 573 1069 560 1030 c 0,10,11
 541 972 541 972 535 954 c 2,12,-1
 196 0 l 1,13,-1
 0 0 l 1,14,-1
 510 1349 l 1,15,-1
 727 1349 l 1,16,-1
 1228 0 l 1,17,-1
 1034 0 l 1,18,-1
 896 382 l 1,19,-1
 507 382 l 1,20,-1
 556 531 l 1,21,-1
 847 531 l 1,22,-1
 701 954 l 2,0,1
EndSplineSet
Validated: 1
EndChar

StartChar: B
Encoding: 66 66 34
Width: 1229
GlyphClass: 2
Flags: W
HStem: -7.10543e-15 153<524 850.859> 631 149<524 786.963> 1196 153<524 800.004>
VStem: 162 191<0 1349> 878 192<862.874 1125.17> 959 193<250.342 531.402>
LayerCount: 2
Fore
SplineSet
574 1349 m 2,0,1
 1070 1349 1070 1349 1070 1022 c 0,2,3
 1070 841 1070 841 920 754 c 0,4,5
 870 725 870 725 802 711 c 1,6,7
 1055 684 1055 684 1129 502 c 0,8,9
 1152 446 1152 446 1152 361.5 c 128,-1,10
 1152 277 1152 277 1110 205 c 128,-1,11
 1068 133 1068 133 997 88 c 0,12,13
 860 -0 860 -0 634 0 c 2,14,-1
 524 -0 l 1,15,-1
 524 153 l 1,16,-1
 619 153 l 2,17,18
 865 153 865 153 934 279 c 0,19,20
 959 326 959 326 959 393 c 128,-1,21
 959 460 959 460 933.5 504 c 128,-1,22
 908 548 908 548 862 576 c 0,23,24
 773 631 773 631 605 631 c 2,25,-1
 524 631 l 1,26,-1
 524 780 l 1,27,-1
 578 780 l 2,28,29
 878 780 878 780 878 998 c 0,30,31
 878 1105 878 1105 802.5 1150.5 c 128,-1,32
 727 1196 727 1196 576 1196 c 2,33,-1
 524 1196 l 1,34,-1
 524 1349 l 1,35,-1
 574 1349 l 2,0,1
353 -0 m 1,36,-1
 162 0 l 1,37,-1
 162 1349 l 1,38,-1
 353 1349 l 1,39,-1
 353 -0 l 1,36,-1
EndSplineSet
Validated: 1
EndChar

StartChar: C
Encoding: 67 67 35
Width: 1229
GlyphClass: 2
Flags: W
LayerCount: 2
Fore
SplineSet
314 681 m 256,0,1
 314 550 314 550 334 448.5 c 128,-1,2
 354 347 354 347 396 277 c 128,-1,3
 438 207 438 207 503.5 171 c 128,-1,4
 569 135 569 135 661 135 c 0,5,6
 724 135 724 135 774.5 159 c 128,-1,7
 825 183 825 183 864.5 222 c 128,-1,8
 904 261 904 261 933 312 c 128,-1,9
 962 363 962 363 983 417 c 1,10,-1
 1142 352 l 1,11,12
 1114 282 1114 282 1073 215.5 c 128,-1,13
 1032 149 1032 149 974 96.5 c 128,-1,14
 916 44 916 44 838.5 12 c 128,-1,15
 761 -20 761 -20 659 -20 c 0,16,17
 518 -20 518 -20 415.5 30.5 c 128,-1,18
 313 81 313 81 245.5 173 c 128,-1,19
 178 265 178 265 145.5 394 c 128,-1,20
 113 523 113 523 113 681 c 0,21,22
 113 847 113 847 145 975.5 c 128,-1,23
 177 1104 177 1104 243 1191.5 c 128,-1,24
 309 1279 309 1279 410 1324.5 c 128,-1,25
 511 1370 511 1370 649 1370 c 0,26,27
 750 1370 750 1370 826 1342.5 c 128,-1,28
 902 1315 902 1315 957.5 1268.5 c 128,-1,29
 1013 1222 1013 1222 1051.5 1161.5 c 128,-1,30
 1090 1101 1090 1101 1115 1035 c 1,31,-1
 947 970 l 1,32,33
 932 1016 932 1016 906 1060 c 128,-1,34
 880 1104 880 1104 843.5 1138 c 128,-1,35
 807 1172 807 1172 758.5 1193 c 128,-1,36
 710 1214 710 1214 650 1214 c 0,37,38
 561 1214 561 1214 497.5 1180 c 128,-1,39
 434 1146 434 1146 393 1078.5 c 128,-1,40
 352 1011 352 1011 333 911.5 c 128,-1,41
 314 812 314 812 314 681 c 256,0,1
EndSplineSet
Validated: 1
EndChar

StartChar: D
Encoding: 68 68 36
Width: 1229
GlyphClass: 2
Flags: W
LayerCount: 2
Fore
SplineSet
524 156 m 1,0,1
 933 162 933 162 933 688 c 0,2,3
 933 957 933 957 820 1076 c 0,4,5
 721 1180 721 1180 524 1192 c 1,6,-1
 524 1348 l 1,7,8
 1125 1323 1125 1323 1125 688 c 0,9,10
 1125 355 1125 355 969 176 c 0,11,12
 815 -0 815 -0 532 0 c 2,13,-1
 524 -0 l 1,14,-1
 524 156 l 1,0,1
354 -0 m 1,15,-1
 162 0 l 1,16,-1
 162 1349 l 1,17,-1
 354 1349 l 1,18,-1
 354 -0 l 1,15,-1
EndSplineSet
Validated: 1
EndChar

StartChar: E
Encoding: 69 69 37
Width: 1229
GlyphClass: 2
Flags: W
LayerCount: 2
Fore
SplineSet
162 0 m 1,0,-1
 162 1349 l 1,1,-1
 1081 1349 l 1,2,-1
 1081 1193 l 1,3,-1
 353 1193 l 1,4,-1
 353 771 l 1,5,-1
 1021 771 l 1,6,-1
 1021 617 l 1,7,-1
 353 617 l 1,8,-1
 353 156 l 1,9,-1
 1122 156 l 1,10,-1
 1122 0 l 1,11,-1
 162 0 l 1,0,-1
EndSplineSet
Validated: 1
EndChar

StartChar: F
Encoding: 70 70 38
Width: 1229
GlyphClass: 2
Flags: W
LayerCount: 2
Fore
SplineSet
385 1193 m 1,0,-1
 385 699 l 1,1,-1
 1061 699 l 1,2,-1
 1061 541 l 1,3,-1
 385 541 l 1,4,-1
 385 0 l 1,5,-1
 194 0 l 1,6,-1
 194 1349 l 1,7,-1
 1085 1349 l 1,8,-1
 1085 1193 l 1,9,-1
 385 1193 l 1,0,-1
EndSplineSet
Validated: 1
EndChar

StartChar: G
Encoding: 71 71 39
Width: 1229
GlyphClass: 2
Flags: W
LayerCount: 2
Fore
SplineSet
1101 133 m 1,0,1
 1065 109 1065 109 1017.5 82 c 128,-1,2
 970 55 970 55 912 32.5 c 128,-1,3
 854 10 854 10 785.5 -5 c 128,-1,4
 717 -20 717 -20 639 -20 c 0,5,6
 505 -20 505 -20 406 32.5 c 128,-1,7
 307 85 307 85 242 178 c 128,-1,8
 177 271 177 271 145 399.5 c 128,-1,9
 113 528 113 528 113 681 c 0,10,11
 113 848 113 848 144 976.5 c 128,-1,12
 175 1105 175 1105 240 1192.5 c 128,-1,13
 305 1280 305 1280 405 1325 c 128,-1,14
 505 1370 505 1370 642 1370 c 0,15,16
 742 1370 742 1370 817.5 1344 c 128,-1,17
 893 1318 893 1318 948.5 1273.5 c 128,-1,18
 1004 1229 1004 1229 1041.5 1168.5 c 128,-1,19
 1079 1108 1079 1108 1103 1039 c 1,20,-1
 932 983 l 1,21,22
 894 1093 894 1093 824.5 1153.5 c 128,-1,23
 755 1214 755 1214 644 1214 c 0,24,25
 554 1214 554 1214 491 1179.5 c 128,-1,26
 428 1145 428 1145 388.5 1077.5 c 128,-1,27
 349 1010 349 1010 331.5 910.5 c 128,-1,28
 314 811 314 811 314 681 c 0,29,30
 314 413 314 413 398.5 274 c 128,-1,31
 483 135 483 135 655 135 c 0,32,33
 703 135 703 135 744.5 143.5 c 128,-1,34
 786 152 786 152 819.5 163.5 c 128,-1,35
 853 175 853 175 877.5 187.5 c 128,-1,36
 902 200 902 200 915 209 c 1,37,-1
 915 545 l 1,38,-1
 622 545 l 1,39,-1
 622 705 l 1,40,-1
 1101 705 l 1,41,-1
 1101 133 l 1,0,1
EndSplineSet
Validated: 1
EndChar

StartChar: H
Encoding: 72 72 40
Width: 1229
GlyphClass: 2
Flags: W
LayerCount: 2
Fore
SplineSet
875 0 m 1,0,-1
 875 623 l 1,1,-1
 353 623 l 1,2,-1
 353 0 l 1,3,-1
 162 0 l 1,4,-1
 162 1349 l 1,5,-1
 353 1349 l 1,6,-1
 353 783 l 1,7,-1
 875 783 l 1,8,-1
 875 1349 l 1,9,-1
 1066 1349 l 1,10,-1
 1066 0 l 1,11,-1
 875 0 l 1,0,-1
EndSplineSet
Validated: 1
EndChar

StartChar: I
Encoding: 73 73 41
Width: 1229
GlyphClass: 2
Flags: W
LayerCount: 2
Fore
SplineSet
202 1349 m 1,0,-1
 1025 1349 l 1,1,-1
 1025 1193 l 1,2,-1
 709 1193 l 1,3,-1
 709 156 l 1,4,-1
 1025 156 l 1,5,-1
 1025 0 l 1,6,-1
 202 0 l 1,7,-1
 202 156 l 1,8,-1
 518 156 l 1,9,-1
 518 1193 l 1,10,-1
 202 1193 l 1,11,-1
 202 1349 l 1,0,-1
EndSplineSet
Validated: 1
EndChar

StartChar: J
Encoding: 74 74 42
Width: 1229
GlyphClass: 2
Flags: W
LayerCount: 2
Fore
SplineSet
986 420 m 2,0,1
 986 320 986 320 960.5 238.5 c 128,-1,2
 935 157 935 157 884.5 99.5 c 128,-1,3
 834 42 834 42 759 11 c 128,-1,4
 684 -20 684 -20 586 -20 c 0,5,6
 415 -20 415 -20 313 69 c 128,-1,7
 211 158 211 158 176 350 c 1,8,-1
 363 381 l 1,9,10
 373 317 373 317 394 270.5 c 128,-1,11
 415 224 415 224 444 194 c 128,-1,12
 473 164 473 164 509.5 149.5 c 128,-1,13
 546 135 546 135 587 135 c 0,14,15
 691 135 691 135 743.5 206.5 c 128,-1,16
 796 278 796 278 796 416 c 2,17,-1
 796 1193 l 1,18,-1
 485 1193 l 1,19,-1
 485 1349 l 1,20,-1
 986 1349 l 1,21,-1
 986 420 l 2,0,1
EndSplineSet
Validated: 1
EndChar

StartChar: K
Encoding: 75 75 43
Width: 1229
GlyphClass: 2
Flags: W
LayerCount: 2
Fore
SplineSet
1003 0 m 1,0,-1
 516 638 l 1,1,-1
 353 469 l 1,2,-1
 353 0 l 1,3,-1
 162 0 l 1,4,-1
 162 1349 l 1,5,-1
 353 1349 l 1,6,-1
 353 676 l 1,7,-1
 925 1349 l 1,8,-1
 1150 1349 l 1,9,-1
 646 777 l 1,10,-1
 1227 0 l 1,11,-1
 1003 0 l 1,0,-1
EndSplineSet
Validated: 1
EndChar

StartChar: L
Encoding: 76 76 44
Width: 1229
GlyphClass: 2
Flags: W
LayerCount: 2
Fore
SplineSet
237 0 m 1,0,-1
 237 1349 l 1,1,-1
 428 1349 l 1,2,-1
 428 156 l 1,3,-1
 1100 156 l 1,4,-1
 1100 0 l 1,5,-1
 237 0 l 1,0,-1
EndSplineSet
Validated: 1
EndChar

StartChar: M
Encoding: 77 77 45
Width: 1229
GlyphClass: 2
Flags: W
LayerCount: 2
Fore
SplineSet
937 0 m 1,0,-1
 937 868 l 2,1,2
 937 919 937 919 937.5 972 c 128,-1,3
 938 1025 938 1025 940 1069 c 0,4,5
 942 1120 942 1120 943 1169 c 1,6,7
 926 1114 926 1114 909 1061 c 0,8,9
 895 1016 895 1016 878.5 966 c 128,-1,10
 862 916 862 916 848 878 c 2,11,-1
 684 440 l 1,12,-1
 547 440 l 1,13,-1
 381 878 l 2,14,15
 375 893 375 893 368 913.5 c 128,-1,16
 361 934 361 934 353.5 957.5 c 128,-1,17
 346 981 346 981 338 1005.5 c 128,-1,18
 330 1030 330 1030 322 1054 c 0,19,20
 304 1109 304 1109 285 1169 c 1,21,22
 286 1121 286 1121 287 1069 c 0,23,24
 288 1024 288 1024 288.5 971.5 c 128,-1,25
 289 919 289 919 289 868 c 2,26,-1
 289 0 l 1,27,-1
 129 0 l 1,28,-1
 129 1349 l 1,29,-1
 366 1349 l 1,30,-1
 551 860 l 2,31,32
 560 837 560 837 571.5 798.5 c 128,-1,33
 583 760 583 760 594 722 c 0,34,35
 606 678 606 678 619 629 c 1,36,37
 633 676 633 676 645 719 c 0,38,39
 656 756 656 756 668 795 c 128,-1,40
 680 834 680 834 689 859 c 2,41,-1
 874 1349 l 1,42,-1
 1099 1349 l 1,43,-1
 1099 0 l 1,44,-1
 937 0 l 1,0,-1
EndSplineSet
Validated: 1
EndChar

StartChar: N
Encoding: 78 78 46
Width: 1229
GlyphClass: 2
Flags: W
LayerCount: 2
Fore
SplineSet
836 0 m 1,0,-1
 316 1130 l 1,1,2
 320 1087 320 1087 324 1042 c 0,3,4
 327 1004 327 1004 329.5 959.5 c 128,-1,5
 332 915 332 915 332 876 c 2,6,-1
 332 0 l 1,7,-1
 162 0 l 1,8,-1
 162 1349 l 1,9,-1
 384 1349 l 1,10,-1
 912 211 l 1,11,12
 907 251 907 251 903 297 c 0,13,14
 899 336 899 336 896.5 385 c 128,-1,15
 894 434 894 434 894 485 c 2,16,-1
 894 1349 l 1,17,-1
 1066 1349 l 1,18,-1
 1066 0 l 1,19,-1
 836 0 l 1,0,-1
EndSplineSet
Validated: 1
EndChar

StartChar: O
Encoding: 79 79 47
Width: 1229
GlyphClass: 2
Flags: W
LayerCount: 2
Fore
SplineSet
699 146 m 1,0,1
 925 211 925 211 925 673 c 0,2,3
 925 1134 925 1134 699 1202 c 1,4,-1
 699 1365 l 1,5,6
 885 1339 885 1339 994 1196 c 0,7,8
 1126 1024 1126 1024 1126 681 c 0,9,10
 1126 341 1126 341 990 158 c 0,11,12
 883 14 883 14 699 -14 c 1,13,-1
 699 146 l 1,0,1
529 1202 m 1,14,15
 303 1136 303 1136 303 677 c 0,16,17
 303 219 303 219 529 147 c 1,18,-1
 529 -14 l 1,19,20
 221 29 221 29 134 384 c 0,21,22
 102 514 102 514 102 684 c 0,23,24
 102 855 102 855 136 983 c 0,25,26
 226 1323 226 1323 529 1364 c 1,27,-1
 529 1202 l 1,14,15
EndSplineSet
Validated: 1
EndChar

StartChar: P
Encoding: 80 80 48
Width: 1229
GlyphClass: 2
Flags: W
LayerCount: 2
Fore
SplineSet
927 942 m 0,0,1
 927 1196 927 1196 599 1196 c 2,2,-1
 524 1196 l 1,3,-1
 524 1349 l 1,4,-1
 622 1349 l 2,5,6
 865 1349 865 1349 995 1238 c 0,7,8
 1119 1132 1119 1132 1119 945 c 0,9,10
 1119 765 1119 765 1000 646 c 0,11,12
 867 514 867 514 634 514 c 2,13,-1
 524 514 l 1,14,-1
 524 665 l 1,15,-1
 607 665 l 2,16,17
 765 665 765 665 850 745 c 0,18,19
 927 818 927 818 927 942 c 0,0,1
353 0 m 1,20,-1
 162 0 l 1,21,-1
 162 1349 l 1,22,-1
 353 1349 l 1,23,-1
 353 0 l 1,20,-1
EndSplineSet
Validated: 1
EndChar

StartChar: Q
Encoding: 81 81 49
Width: 1229
GlyphClass: 2
Flags: W
LayerCount: 2
Fore
SplineSet
1126 681 m 0,0,1
 1126 534 1126 534 1100.5 416.5 c 128,-1,2
 1075 299 1075 299 1026 213 c 128,-1,3
 977 127 977 127 906.5 72.5 c 128,-1,4
 836 18 836 18 746 -4 c 1,5,6
 787 -130 787 -130 854 -187 c 128,-1,7
 921 -244 921 -244 1022 -244 c 0,8,9
 1050 -244 1050 -244 1082 -240 c 128,-1,10
 1114 -236 1114 -236 1137 -231 c 1,11,-1
 1137 -365 l 1,12,13
 1099 -374 1099 -374 1053.5 -380.5 c 128,-1,14
 1008 -387 1008 -387 959 -387 c 0,15,16
 874 -387 874 -387 809.5 -361.5 c 128,-1,17
 745 -336 745 -336 696.5 -288.5 c 128,-1,18
 648 -241 648 -241 613 -172 c 128,-1,19
 578 -103 578 -103 551 -16 c 1,20,21
 439 -5 439 -5 355 46.5 c 128,-1,22
 271 98 271 98 214.5 187 c 128,-1,23
 158 276 158 276 130 400.5 c 128,-1,24
 102 525 102 525 102 681 c 0,25,26
 102 854 102 854 136 983 c 128,-1,27
 170 1112 170 1112 235 1198 c 128,-1,28
 300 1284 300 1284 395.5 1327 c 128,-1,29
 491 1370 491 1370 615 1370 c 0,30,31
 862 1370 862 1370 994 1196.5 c 128,-1,32
 1126 1023 1126 1023 1126 681 c 0,0,1
925 681 m 0,33,34
 925 951 925 951 846 1082.5 c 128,-1,35
 767 1214 767 1214 615 1214 c 0,36,37
 459 1214 459 1214 381 1082.5 c 128,-1,38
 303 951 303 951 303 681 c 256,39,40
 303 411 303 411 382 273 c 128,-1,41
 461 135 461 135 614 135 c 0,42,43
 777 135 777 135 851 275 c 128,-1,44
 925 415 925 415 925 681 c 0,33,34
EndSplineSet
Validated: 1
EndChar

StartChar: R
Encoding: 82 82 50
Width: 1229
GlyphClass: 2
Flags: W
LayerCount: 2
Fore
SplineSet
929 973 m 0,0,1
 929 1196 929 1196 625 1196 c 2,2,-1
 524 1196 l 1,3,-1
 524 1349 l 1,4,-1
 644 1349 l 2,5,6
 999 1349 999 1349 1092 1132 c 0,7,8
 1121 1063 1121 1063 1121 988.5 c 128,-1,9
 1121 914 1121 914 1101.5 852.5 c 128,-1,10
 1082 791 1082 791 1040 740 c 0,11,12
 947 625 947 625 777 597 c 1,13,-1
 1177 0 l 1,14,-1
 957 0 l 1,15,-1
 591 575 l 1,16,-1
 524 575 l 1,17,-1
 524 726 l 1,18,-1
 633 726 l 2,19,20
 861 726 861 726 914 878 c 0,21,22
 929 923 929 923 929 973 c 0,0,1
352 0 m 1,23,-1
 162 0 l 1,24,-1
 162 1349 l 1,25,-1
 352 1349 l 1,26,-1
 352 0 l 1,23,-1
EndSplineSet
Validated: 1
EndChar

StartChar: S
Encoding: 83 83 51
Width: 1229
GlyphClass: 2
Flags: W
HStem: -20 149<410.809 827.786> 1226 144<415.26 795.97>
VStem: 79 185<267.375 340.867> 145 186<894.033 1147.29> 907 188<1043.48 1118.92> 939 189<228.881 495.964>
LayerCount: 2
Fore
SplineSet
1109 498 m 128,-1,1
 1128 443 1128 443 1128 364 c 128,-1,2
 1128 285 1128 285 1097 213.5 c 128,-1,3
 1066 142 1066 142 1002 90 c 0,4,5
 868 -20 868 -20 622 -20 c 128,-1,6
 376 -20 376 -20 245.5 72 c 128,-1,7
 115 164 115 164 79 338 c 1,8,-1
 264 375 l 1,9,10
 318 129 318 129 615 129 c 0,11,12
 846 129 846 129 915 259 c 0,13,14
 939 304 939 304 939 370.5 c 128,-1,15
 939 437 939 437 906.5 481 c 128,-1,16
 874 525 874 525 821 553 c 128,-1,17
 768 581 768 581 701.5 598.5 c 128,-1,18
 635 616 635 616 576 631 c 128,-1,19
 517 646 517 646 466 660.5 c 128,-1,20
 415 675 415 675 368 694.5 c 128,-1,21
 321 714 321 714 280.5 740.5 c 128,-1,22
 240 767 240 767 210 804 c 0,23,24
 145 884 145 884 145 995 c 128,-1,25
 145 1106 145 1106 181 1174.5 c 128,-1,26
 217 1243 217 1243 280 1286 c 0,27,28
 401 1370 401 1370 615 1370 c 0,29,30
 938 1370 938 1370 1041 1186 c 0,31,32
 1075 1126 1075 1126 1095 1046 c 1,33,-1
 907 1013 l 1,34,35
 861 1226 861 1226 614 1226 c 0,36,37
 393 1226 393 1226 346 1097 c 0,38,39
 331 1058 331 1058 331 1005.5 c 128,-1,40
 331 953 331 953 357.5 915.5 c 128,-1,41
 384 878 384 878 429.5 853.5 c 128,-1,42
 475 829 475 829 535.5 813 c 128,-1,43
 596 797 596 797 658 781 c 128,-1,44
 720 765 720 765 776 749.5 c 128,-1,45
 832 734 832 734 883.5 713 c 128,-1,46
 935 692 935 692 979.5 663.5 c 128,-1,47
 1024 635 1024 635 1057 594 c 128,-1,0
 1090 553 1090 553 1109 498 c 128,-1,1
EndSplineSet
Validated: 1
EndChar

StartChar: T
Encoding: 84 84 52
Width: 1229
GlyphClass: 2
Flags: W
LayerCount: 2
Fore
SplineSet
709 1193 m 1,0,-1
 709 0 l 1,1,-1
 519 0 l 1,2,-1
 519 1193 l 1,3,-1
 76 1193 l 1,4,-1
 76 1349 l 1,5,-1
 1152 1349 l 1,6,-1
 1152 1193 l 1,7,-1
 709 1193 l 1,0,-1
EndSplineSet
Validated: 1
EndChar

StartChar: U
Encoding: 85 85 53
Width: 1229
GlyphClass: 2
Flags: W
LayerCount: 2
Fore
SplineSet
1085 490 m 2,0,1
 1085 353 1085 353 1056 256 c 128,-1,2
 1027 159 1027 159 967.5 97.5 c 128,-1,3
 908 36 908 36 817.5 8 c 128,-1,4
 727 -20 727 -20 605 -20 c 0,5,6
 489 -20 489 -20 402 6.5 c 128,-1,7
 315 33 315 33 257.5 91.5 c 128,-1,8
 200 150 200 150 171 243.5 c 128,-1,9
 142 337 142 337 142 472 c 2,10,-1
 142 1349 l 1,11,-1
 333 1349 l 1,12,-1
 333 498 l 2,13,14
 333 401 333 401 345.5 332 c 128,-1,15
 358 263 358 263 388.5 219 c 128,-1,16
 419 175 419 175 471.5 155 c 128,-1,17
 524 135 524 135 604 135 c 0,18,19
 687 135 687 135 742.5 155 c 128,-1,20
 798 175 798 175 832 219.5 c 128,-1,21
 866 264 866 264 880.5 336 c 128,-1,22
 895 408 895 408 895 511 c 2,23,-1
 895 1349 l 1,24,-1
 1085 1349 l 1,25,-1
 1085 490 l 2,0,1
EndSplineSet
Validated: 1
EndChar

StartChar: V
Encoding: 86 86 54
Width: 1229
GlyphClass: 2
Flags: W
LayerCount: 2
Fore
SplineSet
713 0 m 1,0,-1
 515 0 l 1,1,-1
 10 1349 l 1,2,-1
 211 1349 l 1,3,-1
 531 447 l 2,4,5
 547 402 547 402 561.5 353.5 c 128,-1,6
 576 305 576 305 588 263 c 0,7,8
 602 215 602 215 615 168 c 1,9,10
 627 213 627 213 641 261 c 0,11,12
 653 302 653 302 668 351 c 128,-1,13
 683 400 683 400 699 447 c 2,14,-1
 1017 1349 l 1,15,-1
 1218 1349 l 1,16,-1
 713 0 l 1,0,-1
EndSplineSet
Validated: 1
EndChar

StartChar: W
Encoding: 87 87 55
Width: 1229
GlyphClass: 2
Flags: W
HStem: 0 21G<207.872 424.478 804.625 1021.11> 1329 20G<0 191.611 1036.51 1228>
VStem: 0 189<1257.34 1349> 1039 189<1256.91 1349>
LayerCount: 2
Fore
SplineSet
1018 0 m 1,0,-1
 810 0 l 1,1,-1
 706 387 l 1,2,3
 698 422 698 422 620 750 c 1,4,5
 572 568 572 568 525 387 c 1,6,-1
 419 0 l 1,7,-1
 211 0 l 1,8,-1
 0 1349 l 1,9,-1
 189 1349 l 1,10,11
 324 304 324 304 336 226 c 1,12,13
 433 590 433 590 530 955 c 1,14,-1
 705 955 l 1,15,-1
 911 226 l 1,16,-1
 1039 1349 l 1,17,-1
 1228 1349 l 1,18,-1
 1018 0 l 1,0,-1
EndSplineSet
EndChar

StartChar: X
Encoding: 88 88 56
Width: 1229
GlyphClass: 2
Flags: W
LayerCount: 2
Fore
SplineSet
614 836 m 1,0,-1
 947 1349 l 1,1,-1
 1152 1349 l 1,2,-1
 717 705 l 1,3,-1
 1193 0 l 1,4,-1
 988 0 l 1,5,-1
 614 573 l 1,6,-1
 241 0 l 1,7,-1
 36 0 l 1,8,-1
 512 705 l 1,9,-1
 77 1349 l 1,10,-1
 282 1349 l 1,11,-1
 614 836 l 1,0,-1
EndSplineSet
Validated: 1
EndChar

StartChar: Y
Encoding: 89 89 57
Width: 1229
GlyphClass: 2
Flags: W
LayerCount: 2
Fore
SplineSet
708 584 m 1,0,-1
 708 0 l 1,1,-1
 520 0 l 1,2,-1
 520 584 l 1,3,-1
 36 1349 l 1,4,-1
 241 1349 l 1,5,-1
 615 738 l 1,6,-1
 987 1349 l 1,7,-1
 1192 1349 l 1,8,-1
 708 584 l 1,0,-1
EndSplineSet
Validated: 1
EndChar

StartChar: Z
Encoding: 90 90 58
Width: 1229
GlyphClass: 2
Flags: W
LayerCount: 2
Fore
SplineSet
1155 0 m 1,0,-1
 73 0 l 1,1,-1
 73 143 l 1,2,-1
 891 1193 l 1,3,-1
 146 1193 l 1,4,-1
 146 1349 l 1,5,-1
 1108 1349 l 1,6,-1
 1108 1210 l 1,7,-1
 290 156 l 1,8,-1
 1155 156 l 1,9,-1
 1155 0 l 1,0,-1
EndSplineSet
Validated: 1
EndChar

StartChar: bracketleft
Encoding: 91 91 59
Width: 1229
GlyphClass: 2
Flags: W
LayerCount: 2
Fore
SplineSet
410 -425 m 1,0,-1
 410 1484 l 1,1,-1
 957 1484 l 1,2,-1
 957 1345 l 1,3,-1
 590 1345 l 1,4,-1
 590 -286 l 1,5,-1
 957 -286 l 1,6,-1
 957 -425 l 1,7,-1
 410 -425 l 1,0,-1
EndSplineSet
Validated: 1
EndChar

StartChar: backslash
Encoding: 92 92 60
Width: 1229
GlyphClass: 2
Flags: W
LayerCount: 2
Fore
SplineSet
932 -20 m 1,0,-1
 115 1484 l 1,1,-1
 293 1484 l 1,2,-1
 1114 -20 l 1,3,-1
 932 -20 l 1,0,-1
EndSplineSet
Validated: 1
EndChar

StartChar: bracketright
Encoding: 93 93 61
Width: 1229
GlyphClass: 2
Flags: W
LayerCount: 2
Fore
SplineSet
270 -425 m 1,0,-1
 270 -286 l 1,1,-1
 637 -286 l 1,2,-1
 637 1345 l 1,3,-1
 270 1345 l 1,4,-1
 270 1484 l 1,5,-1
 817 1484 l 1,6,-1
 817 -425 l 1,7,-1
 270 -425 l 1,0,-1
EndSplineSet
Validated: 1
EndChar

StartChar: asciicircum
Encoding: 94 94 62
Width: 1229
GlyphClass: 2
Flags: W
LayerCount: 2
Fore
SplineSet
940 442 m 1,0,-1
 611 1245 l 1,1,-1
 285 442 l 1,2,-1
 133 442 l 1,3,-1
 511 1349 l 1,4,-1
 714 1349 l 1,5,-1
 1094 442 l 1,6,-1
 940 442 l 1,0,-1
EndSplineSet
Validated: 1
EndChar

StartChar: underscore
Encoding: 95 95 63
Width: 1229
GlyphClass: 2
Flags: W
LayerCount: 2
Fore
SplineSet
-5 -220 m 1,0,-1
 -5 -124 l 1,1,-1
 1233 -124 l 1,2,-1
 1233 -220 l 1,3,-1
 -5 -220 l 1,0,-1
EndSplineSet
Validated: 1
EndChar

StartChar: grave
Encoding: 96 96 64
Width: 1229
GlyphClass: 2
Flags: W
LayerCount: 2
Fore
SplineSet
702 1201 m 1,0,-1
 402 1431 l 1,1,-1
 402 1460 l 1,2,-1
 599 1460 l 1,3,-1
 826 1221 l 1,4,-1
 826 1201 l 1,5,-1
 702 1201 l 1,0,-1
EndSplineSet
Validated: 1
EndChar

StartChar: a
Encoding: 97 97 65
Width: 1229
GlyphClass: 2
Flags: W
LayerCount: 2
Fore
SplineSet
1101 111 m 0,0,1
 1116 111 1116 111 1131 113 c 128,-1,2
 1146 115 1146 115 1160 118 c 1,3,-1
 1160 6 l 1,4,5
 1126 -2 1126 -2 1092.5 -6 c 128,-1,6
 1059 -10 1059 -10 1021 -10 c 0,7,8
 970 -10 970 -10 933.5 3.5 c 128,-1,9
 897 17 897 17 874 44.5 c 128,-1,10
 851 72 851 72 839 112.5 c 128,-1,11
 827 153 827 153 824 207 c 1,12,-1
 818 207 l 1,13,14
 790 155 790 155 756 113 c 128,-1,15
 722 71 722 71 678 41.5 c 128,-1,16
 634 12 634 12 577 -4 c 128,-1,17
 520 -20 520 -20 446 -20 c 0,18,19
 288 -20 288 -20 208 66 c 128,-1,20
 128 152 128 152 128 302 c 0,21,22
 128 409 128 409 167.5 477.5 c 128,-1,23
 207 546 207 546 271 585 c 128,-1,24
 335 624 335 624 416.5 639.5 c 128,-1,25
 498 655 498 655 582 656 c 2,26,-1
 818 660 l 1,27,-1
 818 719 l 2,28,29
 818 786 818 786 804.5 833 c 128,-1,30
 791 880 791 880 763.5 909 c 128,-1,31
 736 938 736 938 694 951.5 c 128,-1,32
 652 965 652 965 596 965 c 0,33,34
 546 965 546 965 505.5 957.5 c 128,-1,35
 465 950 465 950 436 930.5 c 128,-1,36
 407 911 407 911 388.5 877.5 c 128,-1,37
 370 844 370 844 364 793 c 1,38,-1
 176 810 l 1,39,40
 186 874 186 874 213.5 927.5 c 128,-1,41
 241 981 241 981 291 1020 c 128,-1,42
 341 1059 341 1059 416.5 1080.5 c 128,-1,43
 492 1102 492 1102 599 1102 c 0,44,45
 799 1102 799 1102 899.5 1008.5 c 128,-1,46
 1000 915 1000 915 1000 738 c 2,47,-1
 1000 272 l 2,48,49
 1000 192 1000 192 1021 151.5 c 128,-1,50
 1042 111 1042 111 1101 111 c 0,0,1
492 117 m 0,51,52
 575 117 575 117 636 148.5 c 128,-1,53
 697 180 697 180 737.5 228 c 128,-1,54
 778 276 778 276 798 334 c 128,-1,55
 818 392 818 392 818 445 c 2,56,-1
 818 534 l 1,57,-1
 628 530 l 2,58,59
 573 529 573 529 517.5 521.5 c 128,-1,60
 462 514 462 514 417.5 490 c 128,-1,61
 373 466 373 466 345 420.5 c 128,-1,62
 317 375 317 375 317 299 c 0,63,64
 317 217 317 217 361.5 167 c 128,-1,65
 406 117 406 117 492 117 c 0,51,52
EndSplineSet
Validated: 1
EndChar

StartChar: b
Encoding: 98 98 66
Width: 1229
GlyphClass: 2
Flags: W
LayerCount: 2
Fore
SplineSet
1090 546 m 0,0,1
 1090 262 1090 262 988.5 121 c 128,-1,2
 887 -20 887 -20 698 -20 c 0,3,4
 582 -20 582 -20 497 23 c 128,-1,5
 412 66 412 66 364 164 c 1,6,-1
 362 164 l 1,7,8
 362 138 362 138 361 110.5 c 128,-1,9
 360 83 360 83 358.5 60 c 128,-1,10
 357 37 357 37 355.5 20.5 c 128,-1,11
 354 4 354 4 353 0 c 1,12,-1
 179 0 l 1,13,14
 180 9 180 9 181 30.5 c 128,-1,15
 182 52 182 52 183 82 c 128,-1,16
 184 112 184 112 184.5 148 c 128,-1,17
 185 184 185 184 185 223 c 2,18,-1
 185 1484 l 1,19,-1
 365 1484 l 1,20,-1
 365 1061 l 2,21,22
 365 1032 365 1032 364.5 1003.5 c 128,-1,23
 364 975 364 975 363 953 c 0,24,25
 362 927 362 927 361 904 c 1,26,-1
 365 904 l 1,27,28
 413 1009 413 1009 497.5 1056.5 c 128,-1,29
 582 1104 582 1104 699 1104 c 0,30,31
 894 1104 894 1104 992 965.5 c 128,-1,32
 1090 827 1090 827 1090 546 c 0,0,1
904 540 m 0,33,34
 904 652 904 652 889 732.5 c 128,-1,35
 874 813 874 813 842.5 864.5 c 128,-1,36
 811 916 811 916 763.5 940.5 c 128,-1,37
 716 965 716 965 650 965 c 256,38,39
 584 965 584 965 531 942.5 c 128,-1,40
 478 920 478 920 441.5 868.5 c 128,-1,41
 405 817 405 817 385 732.5 c 128,-1,42
 365 648 365 648 365 524 c 0,43,44
 365 405 365 405 385 326 c 128,-1,45
 405 247 405 247 441.5 199.5 c 128,-1,46
 478 152 478 152 530.5 132.5 c 128,-1,47
 583 113 583 113 648 113 c 0,48,49
 711 113 711 113 759 136 c 128,-1,50
 807 159 807 159 839 210 c 128,-1,51
 871 261 871 261 887.5 342.5 c 128,-1,52
 904 424 904 424 904 540 c 0,33,34
EndSplineSet
Validated: 1
EndChar

StartChar: c
Encoding: 99 99 67
Width: 1229
GlyphClass: 2
Flags: W
LayerCount: 2
Fore
SplineSet
130 542 m 0,0,1
 130 705 130 705 173 813 c 128,-1,2
 216 921 216 921 286.5 985 c 128,-1,3
 357 1049 357 1049 447 1075.5 c 128,-1,4
 537 1102 537 1102 632 1102 c 0,5,6
 730 1102 730 1102 807 1077 c 128,-1,7
 884 1052 884 1052 939.5 1008.5 c 128,-1,8
 995 965 995 965 1030 906 c 128,-1,9
 1065 847 1065 847 1078 779 c 1,10,-1
 886 765 l 1,11,12
 870 856 870 856 806 908.5 c 128,-1,13
 742 961 742 961 624 961 c 0,14,15
 538 961 538 961 479.5 933.5 c 128,-1,16
 421 906 421 906 385.5 853.5 c 128,-1,17
 350 801 350 801 334.5 723.5 c 128,-1,18
 319 646 319 646 319 546 c 256,19,20
 319 446 319 446 334.5 366.5 c 128,-1,21
 350 287 350 287 385.5 232 c 128,-1,22
 421 177 421 177 479.5 148 c 128,-1,23
 538 119 538 119 623 119 c 0,24,25
 731 119 731 119 802 172 c 128,-1,26
 873 225 873 225 890 334 c 1,27,-1
 1080 322 l 1,28,29
 1071 255 1071 255 1037 193 c 128,-1,30
 1003 131 1003 131 946 84 c 128,-1,31
 889 37 889 37 810 8.5 c 128,-1,32
 731 -20 731 -20 631 -20 c 0,33,34
 494 -20 494 -20 398.5 23 c 128,-1,35
 303 66 303 66 243.5 141.5 c 128,-1,36
 184 217 184 217 157 319.5 c 128,-1,37
 130 422 130 422 130 542 c 0,0,1
EndSplineSet
Validated: 1
EndChar

StartChar: d
Encoding: 100 100 68
Width: 1229
GlyphClass: 2
Flags: W
LayerCount: 2
Fore
SplineSet
862 174 m 1,0,1
 813 69 813 69 732 21.5 c 128,-1,2
 651 -26 651 -26 530 -26 c 0,3,4
 328 -26 328 -26 233 113 c 128,-1,5
 138 252 138 252 138 532 c 0,6,7
 138 1098 138 1098 530 1098 c 0,8,9
 651 1098 651 1098 732.5 1055 c 128,-1,10
 814 1012 814 1012 863 914 c 1,11,-1
 865 914 l 1,12,13
 865 919 865 919 864.5 940 c 128,-1,14
 864 961 864 961 864 986 c 128,-1,15
 864 1011 864 1011 863.5 1033.5 c 128,-1,16
 863 1056 863 1056 863 1065 c 2,17,-1
 863 1484 l 1,18,-1
 1043 1484 l 1,19,-1
 1043 223 l 2,20,21
 1043 184 1043 184 1043.5 148 c 128,-1,22
 1044 112 1044 112 1045 82 c 128,-1,23
 1046 52 1046 52 1047 30.5 c 128,-1,24
 1048 9 1048 9 1049 0 c 1,25,-1
 877 0 l 1,26,27
 876 4 876 4 874 22 c 128,-1,28
 872 40 872 40 870.5 65 c 128,-1,29
 869 90 869 90 868 119 c 128,-1,30
 867 148 867 148 867 174 c 1,31,-1
 862 174 l 1,0,1
324 538 m 0,32,33
 324 426 324 426 338.5 346 c 128,-1,34
 353 266 353 266 383.5 214 c 128,-1,35
 414 162 414 162 462 137.5 c 128,-1,36
 510 113 510 113 577 113 c 0,37,38
 646 113 646 113 699.5 137 c 128,-1,39
 753 161 753 161 789.5 213.5 c 128,-1,40
 826 266 826 266 844.5 350 c 128,-1,41
 863 434 863 434 863 554 c 0,42,43
 863 670 863 670 844.5 748.5 c 128,-1,44
 826 827 826 827 790 875 c 128,-1,45
 754 923 754 923 701 944 c 128,-1,46
 648 965 648 965 579 965 c 0,47,48
 515 965 515 965 467 942 c 128,-1,49
 419 919 419 919 387.5 868 c 128,-1,50
 356 817 356 817 340 735.5 c 128,-1,51
 324 654 324 654 324 538 c 0,32,33
EndSplineSet
Validated: 1
EndChar

StartChar: e
Encoding: 101 101 69
Width: 1229
GlyphClass: 2
Flags: W
LayerCount: 2
Fore
SplineSet
322 503 m 1,0,1
 322 418 322 418 341 346.5 c 128,-1,2
 360 275 360 275 398 223.5 c 128,-1,3
 436 172 436 172 492.5 143.5 c 128,-1,4
 549 115 549 115 623 115 c 0,5,6
 678 115 678 115 724.5 127.5 c 128,-1,7
 771 140 771 140 808 162 c 128,-1,8
 845 184 845 184 870 214.5 c 128,-1,9
 895 245 895 245 907 281 c 1,10,-1
 1065 236 l 1,11,12
 1049 191 1049 191 1017 145.5 c 128,-1,13
 985 100 985 100 932 63.5 c 128,-1,14
 879 27 879 27 803 3.5 c 128,-1,15
 727 -20 727 -20 623 -20 c 0,16,17
 508 -20 508 -20 417 16 c 128,-1,18
 326 52 326 52 263 123 c 128,-1,19
 200 194 200 194 166.5 300.5 c 128,-1,20
 133 407 133 407 133 548 c 0,21,22
 133 704 133 704 172.5 810 c 128,-1,23
 212 916 212 916 279 981 c 128,-1,24
 346 1046 346 1046 433.5 1074 c 128,-1,25
 521 1102 521 1102 617 1102 c 0,26,27
 748 1102 748 1102 838.5 1060 c 128,-1,28
 929 1018 929 1018 986 942.5 c 128,-1,29
 1043 867 1043 867 1068.5 761 c 128,-1,30
 1094 655 1094 655 1094 527 c 2,31,-1
 1094 503 l 1,32,-1
 322 503 l 1,0,1
619 969 m 0,33,34
 573 969 573 969 522.5 954.5 c 128,-1,35
 472 940 472 940 429 903 c 128,-1,36
 386 866 386 866 356.5 802.5 c 128,-1,37
 327 739 327 739 324 641 c 1,38,-1
 908 641 l 1,39,40
 900 735 900 735 874 798 c 128,-1,41
 848 861 848 861 809.5 899 c 128,-1,42
 771 937 771 937 722 953 c 128,-1,43
 673 969 673 969 619 969 c 0,33,34
EndSplineSet
Validated: 1
EndChar

StartChar: f
Encoding: 102 102 70
Width: 1229
GlyphClass: 2
Flags: W
LayerCount: 2
Fore
SplineSet
580 940 m 1,0,-1
 580 0 l 1,1,-1
 400 0 l 1,2,-1
 400 940 l 1,3,-1
 138 940 l 1,4,-1
 138 1082 l 1,5,-1
 400 1082 l 1,6,-1
 400 1107 l 2,7,8
 400 1208 400 1208 422.5 1279.5 c 128,-1,9
 445 1351 445 1351 495 1396.5 c 128,-1,10
 545 1442 545 1442 624.5 1463 c 128,-1,11
 704 1484 704 1484 818 1484 c 0,12,13
 847 1484 847 1484 887 1482.5 c 128,-1,14
 927 1481 927 1481 967 1478 c 128,-1,15
 1007 1475 1007 1475 1042.5 1471 c 128,-1,16
 1078 1467 1078 1467 1099 1463 c 1,17,-1
 1099 1318 l 1,18,19
 1081 1321 1081 1321 1045 1324 c 128,-1,20
 1009 1327 1009 1327 969.5 1329.5 c 128,-1,21
 930 1332 930 1332 894 1333.5 c 128,-1,22
 858 1335 858 1335 839 1335 c 0,23,24
 773 1335 773 1335 724 1325 c 128,-1,25
 675 1315 675 1315 643 1288 c 128,-1,26
 611 1261 611 1261 595.5 1214 c 128,-1,27
 580 1167 580 1167 580 1092 c 2,28,-1
 580 1082 l 1,29,-1
 1071 1082 l 1,30,-1
 1071 940 l 1,31,-1
 580 940 l 1,0,-1
EndSplineSet
Validated: 1
EndChar

StartChar: g
Encoding: 103 103 71
Width: 1229
GlyphClass: 2
Flags: W
LayerCount: 2
Fore
SplineSet
615 -424 m 0,0,1
 525 -424 525 -424 456.5 -405 c 128,-1,2
 388 -386 388 -386 338.5 -350.5 c 128,-1,3
 289 -315 289 -315 258.5 -266 c 128,-1,4
 228 -217 228 -217 215 -157 c 1,5,-1
 399 -132 l 1,6,7
 416 -207 416 -207 472.5 -247.5 c 128,-1,8
 529 -288 529 -288 621 -288 c 0,9,10
 678 -288 678 -288 723.5 -271 c 128,-1,11
 769 -254 769 -254 801.5 -216.5 c 128,-1,12
 834 -179 834 -179 851.5 -119 c 128,-1,13
 869 -59 869 -59 869 27 c 2,14,-1
 869 221 l 1,15,-1
 867 221 l 1,16,17
 848 181 848 181 818.5 143 c 128,-1,18
 789 105 789 105 747.5 76 c 128,-1,19
 706 47 706 47 651 29.5 c 128,-1,20
 596 12 596 12 524 12 c 0,21,22
 422 12 422 12 350 45 c 128,-1,23
 278 78 278 78 232 145 c 128,-1,24
 186 212 186 212 164.5 313 c 128,-1,25
 143 414 143 414 143 549 c 0,26,27
 143 680 143 680 164.5 782 c 128,-1,28
 186 884 186 884 233.5 954.5 c 128,-1,29
 281 1025 281 1025 357 1062 c 128,-1,30
 433 1099 433 1099 543 1099 c 0,31,32
 656 1099 656 1099 739.5 1046.5 c 128,-1,33
 823 994 823 994 868 897 c 1,34,-1
 871 897 l 1,35,36
 871 922 871 922 872.5 953 c 128,-1,37
 874 984 874 984 875.5 1011.5 c 128,-1,38
 877 1039 877 1039 879.5 1059 c 128,-1,39
 882 1079 882 1079 883 1082 c 2,40,-1
 1054 1082 l 1,41,42
 1053 1073 1053 1073 1052 1051.5 c 128,-1,43
 1051 1030 1051 1030 1050 1000 c 128,-1,44
 1049 970 1049 970 1048.5 933.5 c 128,-1,45
 1048 897 1048 897 1048 858 c 2,46,-1
 1048 32 l 2,47,48
 1048 -195 1048 -195 942 -309.5 c 128,-1,49
 836 -424 836 -424 615 -424 c 0,0,1
869 551 m 0,50,51
 869 664 869 664 845 743 c 128,-1,52
 821 822 821 822 781.5 871.5 c 128,-1,53
 742 921 742 921 691.5 943 c 128,-1,54
 641 965 641 965 588 965 c 0,55,56
 521 965 521 965 472 942.5 c 128,-1,57
 423 920 423 920 391 870.5 c 128,-1,58
 359 821 359 821 344 742.5 c 128,-1,59
 329 664 329 664 329 551 c 0,60,61
 329 434 329 434 344 356 c 128,-1,62
 359 278 359 278 390.5 231 c 128,-1,63
 422 184 422 184 470.5 164.5 c 128,-1,64
 519 145 519 145 585 145 c 0,65,66
 638 145 638 145 689 166.5 c 128,-1,67
 740 188 740 188 780 236 c 128,-1,68
 820 284 820 284 844.5 361.5 c 128,-1,69
 869 439 869 439 869 551 c 0,50,51
EndSplineSet
Validated: 1
EndChar

StartChar: h
Encoding: 104 104 72
Width: 1229
GlyphClass: 2
Flags: W
LayerCount: 2
Fore
SplineSet
185 1484 m 1,0,-1
 366 1484 l 1,1,-1
 366 1094 l 2,2,3
 366 1044 366 1044 363 993.5 c 128,-1,4
 360 943 360 943 357 897 c 1,5,-1
 360 897 l 1,6,7
 384 944 384 944 416 982 c 128,-1,8
 448 1020 448 1020 489 1046.5 c 128,-1,9
 530 1073 530 1073 582.5 1087.5 c 128,-1,10
 635 1102 635 1102 699 1102 c 0,11,12
 782 1102 782 1102 847 1080 c 128,-1,13
 912 1058 912 1058 957 1012 c 128,-1,14
 1002 966 1002 966 1025.5 894 c 128,-1,15
 1049 822 1049 822 1049 721 c 2,16,-1
 1049 0 l 1,17,-1
 868 0 l 1,18,-1
 868 695 l 2,19,20
 868 775 868 775 851.5 826.5 c 128,-1,21
 835 878 835 878 805.5 908.5 c 128,-1,22
 776 939 776 939 736 951 c 128,-1,23
 696 963 696 963 648 963 c 0,24,25
 589 963 589 963 537.5 940.5 c 128,-1,26
 486 918 486 918 447.5 875.5 c 128,-1,27
 409 833 409 833 387 770.5 c 128,-1,28
 365 708 365 708 365 627 c 2,29,-1
 365 0 l 1,30,-1
 185 0 l 1,31,-1
 185 1484 l 1,0,-1
EndSplineSet
Validated: 1
EndChar

StartChar: i
Encoding: 105 105 73
Width: 1229
GlyphClass: 2
Flags: W
LayerCount: 2
Fore
SplineSet
745 142 m 1,0,-1
 1125 142 l 1,1,-1
 1125 0 l 1,2,-1
 143 0 l 1,3,-1
 143 142 l 1,4,-1
 565 142 l 1,5,-1
 565 940 l 1,6,-1
 246 940 l 1,7,-1
 246 1082 l 1,8,-1
 745 1082 l 1,9,-1
 745 142 l 1,0,-1
545 1292 m 1,10,-1
 545 1484 l 1,11,-1
 745 1484 l 1,12,-1
 745 1292 l 1,13,-1
 545 1292 l 1,10,-1
EndSplineSet
Validated: 1
EndChar

StartChar: j
Encoding: 106 106 74
Width: 1229
GlyphClass: 2
Flags: W
LayerCount: 2
Fore
SplineSet
836 -28 m 2,0,1
 836 -137 836 -137 800.5 -212.5 c 128,-1,2
 765 -288 765 -288 706 -335.5 c 128,-1,3
 647 -383 647 -383 569 -404 c 128,-1,4
 491 -425 491 -425 405 -425 c 0,5,6
 364 -425 364 -425 323 -421.5 c 128,-1,7
 282 -418 282 -418 244 -412 c 128,-1,8
 206 -406 206 -406 173.5 -398.5 c 128,-1,9
 141 -391 141 -391 117 -382 c 1,10,-1
 117 -242 l 1,11,12
 139 -247 139 -247 169 -253 c 128,-1,13
 199 -259 199 -259 235 -264 c 128,-1,14
 271 -269 271 -269 310.5 -272.5 c 128,-1,15
 350 -276 350 -276 390 -276 c 0,16,17
 446 -276 446 -276 494.5 -262 c 128,-1,18
 543 -248 543 -248 579 -217.5 c 128,-1,19
 615 -187 615 -187 635.5 -139.5 c 128,-1,20
 656 -92 656 -92 656 -25 c 2,21,-1
 656 940 l 1,22,-1
 249 940 l 1,23,-1
 249 1082 l 1,24,-1
 836 1082 l 1,25,-1
 836 -28 l 2,0,1
636 1292 m 1,26,-1
 636 1484 l 1,27,-1
 836 1484 l 1,28,-1
 836 1292 l 1,29,-1
 636 1292 l 1,26,-1
EndSplineSet
Validated: 1
EndChar

StartChar: k
Encoding: 107 107 75
Width: 1229
GlyphClass: 2
Flags: W
LayerCount: 2
Fore
SplineSet
914 0 m 1,0,-1
 548 499 l 1,1,-1
 416 401 l 1,2,-1
 416 0 l 1,3,-1
 236 0 l 1,4,-1
 236 1484 l 1,5,-1
 416 1484 l 1,6,-1
 416 557 l 1,7,-1
 891 1082 l 1,8,-1
 1102 1082 l 1,9,-1
 663 617 l 1,10,-1
 1125 0 l 1,11,-1
 914 0 l 1,0,-1
EndSplineSet
Validated: 1
EndChar

StartChar: l
Encoding: 108 108 76
Width: 1229
GlyphClass: 2
Flags: W
LayerCount: 2
Fore
SplineSet
736 142 m 1,0,-1
 1116 142 l 1,1,-1
 1116 0 l 1,2,-1
 134 0 l 1,3,-1
 134 142 l 1,4,-1
 556 142 l 1,5,-1
 556 1342 l 1,6,-1
 267 1342 l 1,7,-1
 267 1484 l 1,8,-1
 736 1484 l 1,9,-1
 736 142 l 1,0,-1
EndSplineSet
Validated: 1
EndChar

StartChar: m
Encoding: 109 109 77
Width: 1229
GlyphClass: 2
Flags: W
LayerCount: 2
Fore
SplineSet
531 0 m 1,0,-1
 531 686 l 2,1,2
 531 765 531 765 525 818 c 128,-1,3
 519 871 519 871 505.5 903.5 c 128,-1,4
 492 936 492 936 470.5 949.5 c 128,-1,5
 449 963 449 963 417 963 c 0,6,7
 384 963 384 963 358 937.5 c 128,-1,8
 332 912 332 912 313 865.5 c 128,-1,9
 294 819 294 819 284 753.5 c 128,-1,10
 274 688 274 688 274 607 c 2,11,-1
 274 0 l 1,12,-1
 105 0 l 1,13,-1
 105 851 l 2,14,15
 105 885 105 885 104.5 922.5 c 128,-1,16
 104 960 104 960 103 993.5 c 128,-1,17
 102 1027 102 1027 101 1051 c 128,-1,18
 100 1075 100 1075 99 1082 c 1,19,-1
 248 1082 l 1,20,21
 249 1077 249 1077 250 1056.5 c 128,-1,22
 251 1036 251 1036 252 1009.5 c 128,-1,23
 253 983 253 983 253.5 955 c 128,-1,24
 254 927 254 927 254 907 c 1,25,-1
 256 907 l 1,26,27
 269 946 269 946 287 981.5 c 128,-1,28
 305 1017 305 1017 330.5 1044 c 128,-1,29
 356 1071 356 1071 391 1086.5 c 128,-1,30
 426 1102 426 1102 472 1102 c 0,31,32
 560 1102 560 1102 603.5 1054 c 128,-1,33
 647 1006 647 1006 666 906 c 1,34,-1
 668 906 l 1,35,36
 686 953 686 953 707.5 989.5 c 128,-1,37
 729 1026 729 1026 757 1051 c 128,-1,38
 785 1076 785 1076 821 1089 c 128,-1,39
 857 1102 857 1102 904 1102 c 0,40,41
 965 1102 965 1102 1007 1080 c 128,-1,42
 1049 1058 1049 1058 1075 1012 c 128,-1,43
 1101 966 1101 966 1112.5 894 c 128,-1,44
 1124 822 1124 822 1124 721 c 2,45,-1
 1124 0 l 1,46,-1
 956 0 l 1,47,-1
 956 686 l 2,48,49
 956 765 956 765 950 818 c 128,-1,50
 944 871 944 871 930.5 903.5 c 128,-1,51
 917 936 917 936 895.5 949.5 c 128,-1,52
 874 963 874 963 842 963 c 0,53,54
 776 963 776 963 737.5 879 c 128,-1,55
 699 795 699 795 699 627 c 2,56,-1
 699 0 l 1,57,-1
 531 0 l 1,0,-1
EndSplineSet
Validated: 1
EndChar

StartChar: n
Encoding: 110 110 78
Width: 1229
GlyphClass: 2
Flags: W
LayerCount: 2
Fore
SplineSet
868 0 m 1,0,-1
 868 695 l 2,1,2
 868 775 868 775 851.5 826.5 c 128,-1,3
 835 878 835 878 805.5 908.5 c 128,-1,4
 776 939 776 939 736 951 c 128,-1,5
 696 963 696 963 648 963 c 0,6,7
 589 963 589 963 537.5 940.5 c 128,-1,8
 486 918 486 918 447.5 875.5 c 128,-1,9
 409 833 409 833 387 770.5 c 128,-1,10
 365 708 365 708 365 627 c 2,11,-1
 365 0 l 1,12,-1
 185 0 l 1,13,-1
 185 851 l 2,14,15
 185 885 185 885 184.5 922.5 c 128,-1,16
 184 960 184 960 183 993.5 c 128,-1,17
 182 1027 182 1027 181 1051 c 128,-1,18
 180 1075 180 1075 179 1082 c 1,19,-1
 349 1082 l 1,20,21
 350 1077 350 1077 351 1055 c 128,-1,22
 352 1033 352 1033 353.5 1004.5 c 128,-1,23
 355 976 355 976 356 946.5 c 128,-1,24
 357 917 357 917 357 897 c 1,25,-1
 360 897 l 1,26,27
 384 944 384 944 416.5 982 c 128,-1,28
 449 1020 449 1020 491.5 1046.5 c 128,-1,29
 534 1073 534 1073 587 1087.5 c 128,-1,30
 640 1102 640 1102 706 1102 c 0,31,32
 789 1102 789 1102 853 1080 c 128,-1,33
 917 1058 917 1058 960.5 1012 c 128,-1,34
 1004 966 1004 966 1026.5 894 c 128,-1,35
 1049 822 1049 822 1049 721 c 2,36,-1
 1049 0 l 1,37,-1
 868 0 l 1,0,-1
EndSplineSet
Validated: 1
EndChar

StartChar: o
Encoding: 111 111 79
Width: 1229
GlyphClass: 2
Flags: W
LayerCount: 2
Fore
SplineSet
1097 542 m 0,0,1
 1097 400 1097 400 1063.5 294.5 c 128,-1,2
 1030 189 1030 189 967 119 c 128,-1,3
 904 49 904 49 813.5 14.5 c 128,-1,4
 723 -20 723 -20 609 -20 c 0,5,6
 500 -20 500 -20 411.5 14 c 128,-1,7
 323 48 323 48 260.5 118 c 128,-1,8
 198 188 198 188 164 293.5 c 128,-1,9
 130 399 130 399 130 542 c 0,10,11
 130 821 130 821 256.5 961.5 c 128,-1,12
 383 1102 383 1102 615 1102 c 0,13,14
 859 1102 859 1102 978 963 c 128,-1,15
 1097 824 1097 824 1097 542 c 0,0,1
908 542 m 256,16,17
 908 668 908 668 886.5 750 c 128,-1,18
 865 832 865 832 826.5 881 c 128,-1,19
 788 930 788 930 735 949.5 c 128,-1,20
 682 969 682 969 618 969 c 0,21,22
 553 969 553 969 498 948.5 c 128,-1,23
 443 928 443 928 403.5 878.5 c 128,-1,24
 364 829 364 829 341.5 747 c 128,-1,25
 319 665 319 665 319 542 c 0,26,27
 319 416 319 416 342.5 333.5 c 128,-1,28
 366 251 366 251 405.5 202 c 128,-1,29
 445 153 445 153 497.5 133 c 128,-1,30
 550 113 550 113 607 113 c 0,31,32
 672 113 672 113 727.5 132.5 c 128,-1,33
 783 152 783 152 823 201 c 128,-1,34
 863 250 863 250 885.5 333 c 128,-1,35
 908 416 908 416 908 542 c 256,16,17
EndSplineSet
Validated: 1
EndChar

StartChar: p
Encoding: 112 112 80
Width: 1229
GlyphClass: 2
Flags: W
LayerCount: 2
Fore
SplineSet
1090 546 m 0,0,1
 1090 423 1090 423 1070 319 c 128,-1,2
 1050 215 1050 215 1004 140 c 128,-1,3
 958 65 958 65 883 22.5 c 128,-1,4
 808 -20 808 -20 698 -20 c 0,5,6
 643 -20 643 -20 593 -10 c 128,-1,7
 543 0 543 0 500 22 c 128,-1,8
 457 44 457 44 423.5 79 c 128,-1,9
 390 114 390 114 367 164 c 1,10,-1
 362 164 l 2,11,12
 363 162 363 162 363.5 146.5 c 128,-1,13
 364 131 364 131 364.5 108 c 128,-1,14
 365 85 365 85 365.5 56 c 128,-1,15
 366 27 366 27 366 -2 c 2,16,-1
 366 -425 l 1,17,-1
 185 -425 l 1,18,-1
 185 858 l 2,19,20
 185 898 185 898 184.5 935 c 128,-1,21
 184 972 184 972 183 1001.5 c 128,-1,22
 182 1031 182 1031 181 1052 c 128,-1,23
 180 1073 180 1073 179 1082 c 1,24,-1
 354 1082 l 2,25,26
 355 1079 355 1079 356.5 1060.5 c 128,-1,27
 358 1042 358 1042 359.5 1016 c 128,-1,28
 361 990 361 990 362.5 960 c 128,-1,29
 364 930 364 930 364 904 c 1,30,-1
 368 904 l 1,31,32
 393 956 393 956 424.5 994 c 128,-1,33
 456 1032 456 1032 496 1056.5 c 128,-1,34
 536 1081 536 1081 586 1092.5 c 128,-1,35
 636 1104 636 1104 698 1104 c 0,36,37
 808 1104 808 1104 883 1064 c 128,-1,38
 958 1024 958 1024 1004 950.5 c 128,-1,39
 1050 877 1050 877 1070 774 c 128,-1,40
 1090 671 1090 671 1090 546 c 0,0,1
904 546 m 0,41,42
 904 646 904 646 892 724 c 128,-1,43
 880 802 880 802 850.5 855.5 c 128,-1,44
 821 909 821 909 772.5 937 c 128,-1,45
 724 965 724 965 651 965 c 0,46,47
 592 965 592 965 540 946.5 c 128,-1,48
 488 928 488 928 449.5 879.5 c 128,-1,49
 411 831 411 831 388.5 745 c 128,-1,50
 366 659 366 659 366 524 c 0,51,52
 366 409 366 409 384.5 330.5 c 128,-1,53
 403 252 403 252 439 203.5 c 128,-1,54
 475 155 475 155 528 134 c 128,-1,55
 581 113 581 113 649 113 c 0,56,57
 722 113 722 113 771 141.5 c 128,-1,58
 820 170 820 170 849.5 225 c 128,-1,59
 879 280 879 280 891.5 361 c 128,-1,60
 904 442 904 442 904 546 c 0,41,42
EndSplineSet
Validated: 1
EndChar

StartChar: q
Encoding: 113 113 81
Width: 1229
GlyphClass: 2
Flags: W
LayerCount: 2
Fore
SplineSet
529 1098 m 0,0,1
 595 1098 595 1098 646 1087 c 128,-1,2
 697 1076 697 1076 736.5 1053 c 128,-1,3
 776 1030 776 1030 806.5 995.5 c 128,-1,4
 837 961 837 961 861 914 c 1,5,-1
 863 914 l 1,6,7
 863 939 863 939 864.5 967.5 c 128,-1,8
 866 996 866 996 867.5 1020.5 c 128,-1,9
 869 1045 869 1045 871.5 1062.5 c 128,-1,10
 874 1080 874 1080 875 1083 c 2,11,-1
 1050 1083 l 1,12,13
 1049 1074 1049 1074 1048 1054 c 128,-1,14
 1047 1034 1047 1034 1046 1000 c 128,-1,15
 1045 966 1045 966 1044.5 917 c 128,-1,16
 1044 868 1044 868 1044 801 c 2,17,-1
 1044 -425 l 1,18,-1
 863 -425 l 1,19,-1
 863 14 l 2,20,21
 863 40 863 40 863.5 69 c 128,-1,22
 864 98 864 98 865 124 c 0,23,24
 866 154 866 154 867 182 c 1,25,-1
 865 182 l 1,26,27
 840 131 840 131 808.5 92 c 128,-1,28
 777 53 777 53 736.5 26.5 c 128,-1,29
 696 0 696 0 645.5 -13 c 128,-1,30
 595 -26 595 -26 530 -26 c 0,31,32
 328 -26 328 -26 233 114.5 c 128,-1,33
 138 255 138 255 138 532 c 0,34,35
 138 813 138 813 235.5 955.5 c 128,-1,36
 333 1098 333 1098 529 1098 c 0,0,1
863 554 m 0,37,38
 863 673 863 673 843 752 c 128,-1,39
 823 831 823 831 786 878 c 128,-1,40
 749 925 749 925 696.5 945 c 128,-1,41
 644 965 644 965 579 965 c 0,42,43
 511 965 511 965 462.5 939.5 c 128,-1,44
 414 914 414 914 383.5 861.5 c 128,-1,45
 353 809 353 809 338.5 728.5 c 128,-1,46
 324 648 324 648 324 538 c 0,47,48
 324 432 324 432 338 352.5 c 128,-1,49
 352 273 352 273 382 220 c 128,-1,50
 412 167 412 167 460 140 c 128,-1,51
 508 113 508 113 577 113 c 0,52,53
 636 113 636 113 688 132.5 c 128,-1,54
 740 152 740 152 779 201.5 c 128,-1,55
 818 251 818 251 840.5 336.5 c 128,-1,56
 863 422 863 422 863 554 c 0,37,38
EndSplineSet
Validated: 1
EndChar

StartChar: r
Encoding: 114 114 82
Width: 1229
GlyphClass: 2
Flags: W
LayerCount: 2
Fore
SplineSet
1045 918 m 1,0,1
 998 926 998 926 946.5 931.5 c 128,-1,2
 895 937 895 937 833 937 c 0,3,4
 749 937 749 937 682 903 c 128,-1,5
 615 869 615 869 569 810.5 c 128,-1,6
 523 752 523 752 498.5 674 c 128,-1,7
 474 596 474 596 474 508 c 2,8,-1
 474 0 l 1,9,-1
 294 0 l 1,10,-1
 294 701 l 2,11,12
 294 757 294 757 288 815 c 128,-1,13
 282 873 282 873 274 924.5 c 128,-1,14
 266 976 266 976 257 1017 c 128,-1,15
 248 1058 248 1058 242 1082 c 1,16,-1
 413 1082 l 1,17,18
 420 1058 420 1058 427.5 1027 c 128,-1,19
 435 996 435 996 442 962.5 c 128,-1,20
 449 929 449 929 454 895 c 128,-1,21
 459 861 459 861 461 832 c 1,22,-1
 466 832 l 1,23,24
 494 894 494 894 525 944 c 128,-1,25
 556 994 556 994 598.5 1029 c 128,-1,26
 641 1064 641 1064 699 1083 c 128,-1,27
 757 1102 757 1102 839 1102 c 0,28,29
 895 1102 895 1102 949 1097 c 128,-1,30
 1003 1092 1003 1092 1045 1085 c 1,31,-1
 1045 918 l 1,0,1
EndSplineSet
Validated: 1
EndChar

StartChar: s
Encoding: 115 115 83
Width: 1229
GlyphClass: 2
Flags: W
LayerCount: 2
Fore
SplineSet
1060 309 m 0,0,1
 1060 233 1060 233 1030.5 172 c 128,-1,2
 1001 111 1001 111 945 68.5 c 128,-1,3
 889 26 889 26 807.5 3 c 128,-1,4
 726 -20 726 -20 621 -20 c 0,5,6
 527 -20 527 -20 451.5 -6.5 c 128,-1,7
 376 7 376 7 319 38 c 128,-1,8
 262 69 262 69 223.5 120.5 c 128,-1,9
 185 172 185 172 167 248 c 1,10,-1
 326 279 l 1,11,12
 338 224 338 224 364.5 191.5 c 128,-1,13
 391 159 391 159 428.5 142 c 128,-1,14
 466 125 466 125 515 119.5 c 128,-1,15
 564 114 564 114 621 114 c 0,16,17
 679 114 679 114 728.5 122.5 c 128,-1,18
 778 131 778 131 814 151.5 c 128,-1,19
 850 172 850 172 870.5 204.5 c 128,-1,20
 891 237 891 237 891 285 c 0,21,22
 891 335 891 335 865.5 365.5 c 128,-1,23
 840 396 840 396 796 417 c 128,-1,24
 752 438 752 438 691.5 453 c 128,-1,25
 631 468 631 468 560 487 c 0,26,27
 496 504 496 504 433 524 c 128,-1,28
 370 544 370 544 320.5 576.5 c 128,-1,29
 271 609 271 609 240.5 659 c 128,-1,30
 210 709 210 709 210 786 c 0,31,32
 210 933 210 933 316 1016 c 128,-1,33
 422 1099 422 1099 623 1099 c 0,34,35
 702 1099 702 1099 771 1084.5 c 128,-1,36
 840 1070 840 1070 894 1038.5 c 128,-1,37
 948 1007 948 1007 984.5 957.5 c 128,-1,38
 1021 908 1021 908 1035 839 c 1,39,-1
 873 819 l 1,40,41
 866 864 866 864 843 892 c 128,-1,42
 820 920 820 920 786.5 936.5 c 128,-1,43
 753 953 753 953 711 959 c 128,-1,44
 669 965 669 965 623 965 c 0,45,46
 378 965 378 965 378 814 c 0,47,48
 378 768 378 768 399.5 739.5 c 128,-1,49
 421 711 421 711 460 692 c 128,-1,50
 499 673 499 673 553 659.5 c 128,-1,51
 607 646 607 646 672 629 c 0,52,53
 737 613 737 613 805.5 592 c 128,-1,54
 874 571 874 571 930.5 536 c 128,-1,55
 987 501 987 501 1023.5 446.5 c 128,-1,56
 1060 392 1060 392 1060 309 c 0,0,1
EndSplineSet
Validated: 1
EndChar

StartChar: t
Encoding: 116 116 84
Width: 1229
GlyphClass: 2
Flags: W
LayerCount: 2
Fore
SplineSet
190 940 m 1,0,-1
 190 1082 l 1,1,-1
 360 1082 l 1,2,-1
 418 1364 l 1,3,-1
 538 1364 l 1,4,-1
 538 1082 l 1,5,-1
 970 1082 l 1,6,-1
 970 940 l 1,7,-1
 538 940 l 1,8,-1
 538 288 l 2,9,10
 538 209 538 209 580.5 171 c 128,-1,11
 623 133 623 133 720 133 c 0,12,13
 760 133 760 133 802.5 136.5 c 128,-1,14
 845 140 845 140 884.5 145 c 128,-1,15
 924 150 924 150 958.5 156 c 128,-1,16
 993 162 993 162 1017 167 c 1,17,-1
 1017 30 l 1,18,19
 995 24 995 24 960 16 c 128,-1,20
 925 8 925 8 881.5 1 c 128,-1,21
 838 -6 838 -6 787 -11 c 128,-1,22
 736 -16 736 -16 682 -16 c 0,23,24
 520 -16 520 -16 439 52.5 c 128,-1,25
 358 121 358 121 358 269 c 2,26,-1
 358 940 l 1,27,-1
 190 940 l 1,0,-1
EndSplineSet
Validated: 1
EndChar

StartChar: u
Encoding: 117 117 85
Width: 1229
GlyphClass: 2
Flags: W
LayerCount: 2
Fore
SplineSet
365 1082 m 1,0,-1
 365 396 l 2,1,2
 365 317 365 317 376.5 264 c 128,-1,3
 388 211 388 211 414.5 178.5 c 128,-1,4
 441 146 441 146 483.5 132.5 c 128,-1,5
 526 119 526 119 589 119 c 0,6,7
 653 119 653 119 704.5 141.5 c 128,-1,8
 756 164 756 164 792.5 206.5 c 128,-1,9
 829 249 829 249 848.5 311.5 c 128,-1,10
 868 374 868 374 868 455 c 2,11,-1
 868 1082 l 1,12,-1
 1049 1082 l 1,13,-1
 1049 231 l 2,14,15
 1049 197 1049 197 1049.5 159.5 c 128,-1,16
 1050 122 1050 122 1051 88.5 c 128,-1,17
 1052 55 1052 55 1053 31 c 128,-1,18
 1054 7 1054 7 1055 0 c 1,19,-1
 885 0 l 1,20,21
 884 5 884 5 883 27 c 128,-1,22
 882 49 882 49 880.5 77.5 c 128,-1,23
 879 106 879 106 878 135.5 c 128,-1,24
 877 165 877 165 877 185 c 1,25,-1
 874 185 l 1,26,27
 848 138 848 138 817 100 c 128,-1,28
 786 62 786 62 745 35.5 c 128,-1,29
 704 9 704 9 651 -5.5 c 128,-1,30
 598 -20 598 -20 528 -20 c 0,31,32
 438 -20 438 -20 373 2 c 128,-1,33
 308 24 308 24 266 70 c 128,-1,34
 224 116 224 116 204.5 188.5 c 128,-1,35
 185 261 185 261 185 361 c 2,36,-1
 185 1082 l 1,37,-1
 365 1082 l 1,0,-1
EndSplineSet
Validated: 1
EndChar

StartChar: v
Encoding: 118 118 86
Width: 1229
GlyphClass: 2
Flags: W
LayerCount: 2
Fore
SplineSet
715 0 m 1,0,-1
 502 0 l 1,1,-1
 69 1082 l 1,2,-1
 271 1082 l 1,3,-1
 539 378 l 2,4,5
 547 356 547 356 556 324.5 c 128,-1,6
 565 293 565 293 575 259 c 128,-1,7
 585 225 585 225 593.5 193.5 c 128,-1,8
 602 162 602 162 608 141 c 1,9,10
 614 162 614 162 623.5 193.5 c 128,-1,11
 633 225 633 225 643 258 c 128,-1,12
 653 291 653 291 663.5 322.5 c 128,-1,13
 674 354 674 354 682 376 c 2,14,-1
 958 1082 l 1,15,-1
 1159 1082 l 1,16,-1
 715 0 l 1,0,-1
EndSplineSet
Validated: 1
EndChar

StartChar: w
Encoding: 119 119 87
Width: 1229
GlyphClass: 2
Flags: W
LayerCount: 2
Fore
SplineSet
1018 0 m 1,0,-1
 814 0 l 1,1,-1
 671 471 l 2,2,3
 663 498 663 498 653 532.5 c 128,-1,4
 643 567 643 567 634 599 c 0,5,6
 623 636 623 636 614 673 c 1,7,8
 605 636 605 636 594 600 c 0,9,10
 585 569 585 569 575 533.5 c 128,-1,11
 565 498 565 498 555 467 c 2,12,-1
 407 0 l 1,13,-1
 204 0 l 1,14,-1
 21 1082 l 1,15,-1
 199 1082 l 1,16,-1
 292 475 l 2,17,18
 295 451 295 451 300.5 408.5 c 128,-1,19
 306 366 306 366 311.5 318 c 128,-1,20
 317 270 317 270 321 224 c 128,-1,21
 325 178 325 178 325 149 c 1,22,23
 336 194 336 194 347 235 c 0,24,25
 356 270 356 270 366 306.5 c 128,-1,26
 376 343 376 343 383 363 c 2,27,-1
 518 787 l 1,28,-1
 711 787 l 1,29,-1
 841 362 l 2,30,31
 847 342 847 342 856.5 306.5 c 128,-1,32
 866 271 866 271 875 236 c 0,33,34
 886 195 886 195 896 149 c 1,35,36
 896 179 896 179 900 224 c 128,-1,37
 904 269 904 269 910 316.5 c 128,-1,38
 916 364 916 364 922 407 c 128,-1,39
 928 450 928 450 931 475 c 2,40,-1
 1032 1082 l 1,41,-1
 1208 1082 l 1,42,-1
 1018 0 l 1,0,-1
EndSplineSet
Validated: 1
EndChar

StartChar: x
Encoding: 120 120 88
Width: 1229
GlyphClass: 2
Flags: W
LayerCount: 2
Fore
SplineSet
932 0 m 1,0,-1
 611 444 l 1,1,-1
 288 0 l 1,2,-1
 94 0 l 1,3,-1
 509 556 l 1,4,-1
 112 1082 l 1,5,-1
 311 1082 l 1,6,-1
 611 661 l 1,7,-1
 909 1082 l 1,8,-1
 1110 1082 l 1,9,-1
 713 558 l 1,10,-1
 1133 0 l 1,11,-1
 932 0 l 1,0,-1
EndSplineSet
Validated: 1
EndChar

StartChar: y
Encoding: 121 121 89
Width: 1229
GlyphClass: 2
Flags: W
LayerCount: 2
Fore
SplineSet
705 0 m 2,0,1
 668 -98 668 -98 628 -176.5 c 128,-1,2
 588 -255 588 -255 539 -310.5 c 128,-1,3
 490 -366 490 -366 430 -395.5 c 128,-1,4
 370 -425 370 -425 292 -425 c 0,5,6
 258 -425 258 -425 229 -423 c 128,-1,7
 200 -421 200 -421 168 -414 c 1,8,-1
 168 -279 l 1,9,10
 187 -282 187 -282 211 -283.5 c 128,-1,11
 235 -285 235 -285 252 -285 c 0,12,13
 331 -285 331 -285 400.5 -226 c 128,-1,14
 470 -167 470 -167 518 -38 c 2,15,-1
 536 11 l 1,16,-1
 66 1082 l 1,17,-1
 258 1082 l 1,18,-1
 522 440 l 2,19,20
 533 413 533 413 549 373.5 c 128,-1,21
 565 334 565 334 580 295.5 c 128,-1,22
 595 257 595 257 606.5 226 c 128,-1,23
 618 195 618 195 620 186 c 1,24,25
 623 197 623 197 634.5 227.5 c 128,-1,26
 646 258 646 258 661 295.5 c 128,-1,27
 676 333 676 333 691.5 372.5 c 128,-1,28
 707 412 707 412 719 441 c 2,29,-1
 971 1082 l 1,30,-1
 1161 1082 l 1,31,-1
 705 0 l 2,0,1
EndSplineSet
Validated: 1
EndChar

StartChar: z
Encoding: 122 122 90
Width: 1229
GlyphClass: 2
Flags: W
LayerCount: 2
Fore
SplineSet
147 0 m 1,0,-1
 147 137 l 1,1,-1
 828 943 l 1,2,-1
 187 943 l 1,3,-1
 187 1082 l 1,4,-1
 1031 1082 l 1,5,-1
 1031 945 l 1,6,-1
 349 139 l 1,7,-1
 1068 139 l 1,8,-1
 1068 0 l 1,9,-1
 147 0 l 1,0,-1
EndSplineSet
Validated: 1
EndChar

StartChar: braceleft
Encoding: 123 123 91
Width: 1229
GlyphClass: 2
Flags: W
LayerCount: 2
Fore
SplineSet
796 -425 m 2,0,1
 731 -425 731 -425 677 -403 c 128,-1,2
 623 -381 623 -381 584 -341 c 128,-1,3
 545 -301 545 -301 523.5 -245.5 c 128,-1,4
 502 -190 502 -190 502 -122 c 2,5,-1
 502 229 l 2,6,7
 502 292 502 292 478.5 335.5 c 128,-1,8
 455 379 455 379 416 406 c 128,-1,9
 377 433 377 433 327.5 446 c 128,-1,10
 278 459 278 459 227 461 c 1,11,-1
 227 598 l 1,12,13
 278 600 278 600 327.5 613 c 128,-1,14
 377 626 377 626 416 653.5 c 128,-1,15
 455 681 455 681 478.5 724 c 128,-1,16
 502 767 502 767 502 829 c 2,17,-1
 502 1181 l 2,18,19
 502 1251 502 1251 523.5 1307 c 128,-1,20
 545 1363 545 1363 584 1402.5 c 128,-1,21
 623 1442 623 1442 677 1463 c 128,-1,22
 731 1484 731 1484 796 1484 c 2,23,-1
 1061 1484 l 1,24,-1
 1061 1345 l 1,25,-1
 848 1345 l 2,26,27
 803 1345 803 1345 770.5 1334.5 c 128,-1,28
 738 1324 738 1324 717 1301 c 128,-1,29
 696 1278 696 1278 686.5 1241 c 128,-1,30
 677 1204 677 1204 677 1150 c 2,31,-1
 677 804 l 2,32,33
 677 747 677 747 656.5 701 c 128,-1,34
 636 655 636 655 603 620.5 c 128,-1,35
 570 586 570 586 528.5 564 c 128,-1,36
 487 542 487 542 446 532 c 1,37,-1
 446 530 l 1,38,39
 489 520 489 520 530.5 497.5 c 128,-1,40
 572 475 572 475 604.5 441 c 128,-1,41
 637 407 637 407 657 360.5 c 128,-1,42
 677 314 677 314 677 256 c 2,43,-1
 677 -91 l 2,44,45
 677 -197 677 -197 717 -241.5 c 128,-1,46
 757 -286 757 -286 848 -286 c 2,47,-1
 1061 -286 l 1,48,-1
 1061 -425 l 1,49,-1
 796 -425 l 2,0,1
EndSplineSet
Validated: 1
EndChar

StartChar: bar
Encoding: 124 124 92
Width: 1229
GlyphClass: 2
Flags: W
LayerCount: 2
Fore
SplineSet
531 -425 m 1,0,-1
 531 1484 l 1,1,-1
 697 1484 l 1,2,-1
 697 -425 l 1,3,-1
 531 -425 l 1,0,-1
EndSplineSet
Validated: 1
EndChar

StartChar: braceright
Encoding: 125 125 93
Width: 1229
GlyphClass: 2
Flags: W
LayerCount: 2
Fore
SplineSet
167 -425 m 1,0,-1
 167 -286 l 1,1,-1
 380 -286 l 2,2,3
 471 -286 471 -286 511.5 -241.5 c 128,-1,4
 552 -197 552 -197 552 -91 c 2,5,-1
 552 256 l 2,6,7
 552 314 552 314 572 360.5 c 128,-1,8
 592 407 592 407 624.5 441 c 128,-1,9
 657 475 657 475 698 497.5 c 128,-1,10
 739 520 739 520 782 530 c 1,11,-1
 782 532 l 1,12,13
 741 542 741 542 700 564 c 128,-1,14
 659 586 659 586 626 620.5 c 128,-1,15
 593 655 593 655 572.5 701 c 128,-1,16
 552 747 552 747 552 804 c 2,17,-1
 552 1150 l 2,18,19
 552 1204 552 1204 542 1241 c 128,-1,20
 532 1278 532 1278 511 1301 c 128,-1,21
 490 1324 490 1324 457.5 1334.5 c 128,-1,22
 425 1345 425 1345 380 1345 c 2,23,-1
 167 1345 l 1,24,-1
 167 1484 l 1,25,-1
 432 1484 l 2,26,27
 497 1484 497 1484 551 1463 c 128,-1,28
 605 1442 605 1442 644 1402.5 c 128,-1,29
 683 1363 683 1363 704.5 1307 c 128,-1,30
 726 1251 726 1251 726 1181 c 2,31,-1
 726 829 l 2,32,33
 726 767 726 767 749.5 724 c 128,-1,34
 773 681 773 681 812 653.5 c 128,-1,35
 851 626 851 626 900.5 613 c 128,-1,36
 950 600 950 600 1001 598 c 1,37,-1
 1001 461 l 1,38,39
 950 459 950 459 900.5 446 c 128,-1,40
 851 433 851 433 812 406 c 128,-1,41
 773 379 773 379 749.5 335.5 c 128,-1,42
 726 292 726 292 726 229 c 2,43,-1
 726 -122 l 2,44,45
 726 -190 726 -190 704.5 -245.5 c 128,-1,46
 683 -301 683 -301 644 -341 c 128,-1,47
 605 -381 605 -381 551 -403 c 128,-1,48
 497 -425 497 -425 432 -425 c 2,49,-1
 167 -425 l 1,0,-1
EndSplineSet
Validated: 1
EndChar

StartChar: asciitilde
Encoding: 126 126 94
Width: 1229
GlyphClass: 2
Flags: W
LayerCount: 2
Fore
SplineSet
1065 420 m 2,0,1
 1065 320 1065 320 1039.5 238.5 c 128,-1,2
 1014 157 1014 157 963.5 99.5 c 128,-1,3
 913 42 913 42 838 11 c 128,-1,4
 763 -20 763 -20 665 -20 c 0,5,6
 500 -20 500 -20 396 34 c 0,7,8
 299 85 299 85 254 276 c 1,9,-1
 439 276 l 1,10,11
 446 219 446 219 464 200 c 0,12,13
 496 165 496 165 538 153 c 0,14,15
 569 144 569 144 590 141 c 0,16,17
 627 135 627 135 666 135 c 0,18,19
 770 135 770 135 822.5 206.5 c 128,-1,20
 875 278 875 278 875 416 c 2,21,-1
 875 1193 l 1,22,-1
 673 1193 l 1,23,-1
 673 1349 l 1,24,-1
 1065 1349 l 1,25,-1
 1065 420 l 2,0,1
528 1347 m 1,26,-1
 528 1192 l 1,27,-1
 439 1192 l 1,28,-1
 439 454 l 1,29,-1
 254 454 l 1,30,-1
 254 1192 l 1,31,-1
 165 1192 l 1,32,-1
 165 1347 l 1,33,-1
 528 1347 l 1,26,-1
EndSplineSet
Validated: 1
EndChar

StartChar: endash
Encoding: 8211 8211 103
Width: 1229
GlyphClass: 2
Flags: W
LayerCount: 2
Fore
SplineSet
170 451 m 1,0,-1
 170 588 l 1,1,-1
 1058 588 l 1,2,-1
 1058 451 l 1,3,-1
 170 451 l 1,0,-1
EndSplineSet
Validated: 1
EndChar

StartChar: emdash
Encoding: 8212 8212 104
Width: 1229
GlyphClass: 2
Flags: W
LayerCount: 2
Fore
SplineSet
-10 451 m 1,0,-1
 -10 588 l 1,1,-1
 1238 588 l 1,2,-1
 1238 451 l 1,3,-1
 -10 451 l 1,0,-1
EndSplineSet
Validated: 1
EndChar

StartChar: afii00208
Encoding: 8213 8213 105
Width: 1229
GlyphClass: 2
Flags: W
LayerCount: 2
Fore
SplineSet
-10 451 m 1,0,-1
 -10 588 l 1,1,-1
 1238 588 l 1,2,-1
 1238 451 l 1,3,-1
 -10 451 l 1,0,-1
EndSplineSet
Validated: 1
EndChar

StartChar: underscoredbl
Encoding: 8215 8215 106
Width: 1229
GlyphClass: 2
Flags: W
LayerCount: 2
Fore
SplineSet
-5 -220 m 1,0,-1
 -5 -124 l 1,1,-1
 1233 -124 l 1,2,-1
 1233 -220 l 1,3,-1
 -5 -220 l 1,0,-1
-5 -425 m 1,4,-1
 -5 -329 l 1,5,-1
 1233 -329 l 1,6,-1
 1233 -425 l 1,7,-1
 -5 -425 l 1,4,-1
EndSplineSet
Validated: 1
EndChar

StartChar: quoteleft
Encoding: 8216 8216 107
Width: 1229
GlyphClass: 2
Flags: W
LayerCount: 2
Fore
SplineSet
831 1484 m 1,0,-1
 662 862 l 1,1,-1
 397 862 l 1,2,-1
 708 1484 l 1,3,-1
 831 1484 l 1,0,-1
EndSplineSet
Validated: 1
EndChar

StartChar: quoteright
Encoding: 8217 8217 108
Width: 1229
GlyphClass: 2
Flags: W
LayerCount: 2
Fore
SplineSet
399 862 m 1,0,-1
 568 1484 l 1,1,-1
 833 1484 l 1,2,-1
 522 862 l 1,3,-1
 399 862 l 1,0,-1
EndSplineSet
Validated: 1
EndChar

StartChar: quotesinglbase
Encoding: 8218 8218 109
Width: 1229
GlyphClass: 2
Flags: W
LayerCount: 2
Fore
SplineSet
349 -363 m 1,0,-1
 518 259 l 1,1,-1
 783 259 l 1,2,-1
 472 -363 l 1,3,-1
 349 -363 l 1,0,-1
EndSplineSet
Validated: 1
EndChar

StartChar: quotereversed
Encoding: 8219 8219 110
Width: 1229
GlyphClass: 2
Flags: W
LayerCount: 2
Fore
SplineSet
709 862 m 1,0,-1
 398 1484 l 1,1,-1
 663 1484 l 1,2,-1
 832 862 l 1,3,-1
 709 862 l 1,0,-1
EndSplineSet
Validated: 1
EndChar

StartChar: quotedblleft
Encoding: 8220 8220 111
Width: 1229
GlyphClass: 2
Flags: W
LayerCount: 2
Fore
SplineSet
611 1484 m 1,0,-1
 442 862 l 1,1,-1
 177 862 l 1,2,-1
 488 1484 l 1,3,-1
 611 1484 l 1,0,-1
1050 1484 m 1,4,-1
 881 862 l 1,5,-1
 616 862 l 1,6,-1
 927 1484 l 1,7,-1
 1050 1484 l 1,4,-1
EndSplineSet
Validated: 1
EndChar

StartChar: quotedblright
Encoding: 8221 8221 112
Width: 1229
GlyphClass: 2
Flags: W
LayerCount: 2
Fore
SplineSet
617 862 m 1,0,-1
 786 1484 l 1,1,-1
 1051 1484 l 1,2,-1
 740 862 l 1,3,-1
 617 862 l 1,0,-1
178 862 m 1,4,-1
 347 1484 l 1,5,-1
 612 1484 l 1,6,-1
 301 862 l 1,7,-1
 178 862 l 1,4,-1
EndSplineSet
Validated: 1
EndChar

StartChar: quotedblbase
Encoding: 8222 8222 113
Width: 1229
GlyphClass: 2
Flags: W
LayerCount: 2
Fore
SplineSet
617 -364 m 1,0,-1
 786 258 l 1,1,-1
 1051 258 l 1,2,-1
 740 -364 l 1,3,-1
 617 -364 l 1,0,-1
178 -364 m 1,4,-1
 347 258 l 1,5,-1
 612 258 l 1,6,-1
 301 -364 l 1,7,-1
 178 -364 l 1,4,-1
EndSplineSet
Validated: 1
EndChar

StartChar: dagger
Encoding: 8224 8224 114
Width: 1229
GlyphClass: 2
Flags: W
LayerCount: 2
Fore
SplineSet
685 989 m 1,0,-1
 671 -213 l 1,1,-1
 556 -213 l 1,2,-1
 542 989 l 1,3,-1
 182 972 l 1,4,-1
 182 1136 l 1,5,-1
 542 1117 l 1,6,-1
 516 1483 l 1,7,-1
 711 1483 l 1,8,-1
 685 1117 l 1,9,-1
 1046 1136 l 1,10,-1
 1046 972 l 1,11,-1
 685 989 l 1,0,-1
EndSplineSet
Validated: 1
EndChar

StartChar: daggerdbl
Encoding: 8225 8225 115
Width: 1229
GlyphClass: 2
Flags: W
LayerCount: 2
Fore
SplineSet
1046 298 m 1,0,-1
 1046 134 l 1,1,-1
 685 153 l 1,2,-1
 711 -213 l 1,3,-1
 516 -213 l 1,4,-1
 542 153 l 1,5,-1
 182 134 l 1,6,-1
 182 298 l 1,7,-1
 542 281 l 1,8,-1
 576 635 l 1,9,-1
 542 989 l 1,10,-1
 182 972 l 1,11,-1
 182 1136 l 1,12,-1
 542 1117 l 1,13,-1
 516 1483 l 1,14,-1
 711 1483 l 1,15,-1
 685 1117 l 1,16,-1
 1046 1136 l 1,17,-1
 1046 972 l 1,18,-1
 685 989 l 1,19,-1
 651 635 l 1,20,-1
 685 281 l 1,21,-1
 1046 298 l 1,0,-1
EndSplineSet
Validated: 1
EndChar

StartChar: bullet
Encoding: 8226 8226 116
Width: 1229
GlyphClass: 2
Flags: W
LayerCount: 2
Fore
SplineSet
891 682 m 0,0,1
 891 624 891 624 869 573 c 128,-1,2
 847 522 847 522 808.5 484 c 128,-1,3
 770 446 770 446 719 423.5 c 128,-1,4
 668 401 668 401 610 401 c 0,5,6
 553 401 553 401 503.5 423.5 c 128,-1,7
 454 446 454 446 416.5 484 c 128,-1,8
 379 522 379 522 357.5 573 c 128,-1,9
 336 624 336 624 336 682 c 0,10,11
 336 739 336 739 357.5 789 c 128,-1,12
 379 839 379 839 416.5 876 c 128,-1,13
 454 913 454 913 503.5 934.5 c 128,-1,14
 553 956 553 956 610 956 c 0,15,16
 668 956 668 956 719 934.5 c 128,-1,17
 770 913 770 913 808.5 876 c 128,-1,18
 847 839 847 839 869 789 c 128,-1,19
 891 739 891 739 891 682 c 0,0,1
EndSplineSet
Validated: 1
EndChar

StartChar: ellipsis
Encoding: 8230 8230 117
Width: 1229
GlyphClass: 2
Flags: W
LayerCount: 2
Fore
SplineSet
938 0 m 1,0,-1
 938 219 l 1,1,-1
 1112 219 l 1,2,-1
 1112 0 l 1,3,-1
 938 0 l 1,0,-1
529 0 m 1,4,-1
 529 219 l 1,5,-1
 701 219 l 1,6,-1
 701 0 l 1,7,-1
 529 0 l 1,4,-1
117 0 m 1,8,-1
 117 219 l 1,9,-1
 292 219 l 1,10,-1
 292 0 l 1,11,-1
 117 0 l 1,8,-1
EndSplineSet
Validated: 1
EndChar

StartChar: perthousand
Encoding: 8240 8240 118
Width: 1229
GlyphClass: 2
Flags: W
LayerCount: 2
Fore
SplineSet
147 395 m 1,0,-1
 2 395 l 1,1,-1
 585 1034 l 1,2,-1
 732 1034 l 1,3,-1
 147 395 l 1,0,-1
236 1411 m 0,4,5
 283 1411 283 1411 324.5 1397.5 c 128,-1,6
 366 1384 366 1384 397 1350 c 128,-1,7
 428 1316 428 1316 446 1259 c 128,-1,8
 464 1202 464 1202 464 1115 c 0,9,10
 464 1031 464 1031 446 973 c 128,-1,11
 428 915 428 915 396.5 880 c 128,-1,12
 365 845 365 845 322.5 829.5 c 128,-1,13
 280 814 280 814 232 814 c 0,14,15
 183 814 183 814 140.5 829.5 c 128,-1,16
 98 845 98 845 67 880 c 128,-1,17
 36 915 36 915 18 973 c 128,-1,18
 0 1031 0 1031 0 1115 c 0,19,20
 0 1202 0 1202 18 1259 c 128,-1,21
 36 1316 36 1316 67.5 1350 c 128,-1,22
 99 1384 99 1384 142 1397.5 c 128,-1,23
 185 1411 185 1411 236 1411 c 0,4,5
334 1115 m 0,24,25
 334 1170 334 1170 327.5 1206 c 128,-1,26
 321 1242 321 1242 308.5 1263.5 c 128,-1,27
 296 1285 296 1285 277.5 1294 c 128,-1,28
 259 1303 259 1303 235 1303 c 0,29,30
 209 1303 209 1303 189 1294 c 128,-1,31
 169 1285 169 1285 156 1263 c 128,-1,32
 143 1241 143 1241 136.5 1205 c 128,-1,33
 130 1169 130 1169 130 1115 c 0,34,35
 130 1062 130 1062 136.5 1026 c 128,-1,36
 143 990 143 990 156.5 968 c 128,-1,37
 170 946 170 946 189.5 936.5 c 128,-1,38
 209 927 209 927 234 927 c 0,39,40
 257 927 257 927 275 936.5 c 128,-1,41
 293 946 293 946 306.5 968 c 128,-1,42
 320 990 320 990 327 1026 c 128,-1,43
 334 1062 334 1062 334 1115 c 0,24,25
495 597 m 0,44,45
 542 597 542 597 583.5 583.5 c 128,-1,46
 625 570 625 570 656.5 536 c 128,-1,47
 688 502 688 502 706 445 c 128,-1,48
 724 388 724 388 724 301 c 0,49,50
 724 217 724 217 706 159 c 128,-1,51
 688 101 688 101 656.5 66 c 128,-1,52
 625 31 625 31 582.5 15.5 c 128,-1,53
 540 0 540 0 492 0 c 0,54,55
 443 0 443 0 400.5 15.5 c 128,-1,56
 358 31 358 31 326.5 66 c 128,-1,57
 295 101 295 101 277 159 c 128,-1,58
 259 217 259 217 259 301 c 0,59,60
 259 388 259 388 277 445 c 128,-1,61
 295 502 295 502 326.5 536 c 128,-1,62
 358 570 358 570 401.5 583.5 c 128,-1,63
 445 597 445 597 495 597 c 0,44,45
594 301 m 0,64,65
 594 356 594 356 587.5 392 c 128,-1,66
 581 428 581 428 568 449.5 c 128,-1,67
 555 471 555 471 536.5 480 c 128,-1,68
 518 489 518 489 494 489 c 0,69,70
 468 489 468 489 448.5 480 c 128,-1,71
 429 471 429 471 415.5 449 c 128,-1,72
 402 427 402 427 395.5 391 c 128,-1,73
 389 355 389 355 389 301 c 0,74,75
 389 248 389 248 396 212 c 128,-1,76
 403 176 403 176 416 154 c 128,-1,77
 429 132 429 132 448.5 122.5 c 128,-1,78
 468 113 468 113 493 113 c 0,79,80
 516 113 516 113 534.5 122.5 c 128,-1,81
 553 132 553 132 566.5 154 c 128,-1,82
 580 176 580 176 587 212 c 128,-1,83
 594 248 594 248 594 301 c 0,64,65
1000 597 m 0,84,85
 1047 597 1047 597 1088.5 583.5 c 128,-1,86
 1130 570 1130 570 1161 536 c 128,-1,87
 1192 502 1192 502 1210 445 c 128,-1,88
 1228 388 1228 388 1228 301 c 0,89,90
 1228 217 1228 217 1210 159 c 128,-1,91
 1192 101 1192 101 1160.5 66 c 128,-1,92
 1129 31 1129 31 1086.5 15.5 c 128,-1,93
 1044 0 1044 0 996 0 c 0,94,95
 947 0 947 0 905 15.5 c 128,-1,96
 863 31 863 31 831.5 66 c 128,-1,97
 800 101 800 101 782 159 c 128,-1,98
 764 217 764 217 764 301 c 0,99,100
 764 388 764 388 782 445 c 128,-1,101
 800 502 800 502 831.5 536 c 128,-1,102
 863 570 863 570 906.5 583.5 c 128,-1,103
 950 597 950 597 1000 597 c 0,84,85
1099 301 m 0,104,105
 1099 356 1099 356 1092.5 392 c 128,-1,106
 1086 428 1086 428 1073 449.5 c 128,-1,107
 1060 471 1060 471 1041.5 480 c 128,-1,108
 1023 489 1023 489 999 489 c 0,109,110
 973 489 973 489 953 480 c 128,-1,111
 933 471 933 471 920 449 c 128,-1,112
 907 427 907 427 900.5 391 c 128,-1,113
 894 355 894 355 894 301 c 0,114,115
 894 248 894 248 900.5 212 c 128,-1,116
 907 176 907 176 920.5 154 c 128,-1,117
 934 132 934 132 953.5 122.5 c 128,-1,118
 973 113 973 113 998 113 c 0,119,120
 1021 113 1021 113 1039.5 122.5 c 128,-1,121
 1058 132 1058 132 1071 154 c 128,-1,122
 1084 176 1084 176 1091.5 212 c 128,-1,123
 1099 248 1099 248 1099 301 c 0,104,105
EndSplineSet
Validated: 1
EndChar

StartChar: minute
Encoding: 8242 8242 119
Width: 1229
GlyphClass: 2
Flags: W
LayerCount: 2
Fore
SplineSet
684 845 m 1,0,-1
 543 845 l 1,1,-1
 502 1484 l 1,2,-1
 726 1484 l 1,3,-1
 684 845 l 1,0,-1
EndSplineSet
Validated: 1
EndChar

StartChar: second
Encoding: 8243 8243 120
Width: 1229
GlyphClass: 2
Flags: W
LayerCount: 2
Fore
SplineSet
908 845 m 1,0,-1
 766 845 l 1,1,-1
 726 1484 l 1,2,-1
 950 1484 l 1,3,-1
 908 845 l 1,0,-1
459 845 m 1,4,-1
 318 845 l 1,5,-1
 277 1484 l 1,6,-1
 501 1484 l 1,7,-1
 459 845 l 1,4,-1
EndSplineSet
Validated: 1
EndChar

StartChar: guilsinglleft
Encoding: 8249 8249 121
Width: 1229
GlyphClass: 2
Flags: W
LayerCount: 2
Fore
SplineSet
682 141 m 1,0,-1
 346 506 l 1,1,-1
 346 569 l 1,2,-1
 682 940 l 1,3,-1
 859 940 l 1,4,-1
 859 909 l 1,5,-1
 524 537 l 1,6,-1
 861 170 l 1,7,-1
 861 141 l 1,8,-1
 682 141 l 1,0,-1
EndSplineSet
Validated: 1
EndChar

StartChar: guilsinglright
Encoding: 8250 8250 122
Width: 1229
GlyphClass: 2
Flags: W
LayerCount: 2
Fore
SplineSet
544 141 m 1,0,-1
 366 141 l 1,1,-1
 366 170 l 1,2,-1
 704 537 l 1,3,-1
 368 909 l 1,4,-1
 368 940 l 1,5,-1
 544 940 l 1,6,-1
 881 569 l 1,7,-1
 881 506 l 1,8,-1
 544 141 l 1,0,-1
EndSplineSet
Validated: 1
EndChar

StartChar: exclamdbl
Encoding: 8252 8252 123
Width: 1229
GlyphClass: 2
Flags: W
LayerCount: 2
Fore
SplineSet
411 397 m 1,0,-1
 263 397 l 1,1,-1
 239 1348 l 1,2,-1
 435 1348 l 1,3,-1
 411 397 l 1,0,-1
237 0 m 1,4,-1
 237 201 l 1,5,-1
 431 201 l 1,6,-1
 431 0 l 1,7,-1
 237 0 l 1,4,-1
968 397 m 1,8,-1
 820 397 l 1,9,-1
 796 1348 l 1,10,-1
 992 1348 l 1,11,-1
 968 397 l 1,8,-1
794 0 m 1,12,-1
 794 201 l 1,13,-1
 988 201 l 1,14,-1
 988 0 l 1,15,-1
 794 0 l 1,12,-1
EndSplineSet
Validated: 1
EndChar

StartChar: uni2215
Encoding: 8725 8725 125
AltUni2: 002044.ffffffff.0
Width: 1229
GlyphClass: 2
Flags: W
LayerCount: 2
Fore
SplineSet
322 0 m 1,0,-1
 204 0 l 1,1,-1
 907 1349 l 1,2,-1
 1022 1349 l 1,3,-1
 322 0 l 1,0,-1
EndSplineSet
Validated: 1
EndChar

StartChar: uni207F
Encoding: 8319 8319 126
Width: 1229
GlyphClass: 2
Flags: W
LayerCount: 2
Fore
SplineSet
770 519 m 1,0,-1
 770 917 l 2,1,2
 770 963 770 963 763.5 993.5 c 128,-1,3
 757 1024 757 1024 742.5 1042.5 c 128,-1,4
 728 1061 728 1061 704.5 1069 c 128,-1,5
 681 1077 681 1077 646 1077 c 0,6,7
 574 1077 574 1077 531.5 1027 c 128,-1,8
 489 977 489 977 489 883 c 2,9,-1
 489 519 l 1,10,-1
 361 519 l 1,11,-1
 361 1030 l 2,12,13
 361 1050 361 1050 360.5 1073 c 128,-1,14
 360 1096 360 1096 359.5 1116 c 128,-1,15
 359 1136 359 1136 358 1150.5 c 128,-1,16
 357 1165 357 1165 357 1169 c 1,17,-1
 476 1169 l 2,18,19
 476 1166 476 1166 477 1152.5 c 128,-1,20
 478 1139 478 1139 479 1122 c 128,-1,21
 480 1105 480 1105 481 1087.5 c 128,-1,22
 482 1070 482 1070 482 1058 c 1,23,-1
 484 1058 l 1,24,25
 499 1086 499 1086 518 1109 c 128,-1,26
 537 1132 537 1132 561.5 1148 c 128,-1,27
 586 1164 586 1164 618 1172.5 c 128,-1,28
 650 1181 650 1181 692 1181 c 0,29,30
 802 1181 802 1181 850.5 1127 c 128,-1,31
 899 1073 899 1073 899 952 c 2,32,-1
 899 519 l 1,33,-1
 770 519 l 1,0,-1
EndSplineSet
Validated: 1
EndChar

StartChar: franc
Encoding: 8355 8355 127
Width: 1229
GlyphClass: 2
Flags: W
LayerCount: 2
Fore
SplineSet
400 1193 m 1,0,-1
 400 749 l 1,1,-1
 1076 749 l 1,2,-1
 1076 591 l 1,3,-1
 400 591 l 1,4,-1
 400 388 l 1,5,-1
 791 388 l 1,6,-1
 791 259 l 1,7,-1
 400 259 l 1,8,-1
 400 0 l 1,9,-1
 209 0 l 1,10,-1
 209 259 l 1,11,-1
 34 259 l 1,12,-1
 34 388 l 1,13,-1
 209 388 l 1,14,-1
 209 1349 l 1,15,-1
 1100 1349 l 1,16,-1
 1100 1193 l 1,17,-1
 400 1193 l 1,0,-1
EndSplineSet
Validated: 1
EndChar

StartChar: lira
Encoding: 8356 8356 128
Width: 1229
GlyphClass: 2
Flags: W
LayerCount: 2
Fore
SplineSet
1126 311 m 1,0,1
 1117 231 1117 231 1088.5 172.5 c 128,-1,2
 1060 114 1060 114 1015.5 75.5 c 128,-1,3
 971 37 971 37 913.5 18.5 c 128,-1,4
 856 0 856 0 789 0 c 2,5,-1
 91 0 l 1,6,-1
 91 154 l 1,7,8
 135 177 135 177 168 201.5 c 128,-1,9
 201 226 201 226 223 258.5 c 128,-1,10
 245 291 245 291 255.5 334.5 c 128,-1,11
 266 378 266 378 266 438 c 2,12,-1
 266 463 l 1,13,-1
 80 463 l 1,14,-1
 80 605 l 1,15,-1
 266 605 l 1,16,-1
 266 757 l 1,17,-1
 80 757 l 1,18,-1
 80 898 l 1,19,-1
 266 898 l 1,20,-1
 266 974 l 2,21,22
 266 1066 266 1066 290 1139.5 c 128,-1,23
 314 1213 314 1213 363.5 1264 c 128,-1,24
 413 1315 413 1315 489 1342.5 c 128,-1,25
 565 1370 565 1370 668 1370 c 0,26,27
 738 1370 738 1370 799.5 1355.5 c 128,-1,28
 861 1341 861 1341 910.5 1312 c 128,-1,29
 960 1283 960 1283 995.5 1240 c 128,-1,30
 1031 1197 1031 1197 1049 1140 c 1,31,-1
 875 1083 l 1,32,33
 865 1115 865 1115 845.5 1140.5 c 128,-1,34
 826 1166 826 1166 799.5 1184 c 128,-1,35
 773 1202 773 1202 740.5 1212 c 128,-1,36
 708 1222 708 1222 672 1222 c 0,37,38
 558 1222 558 1222 502 1164.5 c 128,-1,39
 446 1107 446 1107 446 982 c 2,40,-1
 446 898 l 1,41,-1
 854 898 l 1,42,-1
 854 757 l 1,43,-1
 446 757 l 1,44,-1
 446 605 l 1,45,-1
 854 605 l 1,46,-1
 854 463 l 1,47,-1
 446 463 l 1,48,-1
 446 456 l 2,49,50
 446 344 446 344 402 269.5 c 128,-1,51
 358 195 358 195 277 153 c 1,52,-1
 760 153 l 2,53,54
 798 153 798 153 831.5 162.5 c 128,-1,55
 865 172 865 172 891.5 193 c 128,-1,56
 918 214 918 214 936.5 247.5 c 128,-1,57
 955 281 955 281 963 329 c 1,58,-1
 1126 311 l 1,0,1
EndSplineSet
Validated: 1
EndChar

StartChar: peseta
Encoding: 8359 8359 129
Width: 1229
GlyphClass: 2
Flags: W
LayerCount: 2
Fore
SplineSet
582 1015 m 0,0,1
 582 939 582 939 562 873 c 128,-1,2
 542 807 542 807 502.5 758.5 c 128,-1,3
 463 710 463 710 404 682 c 128,-1,4
 345 654 345 654 267 654 c 2,5,-1
 206 654 l 1,6,-1
 206 0 l 1,7,-1
 45 0 l 1,8,-1
 45 1349 l 1,9,-1
 255 1349 l 2,10,11
 416 1349 416 1349 499 1266 c 128,-1,12
 582 1183 582 1183 582 1015 c 0,0,1
1204 173 m 0,13,14
 1204 90 1204 90 1156 40 c 128,-1,15
 1108 -10 1108 -10 1018 -10 c 0,16,17
 944 -10 944 -10 895 31.5 c 128,-1,18
 846 73 846 73 835 153 c 1,19,-1
 943 170 l 1,20,21
 948 143 948 143 956 126 c 128,-1,22
 964 109 964 109 974 99 c 128,-1,23
 984 89 984 89 996 85.5 c 128,-1,24
 1008 82 1008 82 1020 82 c 0,25,26
 1046 82 1046 82 1063 100.5 c 128,-1,27
 1080 119 1080 119 1080 159 c 0,28,29
 1080 195 1080 195 1057.5 226 c 128,-1,30
 1035 257 1035 257 987 290 c 0,31,32
 962 307 962 307 937 327.5 c 128,-1,33
 912 348 912 348 891.5 373.5 c 128,-1,34
 871 399 871 399 858 430 c 128,-1,35
 845 461 845 461 845 499 c 0,36,37
 845 542 845 542 858.5 573 c 128,-1,38
 872 604 872 604 896.5 624.5 c 128,-1,39
 921 645 921 645 954 654.5 c 128,-1,40
 987 664 987 664 1026 664 c 0,41,42
 1096 664 1096 664 1140 621 c 128,-1,43
 1184 578 1184 578 1192 506 c 1,44,-1
 1083 494 l 1,45,46
 1078 538 1078 538 1060.5 555.5 c 128,-1,47
 1043 573 1043 573 1024 573 c 0,48,49
 995 573 995 573 982 554 c 128,-1,50
 969 535 969 535 969 500 c 0,51,52
 969 463 969 463 995.5 434.5 c 128,-1,53
 1022 406 1022 406 1073 371 c 0,54,55
 1095 356 1095 356 1118 337 c 128,-1,56
 1141 318 1141 318 1160 293.5 c 128,-1,57
 1179 269 1179 269 1191.5 239 c 128,-1,58
 1204 209 1204 209 1204 173 c 0,13,14
420 1012 m 0,59,60
 420 1067 420 1067 409 1104 c 128,-1,61
 398 1141 398 1141 377.5 1163.5 c 128,-1,62
 357 1186 357 1186 327.5 1196 c 128,-1,63
 298 1206 298 1206 262 1206 c 2,64,-1
 206 1206 l 1,65,-1
 206 795 l 1,66,-1
 270 795 l 2,67,68
 345 795 345 795 382.5 852 c 128,-1,69
 420 909 420 909 420 1012 c 0,59,60
445 553 m 1,70,-1
 445 650 l 1,71,-1
 535 650 l 1,72,-1
 594 792 l 1,73,-1
 665 792 l 1,74,-1
 665 650 l 1,75,-1
 814 650 l 1,76,-1
 814 553 l 1,77,-1
 665 553 l 1,78,-1
 665 169 l 2,79,80
 665 91 665 91 733 91 c 0,81,82
 778 91 778 91 805 98 c 1,83,-1
 805 1 l 1,84,85
 782 -4 782 -4 757 -7 c 128,-1,86
 732 -10 732 -10 702 -10 c 0,87,88
 618 -10 618 -10 576 31 c 128,-1,89
 534 72 534 72 534 151 c 2,90,-1
 534 553 l 1,91,-1
 445 553 l 1,70,-1
EndSplineSet
Validated: 1
EndChar

StartChar: Euro
Encoding: 8364 8364 130
Width: 1229
GlyphClass: 2
Flags: W
LayerCount: 2
Fore
SplineSet
873 463 m 1,0,-1
 414 463 l 1,1,2
 422 384 422 384 443 323 c 128,-1,3
 464 262 464 262 502.5 220 c 128,-1,4
 541 178 541 178 599 156.5 c 128,-1,5
 657 135 657 135 737 135 c 0,6,7
 789 135 789 135 832.5 144 c 128,-1,8
 876 153 876 153 913.5 168 c 128,-1,9
 951 183 951 183 984 201.5 c 128,-1,10
 1017 220 1017 220 1047 239 c 1,11,-1
 1123 104 l 1,12,13
 1081 76 1081 76 1037 53 c 128,-1,14
 993 30 993 30 945 14 c 128,-1,15
 897 -2 897 -2 843 -11 c 128,-1,16
 789 -20 789 -20 727 -20 c 0,17,18
 607 -20 607 -20 518 14 c 128,-1,19
 429 48 429 48 367.5 110.5 c 128,-1,20
 306 173 306 173 270.5 262 c 128,-1,21
 235 351 235 351 222 460 c 1,22,-1
 91 460 l 1,23,-1
 91 604 l 1,24,-1
 210 604 l 1,25,26
 208 627 208 627 207 644 c 128,-1,27
 206 661 206 661 206 679 c 0,28,29
 206 705 206 705 207 722.5 c 128,-1,30
 208 740 208 740 210 758 c 1,31,-1
 91 758 l 1,32,-1
 91 900 l 1,33,-1
 220 900 l 1,34,35
 249 1134 249 1134 374.5 1252 c 128,-1,36
 500 1370 500 1370 729 1370 c 0,37,38
 785 1370 785 1370 835 1363 c 128,-1,39
 885 1356 885 1356 931.5 1342 c 128,-1,40
 978 1328 978 1328 1021.5 1306 c 128,-1,41
 1065 1284 1065 1284 1108 1254 c 1,42,-1
 1026 1114 l 1,43,44
 968 1156 968 1156 899 1185 c 128,-1,45
 830 1214 830 1214 744 1214 c 0,46,47
 671 1214 671 1214 614 1200 c 128,-1,48
 557 1186 557 1186 515.5 1150.5 c 128,-1,49
 474 1115 474 1115 448.5 1054 c 128,-1,50
 423 993 423 993 412 898 c 1,51,-1
 873 898 l 1,52,-1
 873 757 l 1,53,-1
 398 757 l 1,54,55
 397 743 397 743 396.5 721.5 c 128,-1,56
 396 700 396 700 396 679 c 0,57,58
 396 637 396 637 399 605 c 1,59,-1
 873 605 l 1,60,-1
 873 463 l 1,0,-1
EndSplineSet
Validated: 1
EndChar

StartChar: afii61248
Encoding: 8453 8453 131
Width: 1229
GlyphClass: 2
Flags: W
LayerCount: 2
Fore
SplineSet
1229 404 m 0,0,1
 1229 290 1229 290 1207.5 211 c 128,-1,2
 1186 132 1186 132 1149 82.5 c 128,-1,3
 1112 33 1112 33 1063 10.5 c 128,-1,4
 1014 -12 1014 -12 959 -12 c 256,5,6
 904 -12 904 -12 856 10 c 128,-1,7
 808 32 808 32 772 81.5 c 128,-1,8
 736 131 736 131 715 210 c 128,-1,9
 694 289 694 289 694 404 c 0,10,11
 694 526 694 526 714.5 606.5 c 128,-1,12
 735 687 735 687 771.5 736 c 128,-1,13
 808 785 808 785 857 805 c 128,-1,14
 906 825 906 825 963 825 c 0,15,16
 1017 825 1017 825 1065.5 805 c 128,-1,17
 1114 785 1114 785 1150.5 736 c 128,-1,18
 1187 687 1187 687 1208 606.5 c 128,-1,19
 1229 526 1229 526 1229 404 c 0,0,1
1081 404 m 0,20,21
 1081 492 1081 492 1073.5 551.5 c 128,-1,22
 1066 611 1066 611 1051 647 c 128,-1,23
 1036 683 1036 683 1014 698.5 c 128,-1,24
 992 714 992 714 963 714 c 0,25,26
 932 714 932 714 909 698 c 128,-1,27
 886 682 886 682 871 646 c 128,-1,28
 856 610 856 610 848.5 550.5 c 128,-1,29
 841 491 841 491 841 404 c 0,30,31
 841 321 841 321 849 262.5 c 128,-1,32
 857 204 857 204 872 167.5 c 128,-1,33
 887 131 887 131 909.5 114.5 c 128,-1,34
 932 98 932 98 961 98 c 0,35,36
 989 98 989 98 1011.5 114.5 c 128,-1,37
 1034 131 1034 131 1049.5 167.5 c 128,-1,38
 1065 204 1065 204 1073 262.5 c 128,-1,39
 1081 321 1081 321 1081 404 c 0,20,21
146 945 m 0,40,41
 146 882 146 882 153.5 825.5 c 128,-1,42
 161 769 161 769 177 727 c 128,-1,43
 193 685 193 685 216.5 660.5 c 128,-1,44
 240 636 240 636 272 636 c 0,45,46
 310 636 310 636 337.5 677 c 128,-1,47
 365 718 365 718 376 805 c 1,48,-1
 517 796 l 1,49,50
 511 742 511 742 492.5 692.5 c 128,-1,51
 474 643 474 643 444 605 c 128,-1,52
 414 567 414 567 372 544.5 c 128,-1,53
 330 522 330 522 276 522 c 0,54,55
 204 522 204 522 152 553 c 128,-1,56
 100 584 100 584 66.5 640 c 128,-1,57
 33 696 33 696 16.5 773 c 128,-1,58
 0 850 0 850 0 942 c 0,59,60
 0 1058 0 1058 21.5 1137.5 c 128,-1,61
 43 1217 43 1217 80 1266.5 c 128,-1,62
 117 1316 117 1316 167.5 1338 c 128,-1,63
 218 1360 218 1360 275 1360 c 0,64,65
 328 1360 328 1360 368 1340 c 128,-1,66
 408 1320 408 1320 437 1285 c 128,-1,67
 466 1250 466 1250 484.5 1203 c 128,-1,68
 503 1156 503 1156 512 1101 c 1,69,-1
 369 1090 l 1,70,71
 359 1162 359 1162 337.5 1204.5 c 128,-1,72
 316 1247 316 1247 271 1247 c 0,73,74
 208 1247 208 1247 177 1169 c 128,-1,75
 146 1091 146 1091 146 945 c 0,40,41
322 0 m 1,76,-1
 204 0 l 1,77,-1
 907 1349 l 1,78,-1
 1022 1349 l 1,79,-1
 322 0 l 1,76,-1
EndSplineSet
Validated: 1
EndChar

StartChar: afii61289
Encoding: 8467 8467 132
Width: 1229
GlyphClass: 2
Flags: W
LayerCount: 2
Fore
SplineSet
710 78 m 0,0,1
 761 78 761 78 800 130 c 128,-1,2
 839 182 839 182 856 291 c 1,3,-1
 925 291 l 1,4,5
 905 137 905 137 840 58.5 c 128,-1,6
 775 -20 775 -20 666 -20 c 0,7,8
 611 -20 611 -20 565.5 0 c 128,-1,9
 520 20 520 20 487 59.5 c 128,-1,10
 454 99 454 99 436 158 c 128,-1,11
 418 217 418 217 418 294 c 2,12,-1
 418 469 l 1,13,14
 386 452 386 452 353 438 c 128,-1,15
 320 424 320 424 286 411 c 1,16,-1
 286 484 l 1,17,18
 321 498 321 498 354 512.5 c 128,-1,19
 387 527 387 527 418 543 c 1,20,-1
 418 1130 l 2,21,22
 418 1189 418 1189 430.5 1243.5 c 128,-1,23
 443 1298 443 1298 472.5 1339 c 128,-1,24
 502 1380 502 1380 551 1404.5 c 128,-1,25
 600 1429 600 1429 672 1429 c 0,26,27
 724 1429 724 1429 766.5 1408 c 128,-1,28
 809 1387 809 1387 839.5 1348 c 128,-1,29
 870 1309 870 1309 886.5 1253.5 c 128,-1,30
 903 1198 903 1198 903 1129 c 0,31,32
 903 1030 903 1030 878 940 c 128,-1,33
 853 850 853 850 809.5 774 c 128,-1,34
 766 698 766 698 708 639 c 128,-1,35
 650 580 650 580 584 542 c 1,36,-1
 584 298 l 2,37,38
 584 241 584 241 595 199.5 c 128,-1,39
 606 158 606 158 624 131 c 128,-1,40
 642 104 642 104 664.5 91 c 128,-1,41
 687 78 687 78 710 78 c 0,0,1
812 1122 m 0,42,43
 812 1174 812 1174 802 1216.5 c 128,-1,44
 792 1259 792 1259 775 1289.5 c 128,-1,45
 758 1320 758 1320 734.5 1336.5 c 128,-1,46
 711 1353 711 1353 685 1353 c 0,47,48
 654 1353 654 1353 634 1335 c 128,-1,49
 614 1317 614 1317 603 1286.5 c 128,-1,50
 592 1256 592 1256 588 1215.5 c 128,-1,51
 584 1175 584 1175 584 1129 c 2,52,-1
 584 622 l 1,53,54
 633 655 633 655 675 707 c 128,-1,55
 717 759 717 759 747.5 824.5 c 128,-1,56
 778 890 778 890 795 965.5 c 128,-1,57
 812 1041 812 1041 812 1122 c 0,42,43
EndSplineSet
Validated: 1
EndChar

StartChar: afii61352
Encoding: 8470 8470 133
Width: 1229
GlyphClass: 2
Flags: W
LayerCount: 2
Fore
SplineSet
426 0 m 1,0,-1
 156 1050 l 1,1,2
 157 1007 157 1007 159 962 c 0,3,4
 161 924 161 924 161.5 879.5 c 128,-1,5
 162 835 162 835 162 796 c 2,6,-1
 162 0 l 1,7,-1
 22 0 l 1,8,-1
 22 1349 l 1,9,-1
 214 1349 l 1,10,-1
 492 291 l 1,11,12
 490 331 490 331 488 377 c 0,13,14
 486 416 486 416 485 465 c 128,-1,15
 484 514 484 514 484 565 c 2,16,-1
 484 1349 l 1,17,-1
 625 1349 l 1,18,-1
 625 0 l 1,19,-1
 426 0 l 1,0,-1
1209 690 m 0,20,21
 1209 596 1209 596 1196.5 523 c 128,-1,22
 1184 450 1184 450 1155 400.5 c 128,-1,23
 1126 351 1126 351 1078 325 c 128,-1,24
 1030 299 1030 299 958 299 c 0,25,26
 830 299 830 299 771.5 400 c 128,-1,27
 713 501 713 501 713 690 c 0,28,29
 713 782 713 782 727.5 854 c 128,-1,30
 742 926 742 926 772 976.5 c 128,-1,31
 802 1027 802 1027 849 1053.5 c 128,-1,32
 896 1080 896 1080 962 1080 c 0,33,34
 1032 1080 1032 1080 1079.5 1053.5 c 128,-1,35
 1127 1027 1127 1027 1155.5 977 c 128,-1,36
 1184 927 1184 927 1196.5 854.5 c 128,-1,37
 1209 782 1209 782 1209 690 c 0,20,21
1060 690 m 0,38,39
 1060 771 1060 771 1054.5 824.5 c 128,-1,40
 1049 878 1049 878 1037.5 910 c 128,-1,41
 1026 942 1026 942 1008 955 c 128,-1,42
 990 968 990 968 965 968 c 0,43,44
 938 968 938 968 919 954.5 c 128,-1,45
 900 941 900 941 888 909 c 128,-1,46
 876 877 876 877 870.5 823.5 c 128,-1,47
 865 770 865 770 865 690 c 0,48,49
 865 608 865 608 870.5 554 c 128,-1,50
 876 500 876 500 887 468.5 c 128,-1,51
 898 437 898 437 915.5 424 c 128,-1,52
 933 411 933 411 957 411 c 0,53,54
 985 411 985 411 1004.5 424 c 128,-1,55
 1024 437 1024 437 1036.5 468.5 c 128,-1,56
 1049 500 1049 500 1054.5 554 c 128,-1,57
 1060 608 1060 608 1060 690 c 0,38,39
744 0 m 1,58,-1
 744 136 l 1,59,-1
 1179 136 l 1,60,-1
 1179 0 l 1,61,-1
 744 0 l 1,58,-1
EndSplineSet
Validated: 1
EndChar

StartChar: trademark
Encoding: 8482 8482 134
Width: 1229
GlyphClass: 2
Flags: W
LayerCount: 2
Fore
SplineSet
1119 842 m 1,0,-1
 1119 1194 l 1,1,-1
 1119 1354 l 2,2,3
 1117 1345 1117 1345 1113 1336 c 0,4,5
 1110 1328 1110 1328 1107.5 1321 c 128,-1,6
 1105 1314 1105 1314 1103 1309 c 2,7,-1
 913 842 l 1,8,-1
 824 842 l 1,9,-1
 689 1184 l 2,10,11
 687 1188 687 1188 677 1215 c 128,-1,12
 667 1242 667 1242 655 1273 c 0,13,14
 641 1309 641 1309 624 1354 c 1,15,-1
 624 1311 l 1,16,-1
 624 842 l 1,17,-1
 519 842 l 1,18,-1
 519 1483 l 1,19,-1
 675 1483 l 1,20,-1
 859 1018 l 2,21,22
 861 1015 861 1015 863 1009.5 c 128,-1,23
 865 1004 865 1004 867 998 c 0,24,25
 870 991 870 991 872 983 c 1,26,27
 889 1025 889 1025 902 1059 c 0,28,29
 908 1074 908 1074 913 1088 c 128,-1,30
 918 1102 918 1102 922.5 1113 c 128,-1,31
 927 1124 927 1124 930 1132 c 128,-1,32
 933 1140 933 1140 933 1141 c 2,33,-1
 1072 1483 l 1,34,-1
 1224 1483 l 1,35,-1
 1224 842 l 1,36,-1
 1119 842 l 1,0,-1
286 1391 m 1,37,-1
 286 842 l 1,38,-1
 175 842 l 1,39,-1
 175 1391 l 1,40,-1
 4 1391 l 1,41,-1
 4 1483 l 1,42,-1
 461 1483 l 1,43,-1
 461 1391 l 1,44,-1
 286 1391 l 1,37,-1
EndSplineSet
Validated: 1
EndChar

StartChar: uni2126
Encoding: 8486 8486 135
Width: 1229
GlyphClass: 2
Flags: W
LayerCount: 2
Fore
SplineSet
615 1370 m 256,0,1
 739 1370 739 1370 837.5 1327.5 c 128,-1,2
 936 1285 936 1285 1005 1206.5 c 128,-1,3
 1074 1128 1074 1128 1110.5 1017.5 c 128,-1,4
 1147 907 1147 907 1147 771 c 0,5,6
 1147 676 1147 676 1124.5 586.5 c 128,-1,7
 1102 497 1102 497 1059.5 417 c 128,-1,8
 1017 337 1017 337 954 268 c 128,-1,9
 891 199 891 199 810 145 c 1,10,11
 842 148 842 148 872 151 c 0,12,13
 898 153 898 153 925 154.5 c 128,-1,14
 952 156 952 156 971 156 c 2,15,-1
 1171 156 l 1,16,-1
 1171 0 l 1,17,-1
 688 0 l 1,18,-1
 688 224 l 1,19,20
 763 279 763 279 814 341.5 c 128,-1,21
 865 404 865 404 895.5 472 c 128,-1,22
 926 540 926 540 939 612 c 128,-1,23
 952 684 952 684 952 758 c 0,24,25
 952 863 952 863 932.5 947 c 128,-1,26
 913 1031 913 1031 871.5 1090.5 c 128,-1,27
 830 1150 830 1150 766.5 1182 c 128,-1,28
 703 1214 703 1214 616 1214 c 0,29,30
 528 1214 528 1214 464 1182 c 128,-1,31
 400 1150 400 1150 359 1090.5 c 128,-1,32
 318 1031 318 1031 298 947 c 128,-1,33
 278 863 278 863 278 758 c 0,34,35
 278 684 278 684 291 612 c 128,-1,36
 304 540 304 540 334.5 472 c 128,-1,37
 365 404 365 404 416 341.5 c 128,-1,38
 467 279 467 279 542 224 c 1,39,-1
 542 0 l 1,40,-1
 59 0 l 1,41,-1
 59 156 l 1,42,-1
 259 156 l 2,43,44
 278 156 278 156 305 154.5 c 128,-1,45
 332 153 332 153 358 151 c 0,46,47
 388 148 388 148 420 145 c 1,48,49
 339 199 339 199 276 268 c 128,-1,50
 213 337 213 337 170.5 417 c 128,-1,51
 128 497 128 497 105.5 586.5 c 128,-1,52
 83 676 83 676 83 771 c 0,53,54
 83 907 83 907 119.5 1017.5 c 128,-1,55
 156 1128 156 1128 225 1206.5 c 128,-1,56
 294 1285 294 1285 392.5 1327.5 c 128,-1,57
 491 1370 491 1370 615 1370 c 256,0,1
EndSplineSet
Validated: 1
EndChar

StartChar: estimated
Encoding: 8494 8494 136
Width: 1229
GlyphClass: 2
Flags: W
LayerCount: 2
Fore
SplineSet
626 -34 m 0,0,1
 496 -34 496 -34 397 12.5 c 128,-1,2
 298 59 298 59 231 137.5 c 128,-1,3
 164 216 164 216 129.5 318 c 128,-1,4
 95 420 95 420 95 531 c 0,5,6
 95 629 95 629 117 709 c 128,-1,7
 139 789 139 789 177 851.5 c 128,-1,8
 215 914 215 914 266 960.5 c 128,-1,9
 317 1007 317 1007 376 1037 c 128,-1,10
 435 1067 435 1067 499 1081.5 c 128,-1,11
 563 1096 563 1096 626 1096 c 0,12,13
 739 1096 739 1096 835.5 1056.5 c 128,-1,14
 932 1017 932 1017 1003 944 c 128,-1,15
 1074 871 1074 871 1114.5 766.5 c 128,-1,16
 1155 662 1155 662 1155 531 c 1,17,-1
 328 531 l 1,18,-1
 328 175 l 1,19,20
 350 151 350 151 382 128.5 c 128,-1,21
 414 106 414 106 453 88.5 c 128,-1,22
 492 71 492 71 536 61 c 128,-1,23
 580 51 580 51 626 51 c 0,24,25
 701 51 701 51 759 67 c 128,-1,26
 817 83 817 83 863.5 113 c 128,-1,27
 910 143 910 143 948.5 186.5 c 128,-1,28
 987 230 987 230 1021 285 c 1,29,-1
 1093 243 l 1,30,31
 1057 186 1057 186 1015.5 136 c 128,-1,32
 974 86 974 86 919 48 c 128,-1,33
 864 10 864 10 792.5 -12 c 128,-1,34
 721 -34 721 -34 626 -34 c 0,0,1
924 616 m 1,35,-1
 924 893 l 1,36,37
 905 913 905 913 875.5 934 c 128,-1,38
 846 955 846 955 808 972 c 128,-1,39
 770 989 770 989 723.5 1000 c 128,-1,40
 677 1011 677 1011 624 1011 c 0,41,42
 573 1011 573 1011 529.5 1001.5 c 128,-1,43
 486 992 486 992 449 976 c 128,-1,44
 412 960 412 960 382 939 c 128,-1,45
 352 918 352 918 328 894 c 1,46,-1
 328 616 l 1,47,-1
 924 616 l 1,35,-1
EndSplineSet
Validated: 1
EndChar

StartChar: arrowleft
Encoding: 8592 8592 141
Width: 1229
GlyphClass: 2
Flags: W
LayerCount: 2
Fore
SplineSet
231 297 m 1,0,1
 260 263 260 263 289.5 214 c 128,-1,2
 319 165 319 165 350 100 c 1,3,-1
 278 100 l 1,4,5
 220 168 220 168 155 224 c 128,-1,6
 90 280 90 280 8 322 c 1,7,-1
 8 358 l 1,8,9
 90 400 90 400 155 456 c 128,-1,10
 220 512 220 512 278 580 c 1,11,-1
 350 580 l 1,12,13
 319 515 319 515 289.5 466 c 128,-1,14
 260 417 260 417 231 383 c 1,15,-1
 1220 383 l 1,16,-1
 1220 297 l 1,17,-1
 231 297 l 1,0,1
EndSplineSet
Validated: 1
EndChar

StartChar: arrowup
Encoding: 8593 8593 142
Width: 1229
GlyphClass: 2
Flags: W
LayerCount: 2
Fore
SplineSet
571 928 m 1,0,1
 537 899 537 899 488 869.5 c 128,-1,2
 439 840 439 840 374 809 c 1,3,-1
 374 881 l 1,4,5
 442 939 442 939 498 1004 c 128,-1,6
 554 1069 554 1069 596 1151 c 1,7,-1
 632 1151 l 1,8,9
 674 1069 674 1069 730 1004 c 128,-1,10
 786 939 786 939 854 881 c 1,11,-1
 854 809 l 1,12,13
 789 840 789 840 740 869.5 c 128,-1,14
 691 899 691 899 657 928 c 1,15,-1
 657 -61 l 1,16,-1
 571 -61 l 1,17,-1
 571 928 l 1,0,1
EndSplineSet
Validated: 1
EndChar

StartChar: arrowright
Encoding: 8594 8594 143
Width: 1229
GlyphClass: 2
Flags: W
LayerCount: 2
Fore
SplineSet
997 383 m 1,0,1
 968 417 968 417 938.5 466 c 128,-1,2
 909 515 909 515 878 580 c 1,3,-1
 950 580 l 1,4,5
 1008 512 1008 512 1073 456 c 128,-1,6
 1138 400 1138 400 1220 358 c 1,7,-1
 1220 322 l 1,8,9
 1138 280 1138 280 1073 224 c 128,-1,10
 1008 168 1008 168 950 100 c 1,11,-1
 878 100 l 1,12,13
 909 165 909 165 938.5 214 c 128,-1,14
 968 263 968 263 997 297 c 1,15,-1
 8 297 l 1,16,-1
 8 383 l 1,17,-1
 997 383 l 1,0,1
EndSplineSet
Validated: 1
EndChar

StartChar: arrowdown
Encoding: 8595 8595 144
Width: 1229
GlyphClass: 2
Flags: W
LayerCount: 2
Fore
SplineSet
657 162 m 1,0,1
 691 191 691 191 740 220.5 c 128,-1,2
 789 250 789 250 854 281 c 1,3,-1
 854 209 l 1,4,5
 786 151 786 151 730 86 c 128,-1,6
 674 21 674 21 632 -61 c 1,7,-1
 596 -61 l 1,8,9
 554 21 554 21 498 86 c 128,-1,10
 442 151 442 151 374 209 c 1,11,-1
 374 281 l 1,12,13
 439 250 439 250 488 220.5 c 128,-1,14
 537 191 537 191 571 162 c 1,15,-1
 571 1151 l 1,16,-1
 657 1151 l 1,17,-1
 657 162 l 1,0,1
EndSplineSet
Validated: 1
EndChar

StartChar: arrowboth
Encoding: 8596 8596 145
Width: 1229
GlyphClass: 2
Flags: W
LayerCount: 2
Fore
SplineSet
231 297 m 1,0,1
 260 263 260 263 289.5 214 c 128,-1,2
 319 165 319 165 350 100 c 1,3,-1
 278 100 l 1,4,5
 220 168 220 168 155 224 c 128,-1,6
 90 280 90 280 8 322 c 1,7,-1
 8 358 l 1,8,9
 90 400 90 400 155 456 c 128,-1,10
 220 512 220 512 278 580 c 1,11,-1
 350 580 l 1,12,13
 319 515 319 515 289.5 466 c 128,-1,14
 260 417 260 417 231 383 c 1,15,-1
 997 383 l 1,16,17
 968 417 968 417 938.5 466 c 128,-1,18
 909 515 909 515 878 580 c 1,19,-1
 950 580 l 1,20,21
 1008 512 1008 512 1073 456 c 128,-1,22
 1138 400 1138 400 1220 358 c 1,23,-1
 1220 322 l 1,24,25
 1138 280 1138 280 1073 224 c 128,-1,26
 1008 168 1008 168 950 100 c 1,27,-1
 878 100 l 1,28,29
 909 165 909 165 938.5 214 c 128,-1,30
 968 263 968 263 997 297 c 1,31,-1
 231 297 l 1,0,1
EndSplineSet
Validated: 1
EndChar

StartChar: arrowupdn
Encoding: 8597 8597 146
Width: 1229
GlyphClass: 2
Flags: W
LayerCount: 2
Fore
SplineSet
571 928 m 1,0,1
 537 899 537 899 488 869.5 c 128,-1,2
 439 840 439 840 374 809 c 1,3,-1
 374 881 l 1,4,5
 442 939 442 939 498 1004 c 128,-1,6
 554 1069 554 1069 596 1151 c 1,7,-1
 632 1151 l 1,8,9
 674 1069 674 1069 730 1004 c 128,-1,10
 786 939 786 939 854 881 c 1,11,-1
 854 809 l 1,12,13
 789 840 789 840 740 869.5 c 128,-1,14
 691 899 691 899 657 928 c 1,15,-1
 657 162 l 1,16,17
 691 191 691 191 740 220.5 c 128,-1,18
 789 250 789 250 854 281 c 1,19,-1
 854 209 l 1,20,21
 786 151 786 151 730 86 c 128,-1,22
 674 21 674 21 632 -61 c 1,23,-1
 596 -61 l 1,24,25
 554 21 554 21 498 86 c 128,-1,26
 442 151 442 151 374 209 c 1,27,-1
 374 281 l 1,28,29
 439 250 439 250 488 220.5 c 128,-1,30
 537 191 537 191 571 162 c 1,31,-1
 571 928 l 1,0,1
EndSplineSet
Validated: 1
EndChar

StartChar: arrowupdnbse
Encoding: 8616 8616 147
Width: 1229
GlyphClass: 2
Flags: W
LayerCount: 2
Fore
SplineSet
374 -104 m 1,0,-1
 854 -104 l 1,1,-1
 854 -184 l 1,2,-1
 374 -184 l 1,3,-1
 374 -104 l 1,0,-1
571 928 m 1,4,5
 537 899 537 899 488 869.5 c 128,-1,6
 439 840 439 840 374 809 c 1,7,-1
 374 881 l 1,8,9
 442 939 442 939 498 1004 c 128,-1,10
 554 1069 554 1069 596 1151 c 1,11,-1
 632 1151 l 1,12,13
 674 1069 674 1069 730 1004 c 128,-1,14
 786 939 786 939 854 881 c 1,15,-1
 854 809 l 1,16,17
 789 840 789 840 740 869.5 c 128,-1,18
 691 899 691 899 657 928 c 1,19,-1
 657 162 l 1,20,21
 691 191 691 191 740 220.5 c 128,-1,22
 789 250 789 250 854 281 c 1,23,-1
 854 209 l 1,24,25
 786 151 786 151 730 86 c 128,-1,26
 674 21 674 21 632 -61 c 1,27,-1
 596 -61 l 1,28,29
 554 21 554 21 498 86 c 128,-1,30
 442 151 442 151 374 209 c 1,31,-1
 374 281 l 1,32,33
 439 250 439 250 488 220.5 c 128,-1,34
 537 191 537 191 571 162 c 1,35,-1
 571 928 l 1,4,5
EndSplineSet
Validated: 1
EndChar

StartChar: partialdiff
Encoding: 8706 8706 148
Width: 1229
GlyphClass: 2
Flags: W
LayerCount: 2
Fore
SplineSet
1123 938 m 0,0,1
 1123 892 1123 892 1119 840.5 c 128,-1,2
 1115 789 1115 789 1108 735.5 c 128,-1,3
 1101 682 1101 682 1090.5 629 c 128,-1,4
 1080 576 1080 576 1067 528 c 0,5,6
 1033 400 1033 400 978 297 c 128,-1,7
 923 194 923 194 849.5 122 c 128,-1,8
 776 50 776 50 684 11.5 c 128,-1,9
 592 -27 592 -27 482 -27 c 0,10,11
 377 -27 377 -27 305 4.5 c 128,-1,12
 233 36 233 36 188.5 89.5 c 128,-1,13
 144 143 144 143 124.5 212 c 128,-1,14
 105 281 105 281 105 356 c 0,15,16
 105 416 105 416 118 487.5 c 128,-1,17
 131 559 131 559 158 631 c 128,-1,18
 185 703 185 703 227.5 770 c 128,-1,19
 270 837 270 837 330 889 c 128,-1,20
 390 941 390 941 467 972.5 c 128,-1,21
 544 1004 544 1004 641 1004 c 0,22,23
 741 1004 741 1004 818 954.5 c 128,-1,24
 895 905 895 905 932 821 c 1,25,-1
 936 821 l 1,26,27
 938 846 938 846 939.5 875 c 128,-1,28
 941 904 941 904 941 938 c 0,29,30
 941 1134 941 1134 868 1238.5 c 128,-1,31
 795 1343 795 1343 650 1343 c 0,32,33
 619 1343 619 1343 585 1337.5 c 128,-1,34
 551 1332 551 1332 518.5 1322.5 c 128,-1,35
 486 1313 486 1313 455.5 1299 c 128,-1,36
 425 1285 425 1285 400 1268 c 1,37,-1
 439 1415 l 1,38,39
 485 1438 485 1438 548.5 1457.5 c 128,-1,40
 612 1477 612 1477 685 1477 c 0,41,42
 808 1477 808 1477 892 1433 c 128,-1,43
 976 1389 976 1389 1027.5 1314.5 c 128,-1,44
 1079 1240 1079 1240 1101 1142.5 c 128,-1,45
 1123 1045 1123 1045 1123 938 c 0,0,1
906 680 m 1,46,47
 896 722 896 722 874 759 c 128,-1,48
 852 796 852 796 820.5 823.5 c 128,-1,49
 789 851 789 851 750 867 c 128,-1,50
 711 883 711 883 666 883 c 0,51,52
 601 883 601 883 548 857.5 c 128,-1,53
 495 832 495 832 454 790 c 128,-1,54
 413 748 413 748 383 693 c 128,-1,55
 353 638 353 638 333.5 580 c 128,-1,56
 314 522 314 522 304.5 464 c 128,-1,57
 295 406 295 406 295 358 c 0,58,59
 295 305 295 305 308 259.5 c 128,-1,60
 321 214 321 214 347 180.5 c 128,-1,61
 373 147 373 147 412.5 128 c 128,-1,62
 452 109 452 109 506 109 c 0,63,64
 587 109 587 109 653.5 158.5 c 128,-1,65
 720 208 720 208 771 288.5 c 128,-1,66
 822 369 822 369 856.5 471.5 c 128,-1,67
 891 574 891 574 906 680 c 1,46,47
EndSplineSet
Validated: 1
EndChar

StartChar: uni2206
Encoding: 8710 8710 149
Width: 1229
GlyphClass: 2
Flags: W
LayerCount: 2
Fore
SplineSet
12 0 m 1,0,-1
 12 145 l 1,1,-1
 489 1409 l 1,2,-1
 733 1409 l 1,3,-1
 1216 147 l 1,4,-1
 1216 0 l 1,5,-1
 12 0 l 1,0,-1
710 997 m 2,6,7
 693 1043 693 1043 676 1090.5 c 128,-1,8
 659 1138 659 1138 645.5 1177 c 128,-1,9
 632 1216 632 1216 623 1243 c 128,-1,10
 614 1270 614 1270 612 1274 c 1,11,12
 611 1270 611 1270 601.5 1243 c 128,-1,13
 592 1216 592 1216 578 1177 c 128,-1,14
 564 1138 564 1138 547 1090.5 c 128,-1,15
 530 1043 530 1043 514 997 c 2,16,-1
 204 156 l 1,17,-1
 1024 156 l 1,18,-1
 710 997 l 2,6,7
EndSplineSet
Validated: 1
EndChar

StartChar: product
Encoding: 8719 8719 150
Width: 1229
GlyphClass: 2
Flags: W
LayerCount: 2
Fore
SplineSet
938 -455 m 1,0,-1
 938 1187 l 1,1,-1
 296 1187 l 1,2,-1
 296 -455 l 1,3,-1
 105 -455 l 1,4,-1
 105 1349 l 1,5,-1
 1122 1349 l 1,6,-1
 1122 -455 l 1,7,-1
 938 -455 l 1,0,-1
EndSplineSet
Validated: 1
EndChar

StartChar: summation
Encoding: 8721 8721 151
Width: 1229
GlyphClass: 2
Flags: W
LayerCount: 2
Fore
SplineSet
27 -455 m 1,0,-1
 27 -346 l 1,1,-1
 662 456 l 1,2,-1
 43 1243 l 1,3,-1
 43 1349 l 1,4,-1
 1133 1349 l 1,5,-1
 1133 1197 l 1,6,-1
 287 1197 l 1,7,-1
 871 458 l 1,8,-1
 271 -303 l 1,9,-1
 1201 -303 l 1,10,-1
 1201 -455 l 1,11,-1
 27 -455 l 1,0,-1
EndSplineSet
Validated: 1
EndChar

StartChar: minus
Encoding: 8722 8722 152
Width: 1229
GlyphClass: 2
Flags: W
LayerCount: 2
Fore
SplineSet
117 608 m 1,0,-1
 117 754 l 1,1,-1
 1112 754 l 1,2,-1
 1112 608 l 1,3,-1
 117 608 l 1,0,-1
EndSplineSet
Validated: 1
EndChar

StartChar: uni2219
Encoding: 8729 8729 153
Width: 1229
GlyphClass: 2
Flags: W
LayerCount: 2
Fore
SplineSet
496 420 m 1,0,-1
 496 719 l 1,1,-1
 731 719 l 1,2,-1
 731 420 l 1,3,-1
 496 420 l 1,0,-1
EndSplineSet
Validated: 1
EndChar

StartChar: radical
Encoding: 8730 8730 154
Width: 1229
GlyphClass: 2
Flags: W
LayerCount: 2
Fore
SplineSet
649 -14 m 1,0,-1
 543 -14 l 1,1,-1
 260 778 l 1,2,-1
 78 778 l 1,3,-1
 78 895 l 1,4,-1
 348 895 l 1,5,-1
 590 205 l 1,6,-1
 1020 1620 l 1,7,-1
 1149 1620 l 1,8,-1
 649 -14 l 1,0,-1
EndSplineSet
Validated: 1
EndChar

StartChar: infinity
Encoding: 8734 8734 155
Width: 1229
GlyphClass: 2
Flags: W
LayerCount: 2
Fore
SplineSet
1195 590 m 0,0,1
 1195 512 1195 512 1175 441.5 c 128,-1,2
 1155 371 1155 371 1118 318 c 128,-1,3
 1081 265 1081 265 1029 234 c 128,-1,4
 977 203 977 203 913 203 c 0,5,6
 825 203 825 203 748.5 269.5 c 128,-1,7
 672 336 672 336 609 485 c 1,8,9
 581 422 581 422 546.5 371 c 128,-1,10
 512 320 512 320 474 284 c 128,-1,11
 436 248 436 248 395.5 228.5 c 128,-1,12
 355 209 355 209 313 209 c 0,13,14
 251 209 251 209 198.5 236.5 c 128,-1,15
 146 264 146 264 108.5 314 c 128,-1,16
 71 364 71 364 50 436 c 128,-1,17
 29 508 29 508 29 596 c 0,18,19
 29 677 29 677 49 748 c 128,-1,20
 69 819 69 819 106.5 871 c 128,-1,21
 144 923 144 923 196.5 953 c 128,-1,22
 249 983 249 983 313 983 c 0,23,24
 398 983 398 983 474.5 915.5 c 128,-1,25
 551 848 551 848 611 700 c 1,26,27
 640 762 640 762 673 813 c 128,-1,28
 706 864 706 864 744.5 900.5 c 128,-1,29
 783 937 783 937 825.5 957 c 128,-1,30
 868 977 868 977 915 977 c 0,31,32
 978 977 978 977 1029.5 949.5 c 128,-1,33
 1081 922 1081 922 1117.5 871.5 c 128,-1,34
 1154 821 1154 821 1174.5 749.5 c 128,-1,35
 1195 678 1195 678 1195 590 c 0,0,1
889 846 m 0,36,37
 828 846 828 846 776.5 783 c 128,-1,38
 725 720 725 720 677 590 c 1,39,40
 722 462 722 462 773 398 c 128,-1,41
 824 334 824 334 890 334 c 0,42,43
 928 334 928 334 958.5 354 c 128,-1,44
 989 374 989 374 1011 409 c 128,-1,45
 1033 444 1033 444 1044.5 491 c 128,-1,46
 1056 538 1056 538 1056 592 c 256,47,48
 1056 646 1056 646 1043.5 692 c 128,-1,49
 1031 738 1031 738 1009 772.5 c 128,-1,50
 987 807 987 807 956.5 826.5 c 128,-1,51
 926 846 926 846 889 846 c 0,36,37
546 596 m 1,52,53
 502 724 502 724 450.5 788 c 128,-1,54
 399 852 399 852 332 852 c 0,55,56
 295 852 295 852 265 832 c 128,-1,57
 235 812 235 812 213.5 777 c 128,-1,58
 192 742 192 742 180.5 695 c 128,-1,59
 169 648 169 648 169 594 c 0,60,61
 169 543 169 543 179.5 496.5 c 128,-1,62
 190 450 190 450 211 415.5 c 128,-1,63
 232 381 232 381 263 360.5 c 128,-1,64
 294 340 294 340 334 340 c 0,65,66
 394 340 394 340 446 403 c 128,-1,67
 498 466 498 466 546 596 c 1,52,53
EndSplineSet
Validated: 1
EndChar

StartChar: orthogonal
Encoding: 8735 8735 156
Width: 1229
GlyphClass: 2
Flags: W
LayerCount: 2
Fore
SplineSet
52 1223 m 1,0,-1
 146 1223 l 1,1,-1
 146 94 l 1,2,-1
 1176 94 l 1,3,-1
 1176 0 l 1,4,-1
 52 0 l 1,5,-1
 52 1223 l 1,0,-1
EndSplineSet
Validated: 1
EndChar

StartChar: intersection
Encoding: 8745 8745 157
Width: 1229
GlyphClass: 2
Flags: W
LayerCount: 2
Fore
SplineSet
156 -2 m 1,0,-1
 156 510 l 2,1,2
 156 626 156 626 190 722 c 128,-1,3
 224 818 224 818 285 887 c 128,-1,4
 346 956 346 956 429.5 994 c 128,-1,5
 513 1032 513 1032 611 1032 c 0,6,7
 710 1032 710 1032 794.5 994 c 128,-1,8
 879 956 879 956 940.5 887 c 128,-1,9
 1002 818 1002 818 1037 722 c 128,-1,10
 1072 626 1072 626 1072 510 c 2,11,-1
 1072 -2 l 1,12,-1
 969 -2 l 1,13,-1
 969 512 l 2,14,15
 969 610 969 610 942.5 687.5 c 128,-1,16
 916 765 916 765 868.5 819 c 128,-1,17
 821 873 821 873 756 901.5 c 128,-1,18
 691 930 691 930 613 930 c 256,19,20
 535 930 535 930 470 902 c 128,-1,21
 405 874 405 874 358 820 c 128,-1,22
 311 766 311 766 285 688 c 128,-1,23
 259 610 259 610 259 510 c 2,24,-1
 259 -2 l 1,25,-1
 156 -2 l 1,0,-1
EndSplineSet
Validated: 1
EndChar

StartChar: integral
Encoding: 8747 8747 158
Width: 1229
GlyphClass: 2
Flags: W
LayerCount: 2
Fore
SplineSet
878 1368 m 0,0,1
 827 1368 827 1368 794 1348 c 128,-1,2
 761 1328 761 1328 741.5 1295.5 c 128,-1,3
 722 1263 722 1263 714 1221 c 128,-1,4
 706 1179 706 1179 706 1135 c 2,5,-1
 706 -100 l 2,6,7
 706 -194 706 -194 681 -261 c 128,-1,8
 656 -328 656 -328 611.5 -371 c 128,-1,9
 567 -414 567 -414 505 -434.5 c 128,-1,10
 443 -455 443 -455 369 -455 c 0,11,12
 333 -455 333 -455 295.5 -449.5 c 128,-1,13
 258 -444 258 -444 235 -436 c 1,14,-1
 235 -289 l 1,15,16
 255 -297 255 -297 286 -305 c 128,-1,17
 317 -313 317 -313 352 -313 c 0,18,19
 403 -313 403 -313 435.5 -294.5 c 128,-1,20
 468 -276 468 -276 487.5 -244 c 128,-1,21
 507 -212 507 -212 514.5 -170 c 128,-1,22
 522 -128 522 -128 522 -80 c 2,23,-1
 522 1153 l 2,24,25
 522 1247 522 1247 547 1314 c 128,-1,26
 572 1381 572 1381 617 1424 c 128,-1,27
 662 1467 662 1467 724.5 1487 c 128,-1,28
 787 1507 787 1507 862 1507 c 0,29,30
 896 1507 896 1507 933.5 1502.5 c 128,-1,31
 971 1498 971 1498 993 1489 c 1,32,-1
 993 1341 l 1,33,34
 975 1351 975 1351 944.5 1359.5 c 128,-1,35
 914 1368 914 1368 878 1368 c 0,0,1
EndSplineSet
Validated: 1
EndChar

StartChar: approxequal
Encoding: 8776 8776 159
Width: 1229
GlyphClass: 2
Flags: W
LayerCount: 2
Fore
SplineSet
860 758 m 0,0,1
 791 758 791 758 718.5 779.5 c 128,-1,2
 646 801 646 801 573 827 c 0,3,4
 508 849 508 849 454.5 860.5 c 128,-1,5
 401 872 401 872 356 872 c 0,6,7
 318 872 318 872 285.5 866 c 128,-1,8
 253 860 253 860 223 849 c 128,-1,9
 193 838 193 838 165 821.5 c 128,-1,10
 137 805 137 805 108 784 c 1,11,-1
 108 928 l 1,12,13
 158 965 158 965 224 988.5 c 128,-1,14
 290 1012 290 1012 371 1012 c 0,15,16
 448 1012 448 1012 521.5 990 c 128,-1,17
 595 968 595 968 665 943 c 0,18,19
 669 941 669 941 672.5 940.5 c 128,-1,20
 676 940 676 940 680 938 c 0,21,22
 701 931 701 931 726 923 c 128,-1,23
 751 915 751 915 776.5 908 c 128,-1,24
 802 901 802 901 827.5 897 c 128,-1,25
 853 893 853 893 876 893 c 0,26,27
 945 893 945 893 1006.5 918.5 c 128,-1,28
 1068 944 1068 944 1120 987 c 1,29,-1
 1120 838 l 1,30,31
 1089 816 1089 816 1059 800.5 c 128,-1,32
 1029 785 1029 785 998.5 775.5 c 128,-1,33
 968 766 968 766 934 762 c 128,-1,34
 900 758 900 758 860 758 c 0,0,1
876 473 m 0,35,36
 945 473 945 473 1006.5 498 c 128,-1,37
 1068 523 1068 523 1120 565 c 1,38,-1
 1120 418 l 1,39,40
 1089 395 1089 395 1059 379 c 128,-1,41
 1029 363 1029 363 998.5 353.5 c 128,-1,42
 968 344 968 344 934 340 c 128,-1,43
 900 336 900 336 860 336 c 0,44,45
 791 336 791 336 718.5 358 c 128,-1,46
 646 380 646 380 573 406 c 0,47,48
 508 429 508 429 454.5 441 c 128,-1,49
 401 453 401 453 356 453 c 0,50,51
 318 453 318 453 285.5 447 c 128,-1,52
 253 441 253 441 223 429.5 c 128,-1,53
 193 418 193 418 165 402 c 128,-1,54
 137 386 137 386 108 365 c 1,55,-1
 108 506 l 1,56,57
 158 544 158 544 224 567 c 128,-1,58
 290 590 290 590 371 590 c 0,59,60
 412 590 412 590 451.5 583.5 c 128,-1,61
 491 577 491 577 529.5 567 c 128,-1,62
 568 557 568 557 605.5 544 c 128,-1,63
 643 531 643 531 680 518 c 0,64,65
 701 511 701 511 726 503 c 128,-1,66
 751 495 751 495 776.5 488 c 128,-1,67
 802 481 802 481 827.5 477 c 128,-1,68
 853 473 853 473 876 473 c 0,35,36
EndSplineSet
Validated: 1
EndChar

StartChar: notequal
Encoding: 8800 8800 160
Width: 1229
GlyphClass: 2
Flags: W
LayerCount: 2
Fore
SplineSet
499 344 m 1,0,-1
 347 55 l 1,1,-1
 202 55 l 1,2,-1
 353 344 l 1,3,-1
 116 344 l 1,4,-1
 116 492 l 1,5,-1
 427 492 l 1,6,-1
 617 856 l 1,7,-1
 116 856 l 1,8,-1
 116 1004 l 1,9,-1
 689 1004 l 1,10,-1
 843 1296 l 1,11,-1
 986 1296 l 1,12,-1
 834 1004 l 1,13,-1
 1111 1004 l 1,14,-1
 1111 856 l 1,15,-1
 761 856 l 1,16,-1
 570 492 l 1,17,-1
 1111 492 l 1,18,-1
 1111 344 l 1,19,-1
 499 344 l 1,0,-1
EndSplineSet
Validated: 1
EndChar

StartChar: equivalence
Encoding: 8801 8801 161
Width: 1229
GlyphClass: 2
Flags: W
LayerCount: 2
Fore
SplineSet
116 956 m 1,0,-1
 116 1104 l 1,1,-1
 1111 1104 l 1,2,-1
 1111 956 l 1,3,-1
 116 956 l 1,0,-1
116 244 m 1,4,-1
 116 392 l 1,5,-1
 1111 392 l 1,6,-1
 1111 244 l 1,7,-1
 116 244 l 1,4,-1
116 600 m 1,8,-1
 116 748 l 1,9,-1
 1111 748 l 1,10,-1
 1111 600 l 1,11,-1
 116 600 l 1,8,-1
EndSplineSet
Validated: 1
EndChar

StartChar: lessequal
Encoding: 8804 8804 162
Width: 1229
GlyphClass: 2
Flags: W
LayerCount: 2
Fore
SplineSet
117 631 m 1,0,-1
 117 836 l 1,1,-1
 1112 1231 l 1,2,-1
 1112 1077 l 1,3,-1
 254 733 l 1,4,-1
 1112 389 l 1,5,-1
 1112 236 l 1,6,-1
 117 631 l 1,0,-1
115 0 m 1,7,-1
 115 145 l 1,8,-1
 1110 145 l 1,9,-1
 1110 0 l 1,10,-1
 115 0 l 1,7,-1
EndSplineSet
Validated: 1
EndChar

StartChar: greaterequal
Encoding: 8805 8805 163
Width: 1229
GlyphClass: 2
Flags: W
LayerCount: 2
Fore
SplineSet
116 236 m 1,0,-1
 116 389 l 1,1,-1
 974 733 l 1,2,-1
 116 1077 l 1,3,-1
 116 1231 l 1,4,-1
 1111 836 l 1,5,-1
 1111 631 l 1,6,-1
 116 236 l 1,0,-1
116 0 m 1,7,-1
 116 145 l 1,8,-1
 1111 145 l 1,9,-1
 1111 0 l 1,10,-1
 116 0 l 1,7,-1
EndSplineSet
Validated: 1
EndChar

StartChar: house
Encoding: 8962 8962 164
Width: 1229
GlyphClass: 2
Flags: W
LayerCount: 2
Fore
SplineSet
138 0 m 1,0,-1
 138 635 l 1,1,-1
 614 1083 l 1,2,-1
 1090 635 l 1,3,-1
 1090 0 l 1,4,-1
 138 0 l 1,0,-1
221 85 m 1,5,-1
 1007 85 l 1,6,-1
 1007 597 l 1,7,-1
 614 967 l 1,8,-1
 221 597 l 1,9,-1
 221 85 l 1,5,-1
EndSplineSet
Validated: 1
EndChar

StartChar: revlogicalnot
Encoding: 8976 8976 165
Width: 1229
GlyphClass: 2
Flags: W
LayerCount: 2
Fore
SplineSet
262 608 m 1,0,-1
 262 180 l 1,1,-1
 115 180 l 1,2,-1
 116 754 l 1,3,-1
 1111 754 l 1,4,-1
 1111 608 l 1,5,-1
 262 608 l 1,0,-1
EndSplineSet
Validated: 1
EndChar

StartChar: integraltp
Encoding: 8992 8992 166
Width: 1229
GlyphClass: 2
Flags: W
LayerCount: 2
Fore
SplineSet
687 -615 m 1,0,-1
 542 -615 l 1,1,-1
 542 1207 l 2,2,3
 542 1312 542 1312 560.5 1403 c 128,-1,4
 579 1494 579 1494 617 1561 c 128,-1,5
 655 1628 655 1628 714 1666.5 c 128,-1,6
 773 1705 773 1705 855 1705 c 0,7,8
 887 1705 887 1705 918 1696 c 128,-1,9
 949 1687 949 1687 973 1670.5 c 128,-1,10
 997 1654 997 1654 1011.5 1630 c 128,-1,11
 1026 1606 1026 1606 1026 1576 c 0,12,13
 1026 1537 1026 1537 1001 1512.5 c 128,-1,14
 976 1488 976 1488 941 1488 c 0,15,16
 902 1488 902 1488 880.5 1506 c 128,-1,17
 859 1524 859 1524 844.5 1545.5 c 128,-1,18
 830 1567 830 1567 816.5 1585 c 128,-1,19
 803 1603 803 1603 781 1603 c 0,20,21
 756 1603 756 1603 738.5 1586.5 c 128,-1,22
 721 1570 721 1570 709.5 1532.5 c 128,-1,23
 698 1495 698 1495 692.5 1434.5 c 128,-1,24
 687 1374 687 1374 687 1285 c 2,25,-1
 687 -615 l 1,0,-1
EndSplineSet
Validated: 1
EndChar

StartChar: integralbt
Encoding: 8993 8993 167
Width: 1229
GlyphClass: 2
Flags: W
LayerCount: 2
Fore
SplineSet
542 1705 m 1,0,-1
 687 1705 l 1,1,-1
 687 -117 l 2,2,3
 687 -222 687 -222 669 -313 c 128,-1,4
 651 -404 651 -404 612.5 -471 c 128,-1,5
 574 -538 574 -538 515 -576.5 c 128,-1,6
 456 -615 456 -615 374 -615 c 0,7,8
 342 -615 342 -615 311 -606 c 128,-1,9
 280 -597 280 -597 256 -580.5 c 128,-1,10
 232 -564 232 -564 217.5 -540 c 128,-1,11
 203 -516 203 -516 203 -486 c 0,12,13
 203 -447 203 -447 228 -422.5 c 128,-1,14
 253 -398 253 -398 288 -398 c 0,15,16
 327 -398 327 -398 348.5 -416 c 128,-1,17
 370 -434 370 -434 384.5 -455.5 c 128,-1,18
 399 -477 399 -477 412.5 -495 c 128,-1,19
 426 -513 426 -513 448 -513 c 0,20,21
 473 -513 473 -513 490.5 -496.5 c 128,-1,22
 508 -480 508 -480 519.5 -442.5 c 128,-1,23
 531 -405 531 -405 536.5 -344.5 c 128,-1,24
 542 -284 542 -284 542 -195 c 2,25,-1
 542 1705 l 1,0,-1
EndSplineSet
Validated: 1
EndChar

StartChar: SF100000
Encoding: 9472 9472 168
Width: 1229
GlyphClass: 2
Flags: W
LayerCount: 2
Fore
SplineSet
-10 555 m 1,0,-1
 -10 700 l 1,1,-1
 1239 700 l 1,2,-1
 1239 555 l 1,3,-1
 -10 555 l 1,0,-1
EndSplineSet
Validated: 1
EndChar

StartChar: SF110000
Encoding: 9474 9474 169
Width: 1229
GlyphClass: 2
Flags: W
LayerCount: 2
Fore
SplineSet
542 1705 m 1,0,-1
 687 1705 l 1,1,-1
 687 -615 l 1,2,-1
 542 -615 l 1,3,-1
 542 1705 l 1,0,-1
EndSplineSet
Validated: 1
EndChar

StartChar: SF010000
Encoding: 9484 9484 170
Width: 1229
GlyphClass: 2
Flags: W
LayerCount: 2
Fore
SplineSet
542 700 m 1,0,-1
 1239 700 l 1,1,-1
 1239 555 l 1,2,-1
 687 555 l 1,3,-1
 687 -615 l 1,4,-1
 542 -615 l 1,5,-1
 542 700 l 1,0,-1
EndSplineSet
Validated: 1
EndChar

StartChar: SF030000
Encoding: 9488 9488 171
Width: 1229
GlyphClass: 2
Flags: W
LayerCount: 2
Fore
SplineSet
-10 555 m 1,0,-1
 -10 700 l 1,1,-1
 687 700 l 1,2,-1
 687 -615 l 1,3,-1
 542 -615 l 1,4,-1
 542 555 l 1,5,-1
 -10 555 l 1,0,-1
EndSplineSet
Validated: 1
EndChar

StartChar: SF020000
Encoding: 9492 9492 172
Width: 1229
GlyphClass: 2
Flags: W
LayerCount: 2
Fore
SplineSet
542 1705 m 1,0,-1
 687 1705 l 1,1,-1
 687 700 l 1,2,-1
 1239 700 l 1,3,-1
 1239 555 l 1,4,-1
 542 555 l 1,5,-1
 542 1705 l 1,0,-1
EndSplineSet
Validated: 1
EndChar

StartChar: SF040000
Encoding: 9496 9496 173
Width: 1229
GlyphClass: 2
Flags: W
LayerCount: 2
Fore
SplineSet
-10 555 m 1,0,-1
 -10 700 l 1,1,-1
 542 700 l 1,2,-1
 542 1705 l 1,3,-1
 687 1705 l 1,4,-1
 687 555 l 1,5,-1
 -10 555 l 1,0,-1
EndSplineSet
Validated: 1
EndChar

StartChar: SF080000
Encoding: 9500 9500 174
Width: 1229
GlyphClass: 2
Flags: W
LayerCount: 2
Fore
SplineSet
542 1705 m 1,0,-1
 687 1705 l 1,1,-1
 687 700 l 1,2,-1
 1239 700 l 1,3,-1
 1239 555 l 1,4,-1
 687 555 l 1,5,-1
 687 -615 l 1,6,-1
 542 -615 l 1,7,-1
 542 1705 l 1,0,-1
EndSplineSet
Validated: 1
EndChar

StartChar: SF090000
Encoding: 9508 9508 175
Width: 1229
GlyphClass: 2
Flags: W
LayerCount: 2
Fore
SplineSet
-10 555 m 1,0,-1
 -10 700 l 1,1,-1
 542 700 l 1,2,-1
 542 1705 l 1,3,-1
 687 1705 l 1,4,-1
 687 -615 l 1,5,-1
 542 -615 l 1,6,-1
 542 555 l 1,7,-1
 -10 555 l 1,0,-1
EndSplineSet
Validated: 1
EndChar

StartChar: SF060000
Encoding: 9516 9516 176
Width: 1229
GlyphClass: 2
Flags: W
LayerCount: 2
Fore
SplineSet
-10 555 m 1,0,-1
 -10 700 l 1,1,-1
 1239 700 l 1,2,-1
 1239 555 l 1,3,-1
 687 555 l 1,4,-1
 687 -615 l 1,5,-1
 542 -615 l 1,6,-1
 542 555 l 1,7,-1
 -10 555 l 1,0,-1
EndSplineSet
Validated: 1
EndChar

StartChar: SF070000
Encoding: 9524 9524 177
Width: 1229
GlyphClass: 2
Flags: W
LayerCount: 2
Fore
SplineSet
-10 555 m 1,0,-1
 -10 700 l 1,1,-1
 542 700 l 1,2,-1
 542 1705 l 1,3,-1
 687 1705 l 1,4,-1
 687 700 l 1,5,-1
 1239 700 l 1,6,-1
 1239 555 l 1,7,-1
 -10 555 l 1,0,-1
EndSplineSet
Validated: 1
EndChar

StartChar: SF050000
Encoding: 9532 9532 178
Width: 1229
GlyphClass: 2
Flags: W
LayerCount: 2
Fore
SplineSet
-10 555 m 1,0,-1
 -10 700 l 1,1,-1
 542 700 l 1,2,-1
 542 1705 l 1,3,-1
 687 1705 l 1,4,-1
 687 700 l 1,5,-1
 1239 700 l 1,6,-1
 1239 555 l 1,7,-1
 687 555 l 1,8,-1
 687 -615 l 1,9,-1
 542 -615 l 1,10,-1
 542 555 l 1,11,-1
 -10 555 l 1,0,-1
EndSplineSet
Validated: 1
EndChar

StartChar: SF430000
Encoding: 9552 9552 179
Width: 1229
GlyphClass: 2
Flags: W
LayerCount: 2
Fore
SplineSet
-10 735 m 1,0,-1
 -10 880 l 1,1,-1
 1239 880 l 1,2,-1
 1239 735 l 1,3,-1
 -10 735 l 1,0,-1
-10 375 m 1,4,-1
 -10 520 l 1,5,-1
 1239 520 l 1,6,-1
 1239 375 l 1,7,-1
 -10 375 l 1,4,-1
EndSplineSet
Validated: 1
EndChar

StartChar: SF240000
Encoding: 9553 9553 180
Width: 1229
GlyphClass: 2
Flags: W
LayerCount: 2
Fore
SplineSet
362 1705 m 1,0,-1
 507 1705 l 1,1,-1
 507 -615 l 1,2,-1
 362 -615 l 1,3,-1
 362 1705 l 1,0,-1
722 1705 m 1,4,-1
 867 1705 l 1,5,-1
 867 -615 l 1,6,-1
 722 -615 l 1,7,-1
 722 1705 l 1,4,-1
EndSplineSet
Validated: 1
EndChar

StartChar: SF510000
Encoding: 9554 9554 181
Width: 1229
GlyphClass: 2
Flags: W
LayerCount: 2
Fore
SplineSet
542 880 m 1,0,-1
 1239 880 l 1,1,-1
 1239 735 l 1,2,-1
 687 735 l 1,3,-1
 687 520 l 1,4,-1
 1239 520 l 1,5,-1
 1239 375 l 1,6,-1
 687 375 l 1,7,-1
 687 -615 l 1,8,-1
 542 -615 l 1,9,-1
 542 880 l 1,0,-1
EndSplineSet
Validated: 1
EndChar

StartChar: SF520000
Encoding: 9555 9555 182
Width: 1229
GlyphClass: 2
Flags: W
LayerCount: 2
Fore
SplineSet
1239 700 m 1,0,-1
 1239 555 l 1,1,-1
 867 555 l 1,2,-1
 867 -615 l 1,3,-1
 722 -615 l 1,4,-1
 722 555 l 1,5,-1
 507 555 l 1,6,-1
 507 -615 l 1,7,-1
 362 -615 l 1,8,-1
 362 700 l 1,9,-1
 1239 700 l 1,0,-1
EndSplineSet
Validated: 1
EndChar

StartChar: SF390000
Encoding: 9556 9556 183
Width: 1229
GlyphClass: 2
Flags: W
LayerCount: 2
Fore
SplineSet
362 880 m 1,0,-1
 1239 880 l 1,1,-1
 1239 735 l 1,2,-1
 507 735 l 1,3,-1
 507 -615 l 1,4,-1
 362 -615 l 1,5,-1
 362 880 l 1,0,-1
722 520 m 1,6,-1
 1239 520 l 1,7,-1
 1239 375 l 1,8,-1
 867 375 l 1,9,-1
 867 -615 l 1,10,-1
 722 -615 l 1,11,-1
 722 520 l 1,6,-1
EndSplineSet
Validated: 1
EndChar

StartChar: SF220000
Encoding: 9557 9557 184
Width: 1229
GlyphClass: 2
Flags: W
LayerCount: 2
Fore
SplineSet
-10 375 m 1,0,-1
 -10 520 l 1,1,-1
 542 520 l 1,2,-1
 542 735 l 1,3,-1
 -10 735 l 1,4,-1
 -10 880 l 1,5,-1
 687 880 l 1,6,-1
 687 -615 l 1,7,-1
 542 -615 l 1,8,-1
 542 375 l 1,9,-1
 -10 375 l 1,0,-1
EndSplineSet
Validated: 1
EndChar

StartChar: SF210000
Encoding: 9558 9558 185
Width: 1229
GlyphClass: 2
Flags: W
LayerCount: 2
Fore
SplineSet
-10 555 m 1,0,-1
 -10 700 l 1,1,-1
 867 700 l 1,2,-1
 867 -615 l 1,3,-1
 722 -615 l 1,4,-1
 722 555 l 1,5,-1
 507 555 l 1,6,-1
 507 -615 l 1,7,-1
 362 -615 l 1,8,-1
 362 555 l 1,9,-1
 -10 555 l 1,0,-1
EndSplineSet
Validated: 1
EndChar

StartChar: SF250000
Encoding: 9559 9559 186
Width: 1229
GlyphClass: 2
Flags: W
LayerCount: 2
Fore
SplineSet
867 880 m 1,0,-1
 867 -615 l 1,1,-1
 722 -615 l 1,2,-1
 722 735 l 1,3,-1
 -10 735 l 1,4,-1
 -10 880 l 1,5,-1
 867 880 l 1,0,-1
507 -615 m 1,6,-1
 362 -615 l 1,7,-1
 362 375 l 1,8,-1
 -10 375 l 1,9,-1
 -10 520 l 1,10,-1
 507 520 l 1,11,-1
 507 -615 l 1,6,-1
EndSplineSet
Validated: 1
EndChar

StartChar: SF500000
Encoding: 9560 9560 187
Width: 1229
GlyphClass: 2
Flags: W
LayerCount: 2
Fore
SplineSet
542 1705 m 1,0,-1
 687 1705 l 1,1,-1
 687 880 l 1,2,-1
 1239 880 l 1,3,-1
 1239 735 l 1,4,-1
 687 735 l 1,5,-1
 687 520 l 1,6,-1
 1239 520 l 1,7,-1
 1239 375 l 1,8,-1
 542 375 l 1,9,-1
 542 1705 l 1,0,-1
EndSplineSet
Validated: 1
EndChar

StartChar: SF490000
Encoding: 9561 9561 188
Width: 1229
GlyphClass: 2
Flags: W
LayerCount: 2
Fore
SplineSet
722 1705 m 1,0,-1
 867 1705 l 1,1,-1
 867 700 l 1,2,-1
 1239 700 l 1,3,-1
 1239 555 l 1,4,-1
 362 555 l 1,5,-1
 362 1705 l 1,6,-1
 507 1705 l 1,7,-1
 507 700 l 1,8,-1
 722 700 l 1,9,-1
 722 1705 l 1,0,-1
EndSplineSet
Validated: 1
EndChar

StartChar: SF380000
Encoding: 9562 9562 189
Width: 1229
GlyphClass: 2
Flags: W
LayerCount: 2
Fore
SplineSet
362 1705 m 1,0,-1
 507 1705 l 1,1,-1
 507 520 l 1,2,-1
 1239 520 l 1,3,-1
 1239 375 l 1,4,-1
 362 375 l 1,5,-1
 362 1705 l 1,0,-1
722 1705 m 1,6,-1
 867 1705 l 1,7,-1
 867 880 l 1,8,-1
 1239 880 l 1,9,-1
 1239 735 l 1,10,-1
 722 735 l 1,11,-1
 722 1705 l 1,6,-1
EndSplineSet
Validated: 1
EndChar

StartChar: SF280000
Encoding: 9563 9563 190
Width: 1229
GlyphClass: 2
Flags: W
LayerCount: 2
Fore
SplineSet
-10 375 m 1,0,-1
 -10 520 l 1,1,-1
 542 520 l 1,2,-1
 542 735 l 1,3,-1
 -10 735 l 1,4,-1
 -10 880 l 1,5,-1
 542 880 l 1,6,-1
 542 1705 l 1,7,-1
 687 1705 l 1,8,-1
 687 375 l 1,9,-1
 -10 375 l 1,0,-1
EndSplineSet
Validated: 1
EndChar

StartChar: SF270000
Encoding: 9564 9564 191
Width: 1229
GlyphClass: 2
Flags: W
LayerCount: 2
Fore
SplineSet
867 555 m 1,0,-1
 -10 555 l 1,1,-1
 -10 700 l 1,2,-1
 362 700 l 1,3,-1
 362 1705 l 1,4,-1
 507 1705 l 1,5,-1
 507 700 l 1,6,-1
 722 700 l 1,7,-1
 722 1705 l 1,8,-1
 867 1705 l 1,9,-1
 867 555 l 1,0,-1
EndSplineSet
Validated: 1
EndChar

StartChar: SF260000
Encoding: 9565 9565 192
Width: 1229
GlyphClass: 2
Flags: W
LayerCount: 2
Fore
SplineSet
867 375 m 1,0,-1
 -10 375 l 1,1,-1
 -10 520 l 1,2,-1
 722 520 l 1,3,-1
 722 1705 l 1,4,-1
 867 1705 l 1,5,-1
 867 375 l 1,0,-1
362 1705 m 1,6,-1
 507 1705 l 1,7,-1
 507 735 l 1,8,-1
 -10 735 l 1,9,-1
 -10 880 l 1,10,-1
 362 880 l 1,11,-1
 362 1705 l 1,6,-1
EndSplineSet
Validated: 1
EndChar

StartChar: SF360000
Encoding: 9566 9566 193
Width: 1229
GlyphClass: 2
Flags: W
LayerCount: 2
Fore
SplineSet
542 1705 m 1,0,-1
 687 1705 l 1,1,-1
 687 880 l 1,2,-1
 1239 880 l 1,3,-1
 1239 735 l 1,4,-1
 687 735 l 1,5,-1
 687 520 l 1,6,-1
 1239 520 l 1,7,-1
 1239 375 l 1,8,-1
 687 375 l 1,9,-1
 687 -615 l 1,10,-1
 542 -615 l 1,11,-1
 542 1705 l 1,0,-1
EndSplineSet
Validated: 1
EndChar

StartChar: SF370000
Encoding: 9567 9567 194
Width: 1229
GlyphClass: 2
Flags: W
LayerCount: 2
Fore
SplineSet
722 1705 m 1,0,-1
 867 1705 l 1,1,-1
 867 700 l 1,2,-1
 1239 700 l 1,3,-1
 1239 555 l 1,4,-1
 867 555 l 1,5,-1
 867 -615 l 1,6,-1
 722 -615 l 1,7,-1
 722 1705 l 1,0,-1
362 1705 m 1,8,-1
 507 1705 l 1,9,-1
 507 -615 l 1,10,-1
 362 -615 l 1,11,-1
 362 1705 l 1,8,-1
EndSplineSet
Validated: 1
EndChar

StartChar: SF420000
Encoding: 9568 9568 195
Width: 1229
GlyphClass: 2
Flags: W
LayerCount: 2
Fore
SplineSet
507 -615 m 1,0,-1
 362 -615 l 1,1,-1
 362 1705 l 1,2,-1
 507 1705 l 1,3,-1
 507 -615 l 1,0,-1
722 520 m 1,4,-1
 1239 520 l 1,5,-1
 1239 375 l 1,6,-1
 867 375 l 1,7,-1
 867 -615 l 1,8,-1
 722 -615 l 1,9,-1
 722 520 l 1,4,-1
722 1705 m 1,10,-1
 867 1705 l 1,11,-1
 867 880 l 1,12,-1
 1239 880 l 1,13,-1
 1239 735 l 1,14,-1
 722 735 l 1,15,-1
 722 1705 l 1,10,-1
EndSplineSet
Validated: 1
EndChar

StartChar: SF190000
Encoding: 9569 9569 196
Width: 1229
GlyphClass: 2
Flags: W
LayerCount: 2
Fore
SplineSet
-10 375 m 1,0,-1
 -10 520 l 1,1,-1
 542 520 l 1,2,-1
 542 735 l 1,3,-1
 -10 735 l 1,4,-1
 -10 880 l 1,5,-1
 542 880 l 1,6,-1
 542 1705 l 1,7,-1
 687 1705 l 1,8,-1
 687 -615 l 1,9,-1
 542 -615 l 1,10,-1
 542 375 l 1,11,-1
 -10 375 l 1,0,-1
EndSplineSet
Validated: 1
EndChar

StartChar: SF200000
Encoding: 9570 9570 197
Width: 1229
GlyphClass: 2
Flags: W
LayerCount: 2
Fore
SplineSet
-10 555 m 1,0,-1
 -10 700 l 1,1,-1
 362 700 l 1,2,-1
 362 1705 l 1,3,-1
 507 1705 l 1,4,-1
 507 -615 l 1,5,-1
 362 -615 l 1,6,-1
 362 555 l 1,7,-1
 -10 555 l 1,0,-1
722 1705 m 1,8,-1
 867 1705 l 1,9,-1
 867 -615 l 1,10,-1
 722 -615 l 1,11,-1
 722 1705 l 1,8,-1
EndSplineSet
Validated: 1
EndChar

StartChar: SF230000
Encoding: 9571 9571 198
Width: 1229
GlyphClass: 2
Flags: W
LayerCount: 2
Fore
SplineSet
722 1705 m 1,0,-1
 867 1705 l 1,1,-1
 867 -615 l 1,2,-1
 722 -615 l 1,3,-1
 722 1705 l 1,0,-1
362 1705 m 1,4,-1
 507 1705 l 1,5,-1
 507 735 l 1,6,-1
 -10 735 l 1,7,-1
 -10 880 l 1,8,-1
 362 880 l 1,9,-1
 362 1705 l 1,4,-1
507 -615 m 1,10,-1
 362 -615 l 1,11,-1
 362 375 l 1,12,-1
 -10 375 l 1,13,-1
 -10 520 l 1,14,-1
 507 520 l 1,15,-1
 507 -615 l 1,10,-1
EndSplineSet
Validated: 1
EndChar

StartChar: SF470000
Encoding: 9572 9572 199
Width: 1229
GlyphClass: 2
Flags: W
LayerCount: 2
Fore
SplineSet
-10 375 m 1,0,-1
 -10 520 l 1,1,-1
 1239 520 l 1,2,-1
 1239 375 l 1,3,-1
 687 375 l 1,4,-1
 687 -615 l 1,5,-1
 542 -615 l 1,6,-1
 542 375 l 1,7,-1
 -10 375 l 1,0,-1
-10 735 m 1,8,-1
 -10 880 l 1,9,-1
 1239 880 l 1,10,-1
 1239 735 l 1,11,-1
 -10 735 l 1,8,-1
EndSplineSet
Validated: 1
EndChar

StartChar: SF480000
Encoding: 9573 9573 200
Width: 1229
GlyphClass: 2
Flags: W
LayerCount: 2
Fore
SplineSet
-10 555 m 1,0,-1
 -10 700 l 1,1,-1
 1239 700 l 1,2,-1
 1239 555 l 1,3,-1
 867 555 l 1,4,-1
 867 -615 l 1,5,-1
 722 -615 l 1,6,-1
 722 555 l 1,7,-1
 507 555 l 1,8,-1
 507 -615 l 1,9,-1
 362 -615 l 1,10,-1
 362 555 l 1,11,-1
 -10 555 l 1,0,-1
EndSplineSet
Validated: 1
EndChar

StartChar: SF410000
Encoding: 9574 9574 201
Width: 1229
GlyphClass: 2
Flags: W
LayerCount: 2
Fore
SplineSet
507 -615 m 1,0,-1
 362 -615 l 1,1,-1
 362 375 l 1,2,-1
 -10 375 l 1,3,-1
 -10 520 l 1,4,-1
 507 520 l 1,5,-1
 507 -615 l 1,0,-1
722 520 m 1,6,-1
 1239 520 l 1,7,-1
 1239 375 l 1,8,-1
 867 375 l 1,9,-1
 867 -615 l 1,10,-1
 722 -615 l 1,11,-1
 722 520 l 1,6,-1
1239 880 m 1,12,-1
 1239 735 l 1,13,-1
 -10 735 l 1,14,-1
 -10 880 l 1,15,-1
 1239 880 l 1,12,-1
EndSplineSet
Validated: 1
EndChar

StartChar: SF450000
Encoding: 9575 9575 202
Width: 1229
GlyphClass: 2
Flags: W
LayerCount: 2
Fore
SplineSet
-10 735 m 1,0,-1
 -10 880 l 1,1,-1
 542 880 l 1,2,-1
 542 1705 l 1,3,-1
 687 1705 l 1,4,-1
 687 880 l 1,5,-1
 1239 880 l 1,6,-1
 1239 735 l 1,7,-1
 -10 735 l 1,0,-1
-10 375 m 1,8,-1
 -10 520 l 1,9,-1
 1239 520 l 1,10,-1
 1239 375 l 1,11,-1
 -10 375 l 1,8,-1
EndSplineSet
Validated: 1
EndChar

StartChar: SF460000
Encoding: 9576 9576 203
Width: 1229
GlyphClass: 2
Flags: W
LayerCount: 2
Fore
SplineSet
-10 555 m 1,0,-1
 -10 700 l 1,1,-1
 362 700 l 1,2,-1
 362 1705 l 1,3,-1
 507 1705 l 1,4,-1
 507 700 l 1,5,-1
 722 700 l 1,6,-1
 722 1705 l 1,7,-1
 867 1705 l 1,8,-1
 867 700 l 1,9,-1
 1239 700 l 1,10,-1
 1239 555 l 1,11,-1
 -10 555 l 1,0,-1
EndSplineSet
Validated: 1
EndChar

StartChar: SF400000
Encoding: 9577 9577 204
Width: 1229
GlyphClass: 2
Flags: W
LayerCount: 2
Fore
SplineSet
722 1705 m 1,0,-1
 867 1705 l 1,1,-1
 867 880 l 1,2,-1
 1239 880 l 1,3,-1
 1239 735 l 1,4,-1
 722 735 l 1,5,-1
 722 1705 l 1,0,-1
362 1705 m 1,6,-1
 507 1705 l 1,7,-1
 507 735 l 1,8,-1
 -10 735 l 1,9,-1
 -10 880 l 1,10,-1
 362 880 l 1,11,-1
 362 1705 l 1,6,-1
-10 375 m 1,12,-1
 -10 520 l 1,13,-1
 1239 520 l 1,14,-1
 1239 375 l 1,15,-1
 -10 375 l 1,12,-1
EndSplineSet
Validated: 1
EndChar

StartChar: SF540000
Encoding: 9578 9578 205
Width: 1229
GlyphClass: 2
Flags: W
LayerCount: 2
Fore
SplineSet
-10 375 m 1,0,-1
 -10 520 l 1,1,-1
 542 520 l 1,2,-1
 542 735 l 1,3,-1
 -10 735 l 1,4,-1
 -10 880 l 1,5,-1
 542 880 l 1,6,-1
 542 1705 l 1,7,-1
 687 1705 l 1,8,-1
 687 880 l 1,9,-1
 1239 880 l 1,10,-1
 1239 735 l 1,11,-1
 687 735 l 1,12,-1
 687 520 l 1,13,-1
 1239 520 l 1,14,-1
 1239 375 l 1,15,-1
 687 375 l 1,16,-1
 687 -615 l 1,17,-1
 542 -615 l 1,18,-1
 542 375 l 1,19,-1
 -10 375 l 1,0,-1
EndSplineSet
Validated: 1
EndChar

StartChar: SF530000
Encoding: 9579 9579 206
Width: 1229
GlyphClass: 2
Flags: W
LayerCount: 2
Fore
SplineSet
722 1705 m 1,0,-1
 867 1705 l 1,1,-1
 867 700 l 1,2,-1
 1239 700 l 1,3,-1
 1239 555 l 1,4,-1
 867 555 l 1,5,-1
 867 -615 l 1,6,-1
 722 -615 l 1,7,-1
 722 555 l 1,8,-1
 507 555 l 1,9,-1
 507 -615 l 1,10,-1
 362 -615 l 1,11,-1
 362 555 l 1,12,-1
 -10 555 l 1,13,-1
 -10 700 l 1,14,-1
 362 700 l 1,15,-1
 362 1705 l 1,16,-1
 507 1705 l 1,17,-1
 507 700 l 1,18,-1
 722 700 l 1,19,-1
 722 1705 l 1,0,-1
EndSplineSet
Validated: 1
EndChar

StartChar: SF440000
Encoding: 9580 9580 207
Width: 1229
GlyphClass: 2
Flags: W
LayerCount: 2
Fore
SplineSet
722 1705 m 1,0,-1
 867 1705 l 1,1,-1
 867 880 l 1,2,-1
 1239 880 l 1,3,-1
 1239 735 l 1,4,-1
 722 735 l 1,5,-1
 722 1705 l 1,0,-1
507 -615 m 1,6,-1
 362 -615 l 1,7,-1
 362 375 l 1,8,-1
 -10 375 l 1,9,-1
 -10 520 l 1,10,-1
 507 520 l 1,11,-1
 507 -615 l 1,6,-1
722 520 m 1,12,-1
 1239 520 l 1,13,-1
 1239 375 l 1,14,-1
 867 375 l 1,15,-1
 867 -615 l 1,16,-1
 722 -615 l 1,17,-1
 722 520 l 1,12,-1
362 1705 m 1,18,-1
 507 1705 l 1,19,-1
 507 735 l 1,20,-1
 -10 735 l 1,21,-1
 -10 880 l 1,22,-1
 362 880 l 1,23,-1
 362 1705 l 1,18,-1
EndSplineSet
Validated: 1
EndChar

StartChar: upblock
Encoding: 9600 9600 208
Width: 1229
GlyphClass: 2
Flags: W
LayerCount: 2
Fore
SplineSet
1229 627 m 1,0,-1
 0 627 l 1,1,-1
 0 1705 l 1,2,-1
 1229 1705 l 1,3,-1
 1229 627 l 1,0,-1
EndSplineSet
Validated: 1
EndChar

StartChar: dnblock
Encoding: 9604 9604 209
Width: 1229
GlyphClass: 2
Flags: W
LayerCount: 2
Fore
SplineSet
1229 -615 m 1,0,-1
 0 -615 l 1,1,-1
 0 627 l 1,2,-1
 1229 627 l 1,3,-1
 1229 -615 l 1,0,-1
EndSplineSet
Validated: 1
EndChar

StartChar: block
Encoding: 9608 9608 210
Width: 1229
GlyphClass: 2
Flags: W
LayerCount: 2
Fore
SplineSet
1229 -615 m 1,0,-1
 0 -615 l 1,1,-1
 0 1705 l 1,2,-1
 1229 1705 l 1,3,-1
 1229 -615 l 1,0,-1
EndSplineSet
Validated: 1
EndChar

StartChar: lfblock
Encoding: 9612 9612 211
Width: 1229
GlyphClass: 2
Flags: W
LayerCount: 2
Fore
SplineSet
615 -615 m 1,0,-1
 0 -615 l 1,1,-1
 0 1705 l 1,2,-1
 615 1705 l 1,3,-1
 615 -615 l 1,0,-1
EndSplineSet
Validated: 1
EndChar

StartChar: rtblock
Encoding: 9616 9616 212
Width: 1229
GlyphClass: 2
Flags: W
LayerCount: 2
Fore
SplineSet
1229 -615 m 1,0,-1
 614 -615 l 1,1,-1
 614 1705 l 1,2,-1
 1229 1705 l 1,3,-1
 1229 -615 l 1,0,-1
EndSplineSet
Validated: 1
EndChar

StartChar: ltshade
Encoding: 9617 9617 213
Width: 1229
GlyphClass: 2
Flags: W
LayerCount: 2
Fore
SplineSet
0 1320 m 1,0,-1
 103 1320 l 1,1,-1
 103 1222 l 1,2,-1
 0 1222 l 1,3,-1
 0 1320 l 1,0,-1
410 1320 m 1,4,-1
 513 1320 l 1,5,-1
 513 1222 l 1,6,-1
 410 1222 l 1,7,-1
 410 1320 l 1,4,-1
820 1320 m 1,8,-1
 923 1320 l 1,9,-1
 923 1222 l 1,10,-1
 820 1222 l 1,11,-1
 820 1320 l 1,8,-1
205 1125 m 1,12,-1
 307 1125 l 1,13,-1
 307 1029 l 1,14,-1
 205 1029 l 1,15,-1
 205 1125 l 1,12,-1
615 1125 m 1,16,-1
 717 1125 l 1,17,-1
 717 1029 l 1,18,-1
 615 1029 l 1,19,-1
 615 1125 l 1,16,-1
1025 1125 m 1,20,-1
 1127 1125 l 1,21,-1
 1127 1029 l 1,22,-1
 1025 1029 l 1,23,-1
 1025 1125 l 1,20,-1
0 933 m 1,24,-1
 103 933 l 1,25,-1
 103 837 l 1,26,-1
 0 837 l 1,27,-1
 0 933 l 1,24,-1
410 933 m 1,28,-1
 513 933 l 1,29,-1
 513 837 l 1,30,-1
 410 837 l 1,31,-1
 410 933 l 1,28,-1
820 933 m 1,32,-1
 923 933 l 1,33,-1
 923 837 l 1,34,-1
 820 837 l 1,35,-1
 820 933 l 1,32,-1
205 738 m 1,36,-1
 307 738 l 1,37,-1
 307 642 l 1,38,-1
 205 642 l 1,39,-1
 205 738 l 1,36,-1
615 738 m 1,40,-1
 717 738 l 1,41,-1
 717 642 l 1,42,-1
 615 642 l 1,43,-1
 615 738 l 1,40,-1
1025 738 m 1,44,-1
 1127 738 l 1,45,-1
 1127 642 l 1,46,-1
 1025 642 l 1,47,-1
 1025 738 l 1,44,-1
0 546 m 1,48,-1
 103 546 l 1,49,-1
 103 450 l 1,50,-1
 0 450 l 1,51,-1
 0 546 l 1,48,-1
410 546 m 1,52,-1
 513 546 l 1,53,-1
 513 450 l 1,54,-1
 410 450 l 1,55,-1
 410 546 l 1,52,-1
820 546 m 1,56,-1
 923 546 l 1,57,-1
 923 450 l 1,58,-1
 820 450 l 1,59,-1
 820 546 l 1,56,-1
615 351 m 1,60,-1
 717 351 l 1,61,-1
 717 255 l 1,62,-1
 615 255 l 1,63,-1
 615 351 l 1,60,-1
1025 351 m 1,64,-1
 1127 351 l 1,65,-1
 1127 255 l 1,66,-1
 1025 255 l 1,67,-1
 1025 351 l 1,64,-1
205 351 m 1,68,-1
 307 351 l 1,69,-1
 307 255 l 1,70,-1
 205 255 l 1,71,-1
 205 351 l 1,68,-1
820 159 m 1,72,-1
 923 159 l 1,73,-1
 923 62 l 1,74,-1
 820 62 l 1,75,-1
 820 159 l 1,72,-1
410 159 m 1,76,-1
 513 159 l 1,77,-1
 513 62 l 1,78,-1
 410 62 l 1,79,-1
 410 159 l 1,76,-1
0 159 m 1,80,-1
 103 159 l 1,81,-1
 103 62 l 1,82,-1
 0 62 l 1,83,-1
 0 159 l 1,80,-1
205 -36 m 1,84,-1
 307 -36 l 1,85,-1
 307 -130 l 1,86,-1
 205 -130 l 1,87,-1
 205 -36 l 1,84,-1
615 -36 m 1,88,-1
 717 -36 l 1,89,-1
 717 -130 l 1,90,-1
 615 -130 l 1,91,-1
 615 -36 l 1,88,-1
1025 -36 m 1,92,-1
 1127 -36 l 1,93,-1
 1127 -130 l 1,94,-1
 1025 -130 l 1,95,-1
 1025 -36 l 1,92,-1
820 -228 m 1,96,-1
 923 -228 l 1,97,-1
 923 -325 l 1,98,-1
 820 -325 l 1,99,-1
 820 -228 l 1,96,-1
410 -228 m 1,100,-1
 513 -228 l 1,101,-1
 513 -325 l 1,102,-1
 410 -325 l 1,103,-1
 410 -228 l 1,100,-1
0 -228 m 1,104,-1
 103 -228 l 1,105,-1
 103 -325 l 1,106,-1
 0 -325 l 1,107,-1
 0 -228 l 1,104,-1
205 -421 m 1,108,-1
 307 -421 l 1,109,-1
 307 -517 l 1,110,-1
 205 -517 l 1,111,-1
 205 -421 l 1,108,-1
615 -421 m 1,112,-1
 717 -421 l 1,113,-1
 717 -517 l 1,114,-1
 615 -517 l 1,115,-1
 615 -421 l 1,112,-1
1025 -421 m 1,116,-1
 1127 -421 l 1,117,-1
 1127 -517 l 1,118,-1
 1025 -517 l 1,119,-1
 1025 -421 l 1,116,-1
205 1512 m 1,120,-1
 307 1512 l 1,121,-1
 307 1414 l 1,122,-1
 205 1414 l 1,123,-1
 205 1512 l 1,120,-1
615 1512 m 1,124,-1
 717 1512 l 1,125,-1
 717 1414 l 1,126,-1
 615 1414 l 1,127,-1
 615 1512 l 1,124,-1
1025 1512 m 1,128,-1
 1127 1512 l 1,129,-1
 1127 1414 l 1,130,-1
 1025 1414 l 1,131,-1
 1025 1512 l 1,128,-1
0 1705 m 1,132,-1
 103 1705 l 1,133,-1
 103 1609 l 1,134,-1
 0 1609 l 1,135,-1
 0 1705 l 1,132,-1
410 1705 m 1,136,-1
 513 1705 l 1,137,-1
 513 1609 l 1,138,-1
 410 1609 l 1,139,-1
 410 1705 l 1,136,-1
820 1705 m 1,140,-1
 923 1705 l 1,141,-1
 923 1609 l 1,142,-1
 820 1609 l 1,143,-1
 820 1705 l 1,140,-1
EndSplineSet
Validated: 1
EndChar

StartChar: shade
Encoding: 9618 9618 214
Width: 1229
GlyphClass: 2
Flags: W
LayerCount: 2
Fore
SplineSet
102 1320 m 1,0,-1
 205 1320 l 1,1,-1
 205 1222 l 1,2,-1
 102 1222 l 1,3,-1
 102 1320 l 1,0,-1
307 1320 m 1,4,-1
 410 1320 l 1,5,-1
 410 1222 l 1,6,-1
 307 1222 l 1,7,-1
 307 1320 l 1,4,-1
512 1320 m 1,8,-1
 615 1320 l 1,9,-1
 615 1222 l 1,10,-1
 512 1222 l 1,11,-1
 512 1320 l 1,8,-1
717 1320 m 1,12,-1
 820 1320 l 1,13,-1
 820 1222 l 1,14,-1
 717 1222 l 1,15,-1
 717 1320 l 1,12,-1
922 1320 m 1,16,-1
 1025 1320 l 1,17,-1
 1025 1222 l 1,18,-1
 922 1222 l 1,19,-1
 922 1320 l 1,16,-1
1127 1320 m 1,20,-1
 1230 1320 l 1,21,-1
 1230 1222 l 1,22,-1
 1127 1222 l 1,23,-1
 1127 1320 l 1,20,-1
0 1125 m 1,24,-1
 102 1125 l 1,25,-1
 102 1029 l 1,26,-1
 0 1029 l 1,27,-1
 0 1125 l 1,24,-1
205 1125 m 1,28,-1
 307 1125 l 1,29,-1
 307 1029 l 1,30,-1
 205 1029 l 1,31,-1
 205 1125 l 1,28,-1
410 1125 m 1,32,-1
 512 1125 l 1,33,-1
 512 1029 l 1,34,-1
 410 1029 l 1,35,-1
 410 1125 l 1,32,-1
615 1125 m 1,36,-1
 717 1125 l 1,37,-1
 717 1029 l 1,38,-1
 615 1029 l 1,39,-1
 615 1125 l 1,36,-1
820 1125 m 1,40,-1
 922 1125 l 1,41,-1
 922 1029 l 1,42,-1
 820 1029 l 1,43,-1
 820 1125 l 1,40,-1
1025 1125 m 1,44,-1
 1127 1125 l 1,45,-1
 1127 1029 l 1,46,-1
 1025 1029 l 1,47,-1
 1025 1125 l 1,44,-1
102 933 m 1,48,-1
 205 933 l 1,49,-1
 205 837 l 1,50,-1
 102 837 l 1,51,-1
 102 933 l 1,48,-1
307 933 m 1,52,-1
 410 933 l 1,53,-1
 410 837 l 1,54,-1
 307 837 l 1,55,-1
 307 933 l 1,52,-1
512 933 m 1,56,-1
 615 933 l 1,57,-1
 615 837 l 1,58,-1
 512 837 l 1,59,-1
 512 933 l 1,56,-1
717 933 m 1,60,-1
 820 933 l 1,61,-1
 820 837 l 1,62,-1
 717 837 l 1,63,-1
 717 933 l 1,60,-1
922 933 m 1,64,-1
 1025 933 l 1,65,-1
 1025 837 l 1,66,-1
 922 837 l 1,67,-1
 922 933 l 1,64,-1
1127 933 m 1,68,-1
 1230 933 l 1,69,-1
 1230 837 l 1,70,-1
 1127 837 l 1,71,-1
 1127 933 l 1,68,-1
0 738 m 1,72,-1
 102 738 l 1,73,-1
 102 642 l 1,74,-1
 0 642 l 1,75,-1
 0 738 l 1,72,-1
205 738 m 1,76,-1
 307 738 l 1,77,-1
 307 642 l 1,78,-1
 205 642 l 1,79,-1
 205 738 l 1,76,-1
410 738 m 1,80,-1
 512 738 l 1,81,-1
 512 642 l 1,82,-1
 410 642 l 1,83,-1
 410 738 l 1,80,-1
615 738 m 1,84,-1
 717 738 l 1,85,-1
 717 642 l 1,86,-1
 615 642 l 1,87,-1
 615 738 l 1,84,-1
820 738 m 1,88,-1
 922 738 l 1,89,-1
 922 642 l 1,90,-1
 820 642 l 1,91,-1
 820 738 l 1,88,-1
1025 738 m 1,92,-1
 1127 738 l 1,93,-1
 1127 642 l 1,94,-1
 1025 642 l 1,95,-1
 1025 738 l 1,92,-1
102 546 m 1,96,-1
 205 546 l 1,97,-1
 205 450 l 1,98,-1
 102 450 l 1,99,-1
 102 546 l 1,96,-1
307 546 m 1,100,-1
 410 546 l 1,101,-1
 410 450 l 1,102,-1
 307 450 l 1,103,-1
 307 546 l 1,100,-1
512 546 m 1,104,-1
 615 546 l 1,105,-1
 615 450 l 1,106,-1
 512 450 l 1,107,-1
 512 546 l 1,104,-1
717 546 m 1,108,-1
 820 546 l 1,109,-1
 820 450 l 1,110,-1
 717 450 l 1,111,-1
 717 546 l 1,108,-1
922 546 m 1,112,-1
 1025 546 l 1,113,-1
 1025 450 l 1,114,-1
 922 450 l 1,115,-1
 922 546 l 1,112,-1
1127 546 m 1,116,-1
 1230 546 l 1,117,-1
 1230 450 l 1,118,-1
 1127 450 l 1,119,-1
 1127 546 l 1,116,-1
0 351 m 1,120,-1
 102 351 l 1,121,-1
 102 255 l 1,122,-1
 0 255 l 1,123,-1
 0 351 l 1,120,-1
410 351 m 1,124,-1
 512 351 l 1,125,-1
 512 255 l 1,126,-1
 410 255 l 1,127,-1
 410 351 l 1,124,-1
615 351 m 1,128,-1
 717 351 l 1,129,-1
 717 255 l 1,130,-1
 615 255 l 1,131,-1
 615 351 l 1,128,-1
820 351 m 1,132,-1
 922 351 l 1,133,-1
 922 255 l 1,134,-1
 820 255 l 1,135,-1
 820 351 l 1,132,-1
1025 351 m 1,136,-1
 1127 351 l 1,137,-1
 1127 255 l 1,138,-1
 1025 255 l 1,139,-1
 1025 351 l 1,136,-1
205 351 m 1,140,-1
 307 351 l 1,141,-1
 307 255 l 1,142,-1
 205 255 l 1,143,-1
 205 351 l 1,140,-1
1127 159 m 1,144,-1
 1230 159 l 1,145,-1
 1230 62 l 1,146,-1
 1127 62 l 1,147,-1
 1127 159 l 1,144,-1
922 159 m 1,148,-1
 1025 159 l 1,149,-1
 1025 62 l 1,150,-1
 922 62 l 1,151,-1
 922 159 l 1,148,-1
717 159 m 1,152,-1
 820 159 l 1,153,-1
 820 62 l 1,154,-1
 717 62 l 1,155,-1
 717 159 l 1,152,-1
512 159 m 1,156,-1
 615 159 l 1,157,-1
 615 62 l 1,158,-1
 512 62 l 1,159,-1
 512 159 l 1,156,-1
307 159 m 1,160,-1
 410 159 l 1,161,-1
 410 62 l 1,162,-1
 307 62 l 1,163,-1
 307 159 l 1,160,-1
102 159 m 1,164,-1
 205 159 l 1,165,-1
 205 62 l 1,166,-1
 102 62 l 1,167,-1
 102 159 l 1,164,-1
0 -36 m 1,168,-1
 102 -36 l 1,169,-1
 102 -130 l 1,170,-1
 0 -130 l 1,171,-1
 0 -36 l 1,168,-1
205 -36 m 1,172,-1
 307 -36 l 1,173,-1
 307 -130 l 1,174,-1
 205 -130 l 1,175,-1
 205 -36 l 1,172,-1
410 -36 m 1,176,-1
 512 -36 l 1,177,-1
 512 -130 l 1,178,-1
 410 -130 l 1,179,-1
 410 -36 l 1,176,-1
615 -36 m 1,180,-1
 717 -36 l 1,181,-1
 717 -130 l 1,182,-1
 615 -130 l 1,183,-1
 615 -36 l 1,180,-1
820 -36 m 1,184,-1
 922 -36 l 1,185,-1
 922 -130 l 1,186,-1
 820 -130 l 1,187,-1
 820 -36 l 1,184,-1
1025 -36 m 1,188,-1
 1127 -36 l 1,189,-1
 1127 -130 l 1,190,-1
 1025 -130 l 1,191,-1
 1025 -36 l 1,188,-1
1127 -228 m 1,192,-1
 1230 -228 l 1,193,-1
 1230 -325 l 1,194,-1
 1127 -325 l 1,195,-1
 1127 -228 l 1,192,-1
922 -228 m 1,196,-1
 1025 -228 l 1,197,-1
 1025 -325 l 1,198,-1
 922 -325 l 1,199,-1
 922 -228 l 1,196,-1
717 -228 m 1,200,-1
 820 -228 l 1,201,-1
 820 -325 l 1,202,-1
 717 -325 l 1,203,-1
 717 -228 l 1,200,-1
512 -228 m 1,204,-1
 615 -228 l 1,205,-1
 615 -325 l 1,206,-1
 512 -325 l 1,207,-1
 512 -228 l 1,204,-1
307 -228 m 1,208,-1
 410 -228 l 1,209,-1
 410 -325 l 1,210,-1
 307 -325 l 1,211,-1
 307 -228 l 1,208,-1
102 -228 m 1,212,-1
 205 -228 l 1,213,-1
 205 -325 l 1,214,-1
 102 -325 l 1,215,-1
 102 -228 l 1,212,-1
0 -421 m 1,216,-1
 102 -421 l 1,217,-1
 102 -517 l 1,218,-1
 0 -517 l 1,219,-1
 0 -421 l 1,216,-1
205 -421 m 1,220,-1
 307 -421 l 1,221,-1
 307 -517 l 1,222,-1
 205 -517 l 1,223,-1
 205 -421 l 1,220,-1
410 -421 m 1,224,-1
 512 -421 l 1,225,-1
 512 -517 l 1,226,-1
 410 -517 l 1,227,-1
 410 -421 l 1,224,-1
615 -421 m 1,228,-1
 717 -421 l 1,229,-1
 717 -517 l 1,230,-1
 615 -517 l 1,231,-1
 615 -421 l 1,228,-1
820 -421 m 1,232,-1
 922 -421 l 1,233,-1
 922 -517 l 1,234,-1
 820 -517 l 1,235,-1
 820 -421 l 1,232,-1
1025 -421 m 1,236,-1
 1127 -421 l 1,237,-1
 1127 -517 l 1,238,-1
 1025 -517 l 1,239,-1
 1025 -421 l 1,236,-1
0 1512 m 1,240,-1
 102 1512 l 1,241,-1
 102 1414 l 1,242,-1
 0 1414 l 1,243,-1
 0 1512 l 1,240,-1
205 1512 m 1,244,-1
 307 1512 l 1,245,-1
 307 1414 l 1,246,-1
 205 1414 l 1,247,-1
 205 1512 l 1,244,-1
410 1512 m 1,248,-1
 512 1512 l 1,249,-1
 512 1414 l 1,250,-1
 410 1414 l 1,251,-1
 410 1512 l 1,248,-1
615 1512 m 1,252,-1
 717 1512 l 1,253,-1
 717 1414 l 1,254,-1
 615 1414 l 1,255,-1
 615 1512 l 1,252,-1
820 1512 m 1,256,-1
 922 1512 l 1,257,-1
 922 1414 l 1,258,-1
 820 1414 l 1,259,-1
 820 1512 l 1,256,-1
1025 1512 m 1,260,-1
 1127 1512 l 1,261,-1
 1127 1414 l 1,262,-1
 1025 1414 l 1,263,-1
 1025 1512 l 1,260,-1
102 1705 m 1,264,-1
 205 1705 l 1,265,-1
 205 1609 l 1,266,-1
 102 1609 l 1,267,-1
 102 1705 l 1,264,-1
307 1705 m 1,268,-1
 410 1705 l 1,269,-1
 410 1609 l 1,270,-1
 307 1609 l 1,271,-1
 307 1705 l 1,268,-1
512 1705 m 1,272,-1
 615 1705 l 1,273,-1
 615 1609 l 1,274,-1
 512 1609 l 1,275,-1
 512 1705 l 1,272,-1
717 1705 m 1,276,-1
 820 1705 l 1,277,-1
 820 1609 l 1,278,-1
 717 1609 l 1,279,-1
 717 1705 l 1,276,-1
922 1705 m 1,280,-1
 1025 1705 l 1,281,-1
 1025 1609 l 1,282,-1
 922 1609 l 1,283,-1
 922 1705 l 1,280,-1
1127 1705 m 1,284,-1
 1230 1705 l 1,285,-1
 1230 1609 l 1,286,-1
 1127 1609 l 1,287,-1
 1127 1705 l 1,284,-1
EndSplineSet
Validated: 1
EndChar

StartChar: dkshade
Encoding: 9619 9619 215
Width: 1229
GlyphClass: 2
Flags: W
LayerCount: 2
Fore
SplineSet
1230 -615 m 1,0,-1
 0 -615 l 1,1,-1
 0 -325 l 1,2,-1
 102 -325 l 1,3,-1
 102 -228 l 1,4,-1
 0 -228 l 1,5,-1
 0 62 l 1,6,-1
 102 62 l 1,7,-1
 102 159 l 1,8,-1
 0 159 l 1,9,-1
 0 450 l 1,10,-1
 102 450 l 1,11,-1
 102 546 l 1,12,-1
 0 546 l 1,13,-1
 0 835 l 1,14,-1
 102 835 l 1,15,-1
 102 933 l 1,16,-1
 0 933 l 1,17,-1
 0 1222 l 1,18,-1
 102 1222 l 1,19,-1
 102 1320 l 1,20,-1
 0 1320 l 1,21,-1
 0 1609 l 1,22,-1
 102 1609 l 1,23,-1
 102 1705 l 1,24,-1
 205 1705 l 1,25,-1
 205 1609 l 1,26,-1
 307 1609 l 1,27,-1
 307 1705 l 1,28,-1
 410 1705 l 1,29,-1
 410 1609 l 1,30,-1
 512 1609 l 1,31,-1
 512 1705 l 1,32,-1
 615 1705 l 1,33,-1
 615 1609 l 1,34,-1
 717 1609 l 1,35,-1
 717 1705 l 1,36,-1
 820 1705 l 1,37,-1
 820 1609 l 1,38,-1
 922 1609 l 1,39,-1
 922 1705 l 1,40,-1
 1025 1705 l 1,41,-1
 1025 1609 l 1,42,-1
 1127 1609 l 1,43,-1
 1127 1705 l 1,44,-1
 1230 1705 l 1,45,-1
 1230 1512 l 1,46,-1
 1127 1512 l 1,47,-1
 1127 1414 l 1,48,-1
 1230 1414 l 1,49,-1
 1230 1125 l 1,50,-1
 1127 1125 l 1,51,-1
 1127 1029 l 1,52,-1
 1230 1029 l 1,53,-1
 1230 738 l 1,54,-1
 1127 738 l 1,55,-1
 1127 642 l 1,56,-1
 1230 642 l 1,57,-1
 1230 351 l 1,58,-1
 1127 351 l 1,59,-1
 1127 255 l 1,60,-1
 1230 255 l 1,61,-1
 1230 -36 l 1,62,-1
 1127 -36 l 1,63,-1
 1127 -130 l 1,64,-1
 1230 -130 l 1,65,-1
 1230 -421 l 1,66,-1
 1127 -421 l 1,67,-1
 1127 -517 l 1,68,-1
 1230 -517 l 1,69,-1
 1230 -615 l 1,0,-1
102 1125 m 1,70,-1
 102 1029 l 1,71,-1
 205 1029 l 1,72,-1
 205 1125 l 1,73,-1
 102 1125 l 1,70,-1
307 1125 m 1,74,-1
 307 1029 l 1,75,-1
 410 1029 l 1,76,-1
 410 1125 l 1,77,-1
 307 1125 l 1,74,-1
512 1125 m 1,78,-1
 512 1029 l 1,79,-1
 615 1029 l 1,80,-1
 615 1125 l 1,81,-1
 512 1125 l 1,78,-1
717 1125 m 1,82,-1
 717 1029 l 1,83,-1
 820 1029 l 1,84,-1
 820 1125 l 1,85,-1
 717 1125 l 1,82,-1
922 933 m 1,86,-1
 820 933 l 1,87,-1
 820 835 l 1,88,-1
 922 835 l 1,89,-1
 922 933 l 1,86,-1
717 933 m 1,90,-1
 615 933 l 1,91,-1
 615 835 l 1,92,-1
 717 835 l 1,93,-1
 717 933 l 1,90,-1
512 933 m 1,94,-1
 410 933 l 1,95,-1
 410 835 l 1,96,-1
 512 835 l 1,97,-1
 512 933 l 1,94,-1
307 933 m 1,98,-1
 205 933 l 1,99,-1
 205 835 l 1,100,-1
 307 835 l 1,101,-1
 307 933 l 1,98,-1
102 738 m 1,102,-1
 102 642 l 1,103,-1
 205 642 l 1,104,-1
 205 738 l 1,105,-1
 102 738 l 1,102,-1
307 738 m 1,106,-1
 307 642 l 1,107,-1
 410 642 l 1,108,-1
 410 738 l 1,109,-1
 307 738 l 1,106,-1
512 738 m 1,110,-1
 512 642 l 1,111,-1
 615 642 l 1,112,-1
 615 738 l 1,113,-1
 512 738 l 1,110,-1
717 738 m 1,114,-1
 717 642 l 1,115,-1
 820 642 l 1,116,-1
 820 738 l 1,117,-1
 717 738 l 1,114,-1
307 546 m 1,118,-1
 205 546 l 1,119,-1
 205 450 l 1,120,-1
 307 450 l 1,121,-1
 307 546 l 1,118,-1
410 546 m 1,122,-1
 410 450 l 1,123,-1
 512 450 l 1,124,-1
 512 546 l 1,125,-1
 410 546 l 1,122,-1
615 546 m 1,126,-1
 615 450 l 1,127,-1
 717 450 l 1,128,-1
 717 546 l 1,129,-1
 615 546 l 1,126,-1
820 546 m 1,130,-1
 820 450 l 1,131,-1
 922 450 l 1,132,-1
 922 546 l 1,133,-1
 820 546 l 1,130,-1
102 351 m 1,134,-1
 102 255 l 1,135,-1
 205 255 l 1,136,-1
 205 351 l 1,137,-1
 102 351 l 1,134,-1
512 351 m 1,138,-1
 512 255 l 1,139,-1
 615 255 l 1,140,-1
 615 351 l 1,141,-1
 512 351 l 1,138,-1
410 255 m 1,142,-1
 410 351 l 1,143,-1
 307 351 l 1,144,-1
 307 255 l 1,145,-1
 410 255 l 1,142,-1
717 351 m 1,146,-1
 717 255 l 1,147,-1
 820 255 l 1,148,-1
 820 351 l 1,149,-1
 717 351 l 1,146,-1
922 62 m 1,150,-1
 922 159 l 1,151,-1
 820 159 l 1,152,-1
 820 62 l 1,153,-1
 922 62 l 1,150,-1
717 62 m 1,154,-1
 717 159 l 1,155,-1
 615 159 l 1,156,-1
 615 62 l 1,157,-1
 717 62 l 1,154,-1
512 62 m 1,158,-1
 512 159 l 1,159,-1
 410 159 l 1,160,-1
 410 62 l 1,161,-1
 512 62 l 1,158,-1
307 62 m 1,162,-1
 307 159 l 1,163,-1
 205 159 l 1,164,-1
 205 62 l 1,165,-1
 307 62 l 1,162,-1
102 -36 m 1,166,-1
 102 -130 l 1,167,-1
 205 -130 l 1,168,-1
 205 -36 l 1,169,-1
 102 -36 l 1,166,-1
307 -36 m 1,170,-1
 307 -130 l 1,171,-1
 410 -130 l 1,172,-1
 410 -36 l 1,173,-1
 307 -36 l 1,170,-1
512 -36 m 1,174,-1
 512 -130 l 1,175,-1
 615 -130 l 1,176,-1
 615 -36 l 1,177,-1
 512 -36 l 1,174,-1
717 -36 m 1,178,-1
 717 -130 l 1,179,-1
 820 -130 l 1,180,-1
 820 -36 l 1,181,-1
 717 -36 l 1,178,-1
922 -325 m 1,182,-1
 922 -228 l 1,183,-1
 820 -228 l 1,184,-1
 820 -325 l 1,185,-1
 922 -325 l 1,182,-1
717 -325 m 1,186,-1
 717 -228 l 1,187,-1
 615 -228 l 1,188,-1
 615 -325 l 1,189,-1
 717 -325 l 1,186,-1
512 -325 m 1,190,-1
 512 -228 l 1,191,-1
 410 -228 l 1,192,-1
 410 -325 l 1,193,-1
 512 -325 l 1,190,-1
307 -325 m 1,194,-1
 307 -228 l 1,195,-1
 205 -228 l 1,196,-1
 205 -325 l 1,197,-1
 307 -325 l 1,194,-1
102 -421 m 1,198,-1
 102 -517 l 1,199,-1
 205 -517 l 1,200,-1
 205 -421 l 1,201,-1
 102 -421 l 1,198,-1
307 -421 m 1,202,-1
 307 -517 l 1,203,-1
 410 -517 l 1,204,-1
 410 -421 l 1,205,-1
 307 -421 l 1,202,-1
512 -421 m 1,206,-1
 512 -517 l 1,207,-1
 615 -517 l 1,208,-1
 615 -421 l 1,209,-1
 512 -421 l 1,206,-1
717 -421 m 1,210,-1
 717 -517 l 1,211,-1
 820 -517 l 1,212,-1
 820 -421 l 1,213,-1
 717 -421 l 1,210,-1
922 1320 m 1,214,-1
 820 1320 l 1,215,-1
 820 1222 l 1,216,-1
 922 1222 l 1,217,-1
 922 1320 l 1,214,-1
717 1320 m 1,218,-1
 615 1320 l 1,219,-1
 615 1222 l 1,220,-1
 717 1222 l 1,221,-1
 717 1320 l 1,218,-1
512 1320 m 1,222,-1
 410 1320 l 1,223,-1
 410 1222 l 1,224,-1
 512 1222 l 1,225,-1
 512 1320 l 1,222,-1
307 1320 m 1,226,-1
 205 1320 l 1,227,-1
 205 1222 l 1,228,-1
 307 1222 l 1,229,-1
 307 1320 l 1,226,-1
820 1512 m 1,230,-1
 717 1512 l 1,231,-1
 717 1414 l 1,232,-1
 820 1414 l 1,233,-1
 820 1512 l 1,230,-1
615 1512 m 1,234,-1
 512 1512 l 1,235,-1
 512 1414 l 1,236,-1
 615 1414 l 1,237,-1
 615 1512 l 1,234,-1
410 1512 m 1,238,-1
 307 1512 l 1,239,-1
 307 1414 l 1,240,-1
 410 1414 l 1,241,-1
 410 1512 l 1,238,-1
205 1512 m 1,242,-1
 102 1512 l 1,243,-1
 102 1414 l 1,244,-1
 205 1414 l 1,245,-1
 205 1512 l 1,242,-1
922 1125 m 1,246,-1
 922 1029 l 1,247,-1
 1025 1029 l 1,248,-1
 1025 1125 l 1,249,-1
 922 1125 l 1,246,-1
1127 933 m 1,250,-1
 1025 933 l 1,251,-1
 1025 835 l 1,252,-1
 1127 835 l 1,253,-1
 1127 933 l 1,250,-1
922 738 m 1,254,-1
 922 642 l 1,255,-1
 1025 642 l 1,256,-1
 1025 738 l 1,257,-1
 922 738 l 1,254,-1
1025 546 m 1,258,-1
 1025 450 l 1,259,-1
 1127 450 l 1,260,-1
 1127 546 l 1,261,-1
 1025 546 l 1,258,-1
922 351 m 1,262,-1
 922 255 l 1,263,-1
 1025 255 l 1,264,-1
 1025 351 l 1,265,-1
 922 351 l 1,262,-1
1127 62 m 1,266,-1
 1127 159 l 1,267,-1
 1025 159 l 1,268,-1
 1025 62 l 1,269,-1
 1127 62 l 1,266,-1
922 -36 m 1,270,-1
 922 -130 l 1,271,-1
 1025 -130 l 1,272,-1
 1025 -36 l 1,273,-1
 922 -36 l 1,270,-1
1127 -325 m 1,274,-1
 1127 -228 l 1,275,-1
 1025 -228 l 1,276,-1
 1025 -325 l 1,277,-1
 1127 -325 l 1,274,-1
922 -421 m 1,278,-1
 922 -517 l 1,279,-1
 1025 -517 l 1,280,-1
 1025 -421 l 1,281,-1
 922 -421 l 1,278,-1
1127 1320 m 1,282,-1
 1025 1320 l 1,283,-1
 1025 1222 l 1,284,-1
 1127 1222 l 1,285,-1
 1127 1320 l 1,282,-1
1025 1512 m 1,286,-1
 922 1512 l 1,287,-1
 922 1414 l 1,288,-1
 1025 1414 l 1,289,-1
 1025 1512 l 1,286,-1
EndSplineSet
Validated: 1
EndChar

StartChar: filledbox
Encoding: 9632 9632 216
Width: 1229
GlyphClass: 2
Flags: W
LayerCount: 2
Fore
SplineSet
119 1108 m 1,0,-1
 1110 1108 l 1,1,-1
 1110 117 l 1,2,-1
 119 117 l 1,3,-1
 119 1108 l 1,0,-1
EndSplineSet
Validated: 1
EndChar

StartChar: H22073
Encoding: 9633 9633 217
Width: 1229
GlyphClass: 2
Flags: W
LayerCount: 2
Fore
SplineSet
2 1225 m 1,0,-1
 1227 1225 l 1,1,-1
 1227 0 l 1,2,-1
 2 0 l 1,3,-1
 2 1225 l 1,0,-1
78 1149 m 1,4,-1
 78 76 l 1,5,-1
 1151 76 l 1,6,-1
 1151 1149 l 1,7,-1
 78 1149 l 1,4,-1
EndSplineSet
Validated: 1
EndChar

StartChar: H18543
Encoding: 9642 9642 218
Width: 1229
GlyphClass: 2
Flags: W
LayerCount: 2
Fore
SplineSet
868 383 m 1,0,-1
 360 383 l 1,1,-1
 360 891 l 1,2,-1
 868 891 l 1,3,-1
 868 383 l 1,0,-1
EndSplineSet
Validated: 1
EndChar

StartChar: H18551
Encoding: 9643 9643 219
Width: 1229
GlyphClass: 2
Flags: W
LayerCount: 2
Fore
SplineSet
868 383 m 1,0,-1
 360 383 l 1,1,-1
 360 891 l 1,2,-1
 868 891 l 1,3,-1
 868 383 l 1,0,-1
792 459 m 1,4,-1
 792 813 l 1,5,-1
 436 813 l 1,6,-1
 436 459 l 1,7,-1
 792 459 l 1,4,-1
EndSplineSet
Validated: 1
EndChar

StartChar: filledrect
Encoding: 9644 9644 220
Width: 1229
GlyphClass: 2
Flags: W
LayerCount: 2
Fore
SplineSet
8 546 m 1,0,-1
 1221 546 l 1,1,-1
 1221 70 l 1,2,-1
 8 70 l 1,3,-1
 8 546 l 1,0,-1
EndSplineSet
Validated: 1
EndChar

StartChar: triagup
Encoding: 9650 9650 221
Width: 1229
GlyphClass: 2
Flags: W
LayerCount: 2
Fore
SplineSet
15 50 m 1,0,-1
 615 1198 l 1,1,-1
 1213 50 l 1,2,-1
 15 50 l 1,0,-1
EndSplineSet
Validated: 1
EndChar

StartChar: triagrt
Encoding: 9658 9658 222
Width: 1229
GlyphClass: 2
Flags: W
LayerCount: 2
Fore
SplineSet
52 1196 m 1,0,-1
 1227 586 l 1,1,-1
 52 -27 l 1,2,-1
 52 1196 l 1,0,-1
EndSplineSet
Validated: 1
EndChar

StartChar: triagdn
Encoding: 9660 9660 223
Width: 1229
GlyphClass: 2
Flags: W
LayerCount: 2
Fore
SplineSet
1213 1121 m 1,0,-1
 615 -27 l 1,1,-1
 15 1121 l 1,2,-1
 1213 1121 l 1,0,-1
EndSplineSet
Validated: 1
EndChar

StartChar: triaglf
Encoding: 9668 9668 224
Width: 1229
GlyphClass: 2
Flags: W
LayerCount: 2
Fore
SplineSet
1177 1196 m 1,0,-1
 1177 -27 l 1,1,-1
 2 586 l 1,2,-1
 1177 1196 l 1,0,-1
EndSplineSet
Validated: 1
EndChar

StartChar: lozenge
Encoding: 9674 9674 225
Width: 1229
GlyphClass: 2
Flags: W
LayerCount: 2
Fore
SplineSet
654 0 m 1,0,-1
 572 0 l 1,1,-1
 115 719 l 1,2,-1
 572 1440 l 1,3,-1
 654 1440 l 1,4,-1
 1113 721 l 1,5,-1
 654 0 l 1,0,-1
615 1286 m 1,6,-1
 261 721 l 1,7,-1
 615 147 l 1,8,-1
 967 721 l 1,9,-1
 615 1286 l 1,6,-1
EndSplineSet
Validated: 1
EndChar

StartChar: circle
Encoding: 9675 9675 226
Width: 1229
GlyphClass: 2
Flags: W
LayerCount: 2
Fore
SplineSet
163 612 m 256,0,1
 163 706 163 706 198 788.5 c 128,-1,2
 233 871 233 871 294 932.5 c 128,-1,3
 355 994 355 994 437 1029.5 c 128,-1,4
 519 1065 519 1065 613 1065 c 256,5,6
 707 1065 707 1065 789.5 1029.5 c 128,-1,7
 872 994 872 994 933.5 932.5 c 128,-1,8
 995 871 995 871 1030.5 788.5 c 128,-1,9
 1066 706 1066 706 1066 612 c 256,10,11
 1066 518 1066 518 1030.5 436 c 128,-1,12
 995 354 995 354 933.5 293 c 128,-1,13
 872 232 872 232 789.5 197 c 128,-1,14
 707 162 707 162 613 162 c 256,15,16
 519 162 519 162 437 197 c 128,-1,17
 355 232 355 232 294 293 c 128,-1,18
 233 354 233 354 198 436 c 128,-1,19
 163 518 163 518 163 612 c 256,0,1
249 612 m 256,20,21
 249 536 249 536 277.5 470 c 128,-1,22
 306 404 306 404 355 354.5 c 128,-1,23
 404 305 404 305 470.5 276.5 c 128,-1,24
 537 248 537 248 613 248 c 256,25,26
 689 248 689 248 756 276.5 c 128,-1,27
 823 305 823 305 872.5 354.5 c 128,-1,28
 922 404 922 404 951 470 c 128,-1,29
 980 536 980 536 980 612 c 256,30,31
 980 688 980 688 951 755 c 128,-1,32
 922 822 922 822 872.5 871.5 c 128,-1,33
 823 921 823 921 756 950 c 128,-1,34
 689 979 689 979 613 979 c 256,35,36
 537 979 537 979 470.5 950 c 128,-1,37
 404 921 404 921 355 871.5 c 128,-1,38
 306 822 306 822 277.5 755 c 128,-1,39
 249 688 249 688 249 612 c 256,20,21
EndSplineSet
Validated: 1
EndChar

StartChar: H18533
Encoding: 9679 9679 227
Width: 1229
GlyphClass: 2
Flags: W
LayerCount: 2
Fore
SplineSet
614 1018 m 0,0,1
 724 1018 724 1018 831 961 c 0,2,3
 884 933 884 933 925 892 c 128,-1,4
 966 851 966 851 995 799 c 0,5,6
 1024 745 1024 745 1039.5 690 c 128,-1,7
 1055 635 1055 635 1055 578 c 0,8,9
 1055 395 1055 395 926 266 c 256,10,11
 797 137 797 137 614 137 c 0,12,13
 432 137 432 137 303 266 c 256,14,15
 174 395 174 395 174 578 c 0,16,17
 174 636 174 636 189 690.5 c 128,-1,18
 204 745 204 745 233 799 c 0,19,20
 262 851 262 851 303.5 892 c 128,-1,21
 345 933 345 933 397 961 c 0,22,23
 505 1018 505 1018 614 1018 c 0,0,1
EndSplineSet
Validated: 1
EndChar

StartChar: invbullet
Encoding: 9688 9688 228
Width: 1229
GlyphClass: 2
Flags: W
LayerCount: 2
Fore
SplineSet
37 0 m 1,0,-1
 37 1155 l 1,1,-1
 1192 1155 l 1,2,-1
 1192 0 l 1,3,-1
 37 0 l 1,0,-1
172 577 m 256,4,5
 172 486 172 486 206.5 406 c 128,-1,6
 241 326 241 326 301 266 c 128,-1,7
 361 206 361 206 441 171.5 c 128,-1,8
 521 137 521 137 612 137 c 256,9,10
 703 137 703 137 783.5 171.5 c 128,-1,11
 864 206 864 206 924 266 c 128,-1,12
 984 326 984 326 1018.5 406 c 128,-1,13
 1053 486 1053 486 1053 577 c 256,14,15
 1053 668 1053 668 1018.5 748.5 c 128,-1,16
 984 829 984 829 924 889 c 128,-1,17
 864 949 864 949 783.5 983.5 c 128,-1,18
 703 1018 703 1018 612 1018 c 256,19,20
 521 1018 521 1018 441 983.5 c 128,-1,21
 361 949 361 949 301 889 c 128,-1,22
 241 829 241 829 206.5 748.5 c 128,-1,23
 172 668 172 668 172 577 c 256,4,5
EndSplineSet
Validated: 1
EndChar

StartChar: invcircle
Encoding: 9689 9689 229
Width: 1229
GlyphClass: 2
Flags: W
LayerCount: 2
Fore
SplineSet
37 0 m 1,0,-1
 37 1155 l 1,1,-1
 1192 1155 l 1,2,-1
 1192 0 l 1,3,-1
 37 0 l 1,0,-1
249 577 m 256,4,5
 249 652 249 652 278 718.5 c 128,-1,6
 307 785 307 785 356.5 834.5 c 128,-1,7
 406 884 406 884 472.5 913 c 128,-1,8
 539 942 539 942 614 942 c 256,9,10
 689 942 689 942 755.5 913 c 128,-1,11
 822 884 822 884 871.5 834.5 c 128,-1,12
 921 785 921 785 950 718.5 c 128,-1,13
 979 652 979 652 979 577 c 256,14,15
 979 502 979 502 950 435.5 c 128,-1,16
 921 369 921 369 871.5 319.5 c 128,-1,17
 822 270 822 270 755.5 241 c 128,-1,18
 689 212 689 212 614 212 c 256,19,20
 539 212 539 212 472.5 241 c 128,-1,21
 406 270 406 270 356.5 319.5 c 128,-1,22
 307 369 307 369 278 435.5 c 128,-1,23
 249 502 249 502 249 577 c 256,4,5
172 577 m 256,24,25
 172 486 172 486 206.5 406 c 128,-1,26
 241 326 241 326 301 266 c 128,-1,27
 361 206 361 206 441 171.5 c 128,-1,28
 521 137 521 137 612 137 c 256,29,30
 703 137 703 137 783.5 171.5 c 128,-1,31
 864 206 864 206 924 266 c 128,-1,32
 984 326 984 326 1018.5 406 c 128,-1,33
 1053 486 1053 486 1053 577 c 256,34,35
 1053 668 1053 668 1018.5 748.5 c 128,-1,36
 984 829 984 829 924 889 c 128,-1,37
 864 949 864 949 783.5 983.5 c 128,-1,38
 703 1018 703 1018 612 1018 c 256,39,40
 521 1018 521 1018 441 983.5 c 128,-1,41
 361 949 361 949 301 889 c 128,-1,42
 241 829 241 829 206.5 748.5 c 128,-1,43
 172 668 172 668 172 577 c 256,24,25
EndSplineSet
Validated: 1
EndChar

StartChar: openbullet
Encoding: 9702 9702 230
Width: 1229
GlyphClass: 2
Flags: W
LayerCount: 2
Fore
SplineSet
862 637 m 0,0,1
 862 584 862 584 843.5 541 c 128,-1,2
 825 498 825 498 788 461 c 0,3,4
 751 426 751 426 708 407.5 c 128,-1,5
 665 389 665 389 614 389 c 0,6,7
 513 389 513 389 438 461 c 0,8,9
 403 498 403 498 384.5 541 c 128,-1,10
 366 584 366 584 366 637 c 0,11,12
 366 739 366 739 438 811 c 0,13,14
 512 885 512 885 614 885 c 0,15,16
 717 885 717 885 788 811 c 1,17,18
 862 740 862 740 862 637 c 0,0,1
786 637 m 0,19,20
 786 707 786 707 735 758 c 256,21,22
 684 809 684 809 614 809 c 256,23,24
 544 809 544 809 493 758 c 256,25,26
 442 707 442 707 442 637 c 0,27,28
 442 568 442 568 493 514 c 0,29,30
 542 465 542 465 614 465 c 256,31,32
 686 465 686 465 735 514 c 0,33,34
 786 568 786 568 786 637 c 0,19,20
EndSplineSet
Validated: 1
EndChar

StartChar: smileface
Encoding: 9786 9786 231
Width: 1229
GlyphClass: 2
Flags: W
LayerCount: 2
Fore
SplineSet
27 589 m 256,0,1
 27 670 27 670 48 745 c 128,-1,2
 69 820 69 820 107 885 c 128,-1,3
 145 950 145 950 199 1004 c 128,-1,4
 253 1058 253 1058 318 1096 c 128,-1,5
 383 1134 383 1134 458 1155 c 128,-1,6
 533 1176 533 1176 614 1176 c 0,7,8
 736 1176 736 1176 842.5 1130 c 128,-1,9
 949 1084 949 1084 1029 1004 c 128,-1,10
 1109 924 1109 924 1155 817.5 c 128,-1,11
 1201 711 1201 711 1201 589 c 0,12,13
 1201 508 1201 508 1180 433 c 128,-1,14
 1159 358 1159 358 1121 293 c 128,-1,15
 1083 228 1083 228 1029 174 c 128,-1,16
 975 120 975 120 910 82 c 128,-1,17
 845 44 845 44 770 23 c 128,-1,18
 695 2 695 2 614 2 c 256,19,20
 533 2 533 2 458 23 c 128,-1,21
 383 44 383 44 318 82 c 128,-1,22
 253 120 253 120 199 174 c 128,-1,23
 145 228 145 228 107 293 c 128,-1,24
 69 358 69 358 48 433 c 128,-1,25
 27 508 27 508 27 589 c 256,0,1
90 589 m 256,26,27
 90 481 90 481 131 385.5 c 128,-1,28
 172 290 172 290 243.5 218.5 c 128,-1,29
 315 147 315 147 410.5 106 c 128,-1,30
 506 65 506 65 614 65 c 256,31,32
 722 65 722 65 817 106 c 128,-1,33
 912 147 912 147 983.5 218.5 c 128,-1,34
 1055 290 1055 290 1096 385.5 c 128,-1,35
 1137 481 1137 481 1137 589 c 256,36,37
 1137 697 1137 697 1096 792 c 128,-1,38
 1055 887 1055 887 983.5 958.5 c 128,-1,39
 912 1030 912 1030 817 1071 c 128,-1,40
 722 1112 722 1112 614 1112 c 256,41,42
 506 1112 506 1112 410.5 1071 c 128,-1,43
 315 1030 315 1030 243.5 958.5 c 128,-1,44
 172 887 172 887 131 792 c 128,-1,45
 90 697 90 697 90 589 c 256,26,27
326 741 m 256,46,47
 326 770 326 770 346.5 791 c 128,-1,48
 367 812 367 812 396 812 c 256,49,50
 425 812 425 812 446 791 c 128,-1,51
 467 770 467 770 467 741 c 256,52,53
 467 712 467 712 446 691.5 c 128,-1,54
 425 671 425 671 396 671 c 256,55,56
 367 671 367 671 346.5 691.5 c 128,-1,57
 326 712 326 712 326 741 c 256,46,47
761 741 m 256,58,59
 761 770 761 770 781.5 791 c 128,-1,60
 802 812 802 812 831 812 c 256,61,62
 860 812 860 812 881 791 c 128,-1,63
 902 770 902 770 902 741 c 256,64,65
 902 712 902 712 881 691.5 c 128,-1,66
 860 671 860 671 831 671 c 256,67,68
 802 671 802 671 781.5 691.5 c 128,-1,69
 761 712 761 712 761 741 c 256,58,59
353 442 m 1,70,71
 371 418 371 418 393 394 c 128,-1,72
 415 370 415 370 445.5 350.5 c 128,-1,73
 476 331 476 331 517 318.5 c 128,-1,74
 558 306 558 306 614 306 c 256,75,76
 670 306 670 306 711 318.5 c 128,-1,77
 752 331 752 331 782.5 350.5 c 128,-1,78
 813 370 813 370 835 394 c 128,-1,79
 857 418 857 418 875 442 c 1,80,-1
 933 393 l 1,81,82
 914 363 914 363 887 331.5 c 128,-1,83
 860 300 860 300 821.5 274.5 c 128,-1,84
 783 249 783 249 732.5 232.5 c 128,-1,85
 682 216 682 216 614 216 c 0,86,87
 547 216 547 216 496 232.5 c 128,-1,88
 445 249 445 249 406.5 274.5 c 128,-1,89
 368 300 368 300 341.5 331.5 c 128,-1,90
 315 363 315 363 295 393 c 1,91,-1
 353 442 l 1,70,71
EndSplineSet
Validated: 1
EndChar

StartChar: invsmileface
Encoding: 9787 9787 232
Width: 1229
GlyphClass: 2
Flags: W
LayerCount: 2
Fore
SplineSet
27 589 m 256,0,1
 27 670 27 670 48 745 c 128,-1,2
 69 820 69 820 107 885 c 128,-1,3
 145 950 145 950 199 1004 c 128,-1,4
 253 1058 253 1058 318 1096 c 128,-1,5
 383 1134 383 1134 458 1155 c 128,-1,6
 533 1176 533 1176 614 1176 c 0,7,8
 736 1176 736 1176 842.5 1130 c 128,-1,9
 949 1084 949 1084 1029 1004 c 128,-1,10
 1109 924 1109 924 1155 817.5 c 128,-1,11
 1201 711 1201 711 1201 589 c 0,12,13
 1201 508 1201 508 1180 433 c 128,-1,14
 1159 358 1159 358 1121 293 c 128,-1,15
 1083 228 1083 228 1029 174 c 128,-1,16
 975 120 975 120 910 82 c 128,-1,17
 845 44 845 44 770 23 c 128,-1,18
 695 2 695 2 614 2 c 256,19,20
 533 2 533 2 458 23 c 128,-1,21
 383 44 383 44 318 82 c 128,-1,22
 253 120 253 120 199 174 c 128,-1,23
 145 228 145 228 107 293 c 128,-1,24
 69 358 69 358 48 433 c 128,-1,25
 27 508 27 508 27 589 c 256,0,1
326 741 m 256,26,27
 326 712 326 712 346.5 691.5 c 128,-1,28
 367 671 367 671 396 671 c 256,29,30
 425 671 425 671 446 691.5 c 128,-1,31
 467 712 467 712 467 741 c 256,32,33
 467 770 467 770 446 791 c 128,-1,34
 425 812 425 812 396 812 c 256,35,36
 367 812 367 812 346.5 791 c 128,-1,37
 326 770 326 770 326 741 c 256,26,27
761 741 m 256,38,39
 761 712 761 712 781.5 691.5 c 128,-1,40
 802 671 802 671 831 671 c 256,41,42
 860 671 860 671 881 691.5 c 128,-1,43
 902 712 902 712 902 741 c 256,44,45
 902 770 902 770 881 791 c 128,-1,46
 860 812 860 812 831 812 c 256,47,48
 802 812 802 812 781.5 791 c 128,-1,49
 761 770 761 770 761 741 c 256,38,39
295 393 m 1,50,51
 315 363 315 363 341.5 331.5 c 128,-1,52
 368 300 368 300 406.5 274.5 c 128,-1,53
 445 249 445 249 496 232.5 c 128,-1,54
 547 216 547 216 614 216 c 0,55,56
 682 216 682 216 732.5 232.5 c 128,-1,57
 783 249 783 249 821.5 274.5 c 128,-1,58
 860 300 860 300 887 331.5 c 128,-1,59
 914 363 914 363 933 393 c 1,60,-1
 875 442 l 1,61,62
 857 418 857 418 835 394 c 128,-1,63
 813 370 813 370 782.5 350.5 c 128,-1,64
 752 331 752 331 711 318.5 c 128,-1,65
 670 306 670 306 614 306 c 256,66,67
 558 306 558 306 517 318.5 c 128,-1,68
 476 331 476 331 445.5 350.5 c 128,-1,69
 415 370 415 370 393 394 c 128,-1,70
 371 418 371 418 353 442 c 1,71,-1
 295 393 l 1,50,51
EndSplineSet
Validated: 1
EndChar

StartChar: sun
Encoding: 9788 9788 233
Width: 1229
GlyphClass: 2
Flags: W
LayerCount: 2
Fore
SplineSet
224 907 m 1,0,-1
 388 742 l 1,1,2
 428 774 428 774 476 795 c 128,-1,3
 524 816 524 816 578 821 c 1,4,-1
 578 1054 l 1,5,-1
 650 1054 l 1,6,-1
 650 821 l 1,7,8
 704 816 704 816 751.5 795 c 128,-1,9
 799 774 799 774 839 742 c 1,10,-1
 1004 907 l 1,11,-1
 1055 856 l 1,12,-1
 890 691 l 1,13,14
 922 651 922 651 943 603.5 c 128,-1,15
 964 556 964 556 969 502 c 1,16,-1
 1202 502 l 1,17,-1
 1202 430 l 1,18,-1
 969 430 l 1,19,20
 964 376 964 376 943 328 c 128,-1,21
 922 280 922 280 890 240 c 1,22,-1
 1055 76 l 1,23,-1
 1004 25 l 1,24,-1
 839 189 l 1,25,26
 799 157 799 157 751.5 136 c 128,-1,27
 704 115 704 115 650 110 c 1,28,-1
 650 -122 l 1,29,-1
 578 -122 l 1,30,-1
 578 110 l 1,31,32
 524 115 524 115 476 136 c 128,-1,33
 428 157 428 157 388 189 c 1,34,-1
 224 25 l 1,35,-1
 173 76 l 1,36,-1
 337 240 l 1,37,38
 305 280 305 280 284 328 c 128,-1,39
 263 376 263 376 258 430 c 1,40,-1
 26 430 l 1,41,-1
 26 502 l 1,42,-1
 258 502 l 1,43,44
 263 556 263 556 284 603.5 c 128,-1,45
 305 651 305 651 337 691 c 1,46,-1
 173 856 l 1,47,-1
 224 907 l 1,0,-1
329 466 m 0,48,49
 329 406 329 406 351.5 354 c 128,-1,50
 374 302 374 302 412.5 263.5 c 128,-1,51
 451 225 451 225 503 203 c 128,-1,52
 555 181 555 181 614 181 c 256,53,54
 673 181 673 181 725 203 c 128,-1,55
 777 225 777 225 815.5 263.5 c 128,-1,56
 854 302 854 302 876.5 354 c 128,-1,57
 899 406 899 406 899 466 c 0,58,59
 899 525 899 525 876.5 577 c 128,-1,60
 854 629 854 629 815.5 667.5 c 128,-1,61
 777 706 777 706 725 728.5 c 128,-1,62
 673 751 673 751 614 751 c 256,63,64
 555 751 555 751 503 728.5 c 128,-1,65
 451 706 451 706 412.5 667.5 c 128,-1,66
 374 629 374 629 351.5 577 c 128,-1,67
 329 525 329 525 329 466 c 0,48,49
EndSplineSet
Validated: 1
EndChar

StartChar: female
Encoding: 9792 9792 234
Width: 1229
GlyphClass: 2
Flags: W
LayerCount: 2
Fore
SplineSet
344 376 m 1,0,-1
 578 376 l 1,1,-1
 578 578 l 1,2,3
 523 585 523 585 475 610.5 c 128,-1,4
 427 636 427 636 392 675.5 c 128,-1,5
 357 715 357 715 336.5 766 c 128,-1,6
 316 817 316 817 316 874 c 0,7,8
 316 936 316 936 339.5 990 c 128,-1,9
 363 1044 363 1044 403.5 1084.5 c 128,-1,10
 444 1125 444 1125 498.5 1148.5 c 128,-1,11
 553 1172 553 1172 614 1172 c 0,12,13
 676 1172 676 1172 730 1148.5 c 128,-1,14
 784 1125 784 1125 824.5 1084.5 c 128,-1,15
 865 1044 865 1044 888.5 990 c 128,-1,16
 912 936 912 936 912 874 c 0,17,18
 912 817 912 817 891.5 766 c 128,-1,19
 871 715 871 715 836 675.5 c 128,-1,20
 801 636 801 636 753 610.5 c 128,-1,21
 705 585 705 585 650 578 c 1,22,-1
 650 376 l 1,23,-1
 884 376 l 1,24,-1
 884 304 l 1,25,-1
 650 304 l 1,26,-1
 650 70 l 1,27,-1
 578 70 l 1,28,-1
 578 304 l 1,29,-1
 344 304 l 1,30,-1
 344 376 l 1,0,-1
388 874 m 256,31,32
 388 827 388 827 405.5 786 c 128,-1,33
 423 745 423 745 454 714 c 128,-1,34
 485 683 485 683 526 665.5 c 128,-1,35
 567 648 567 648 614 648 c 256,36,37
 661 648 661 648 702 665.5 c 128,-1,38
 743 683 743 683 773.5 714 c 128,-1,39
 804 745 804 745 822 786 c 128,-1,40
 840 827 840 827 840 874 c 256,41,42
 840 921 840 921 822 962 c 128,-1,43
 804 1003 804 1003 773.5 1033.5 c 128,-1,44
 743 1064 743 1064 702 1082 c 128,-1,45
 661 1100 661 1100 614 1100 c 256,46,47
 567 1100 567 1100 526 1082 c 128,-1,48
 485 1064 485 1064 454 1033.5 c 128,-1,49
 423 1003 423 1003 405.5 962 c 128,-1,50
 388 921 388 921 388 874 c 256,31,32
EndSplineSet
Validated: 1
EndChar

StartChar: male
Encoding: 9794 9794 235
Width: 1229
GlyphClass: 2
Flags: W
LayerCount: 2
Fore
SplineSet
164 412 m 0,0,1
 164 474 164 474 187.5 528 c 128,-1,2
 211 582 211 582 251.5 622.5 c 128,-1,3
 292 663 292 663 346.5 686.5 c 128,-1,4
 401 710 401 710 462 710 c 0,5,6
 514 710 514 710 560.5 693 c 128,-1,7
 607 676 607 676 645 646 c 1,8,-1
 902 903 l 1,9,-1
 676 923 l 1,10,-1
 674 978 l 1,11,-1
 1005 978 l 1,12,-1
 1028 955 l 1,13,-1
 1028 624 l 1,14,-1
 973 626 l 1,15,-1
 953 852 l 1,16,-1
 696 595 l 1,17,18
 726 557 726 557 743 510.5 c 128,-1,19
 760 464 760 464 760 412 c 0,20,21
 760 351 760 351 736.5 296.5 c 128,-1,22
 713 242 713 242 672.5 201.5 c 128,-1,23
 632 161 632 161 578 137.5 c 128,-1,24
 524 114 524 114 462 114 c 0,25,26
 401 114 401 114 346.5 137.5 c 128,-1,27
 292 161 292 161 251.5 201.5 c 128,-1,28
 211 242 211 242 187.5 296.5 c 128,-1,29
 164 351 164 351 164 412 c 0,0,1
236 412 m 256,30,31
 236 365 236 365 253.5 324 c 128,-1,32
 271 283 271 283 302 252 c 128,-1,33
 333 221 333 221 374 203.5 c 128,-1,34
 415 186 415 186 462 186 c 256,35,36
 509 186 509 186 550 203.5 c 128,-1,37
 591 221 591 221 621.5 252 c 128,-1,38
 652 283 652 283 670 324 c 128,-1,39
 688 365 688 365 688 412 c 256,40,41
 688 459 688 459 670 500 c 128,-1,42
 652 541 652 541 621.5 571.5 c 128,-1,43
 591 602 591 602 550 620 c 128,-1,44
 509 638 509 638 462 638 c 256,45,46
 415 638 415 638 374 620 c 128,-1,47
 333 602 333 602 302 571.5 c 128,-1,48
 271 541 271 541 253.5 500 c 128,-1,49
 236 459 236 459 236 412 c 256,30,31
EndSplineSet
Validated: 1
EndChar

StartChar: spade
Encoding: 9824 9824 236
Width: 1229
GlyphClass: 2
Flags: W
LayerCount: 2
Fore
SplineSet
640 1195 m 1,0,1
 640 1149 640 1149 660.5 1097.5 c 128,-1,2
 681 1046 681 1046 715.5 995.5 c 128,-1,3
 750 945 750 945 795.5 897 c 128,-1,4
 841 849 841 849 891 810 c 0,5,6
 947 766 947 766 990.5 725.5 c 128,-1,7
 1034 685 1034 685 1064 645.5 c 128,-1,8
 1094 606 1094 606 1110 564.5 c 128,-1,9
 1126 523 1126 523 1126 478 c 0,10,11
 1126 420 1126 420 1106.5 375.5 c 128,-1,12
 1087 331 1087 331 1054 301 c 128,-1,13
 1021 271 1021 271 978.5 255.5 c 128,-1,14
 936 240 936 240 891 240 c 0,15,16
 855 240 855 240 820 249.5 c 128,-1,17
 785 259 785 259 754.5 273.5 c 128,-1,18
 724 288 724 288 700 306 c 128,-1,19
 676 324 676 324 662 340 c 1,20,21
 662 272 662 272 685.5 219 c 128,-1,22
 709 166 709 166 751.5 130 c 128,-1,23
 794 94 794 94 853 75 c 128,-1,24
 912 56 912 56 982 56 c 1,25,-1
 982 0 l 1,26,-1
 246 0 l 1,27,-1
 246 56 l 1,28,29
 317 56 317 56 375.5 75 c 128,-1,30
 434 94 434 94 476.5 130 c 128,-1,31
 519 166 519 166 542.5 219 c 128,-1,32
 566 272 566 272 566 340 c 1,33,34
 552 324 552 324 528 306 c 128,-1,35
 504 288 504 288 473.5 273.5 c 128,-1,36
 443 259 443 259 408 249.5 c 128,-1,37
 373 240 373 240 337 240 c 0,38,39
 292 240 292 240 249.5 255.5 c 128,-1,40
 207 271 207 271 174 301 c 128,-1,41
 141 331 141 331 121.5 375.5 c 128,-1,42
 102 420 102 420 102 478 c 0,43,44
 102 523 102 523 118 564.5 c 128,-1,45
 134 606 134 606 164 645.5 c 128,-1,46
 194 685 194 685 238 725.5 c 128,-1,47
 282 766 282 766 337 810 c 0,48,49
 387 849 387 849 432.5 897 c 128,-1,50
 478 945 478 945 512.5 995.5 c 128,-1,51
 547 1046 547 1046 567.5 1097.5 c 128,-1,52
 588 1149 588 1149 588 1195 c 1,53,-1
 640 1195 l 1,0,1
EndSplineSet
Validated: 1
EndChar

StartChar: club
Encoding: 9827 9827 237
Width: 1229
GlyphClass: 2
Flags: W
LayerCount: 2
Fore
SplineSet
614 1195 m 256,0,1
 689 1195 689 1195 742 1173 c 128,-1,2
 795 1151 795 1151 828 1116.5 c 128,-1,3
 861 1082 861 1082 876 1040.5 c 128,-1,4
 891 999 891 999 891 961 c 0,5,6
 891 926 891 926 881.5 891 c 128,-1,7
 872 856 872 856 856 825 c 128,-1,8
 840 794 840 794 818.5 768 c 128,-1,9
 797 742 797 742 773 725 c 1,10,11
 805 728 805 728 828 728 c 0,12,13
 885 727 885 727 922 718 c 0,14,15
 988 702 988 702 1036 668 c 0,16,17
 1081 636 1081 636 1106 586 c 0,18,19
 1131 539 1131 539 1131 478 c 0,20,21
 1131 420 1131 420 1111.5 375.5 c 128,-1,22
 1092 331 1092 331 1059 301 c 128,-1,23
 1026 271 1026 271 983.5 255.5 c 128,-1,24
 941 240 941 240 896 240 c 0,25,26
 860 240 860 240 824.5 249.5 c 128,-1,27
 789 259 789 259 757.5 273.5 c 128,-1,28
 726 288 726 288 701 306 c 128,-1,29
 676 324 676 324 662 340 c 1,30,31
 662 272 662 272 685.5 219 c 128,-1,32
 709 166 709 166 751.5 130 c 128,-1,33
 794 94 794 94 853 75 c 128,-1,34
 912 56 912 56 982 56 c 1,35,-1
 982 0 l 1,36,-1
 246 0 l 1,37,-1
 246 56 l 1,38,39
 317 56 317 56 375.5 75 c 128,-1,40
 434 94 434 94 476.5 130 c 128,-1,41
 519 166 519 166 542.5 219 c 128,-1,42
 566 272 566 272 566 340 c 1,43,44
 552 324 552 324 527 306 c 128,-1,45
 502 288 502 288 470.5 273.5 c 128,-1,46
 439 259 439 259 403.5 249.5 c 128,-1,47
 368 240 368 240 332 240 c 0,48,49
 287 240 287 240 244.5 255.5 c 128,-1,50
 202 271 202 271 169 301 c 128,-1,51
 136 331 136 331 116.5 375.5 c 128,-1,52
 97 420 97 420 97 478 c 0,53,54
 97 538 97 538 121.5 586.5 c 128,-1,55
 146 635 146 635 192 668 c 0,56,57
 240 703 240 703 306 718 c 0,58,59
 350 728 350 728 400 728 c 0,60,61
 428 728 428 728 455 725 c 1,62,63
 431 742 431 742 409.5 768 c 128,-1,64
 388 794 388 794 372 825 c 128,-1,65
 356 856 356 856 346.5 891 c 128,-1,66
 337 926 337 926 337 961 c 0,67,68
 337 999 337 999 352 1040.5 c 128,-1,69
 367 1082 367 1082 400 1116.5 c 128,-1,70
 433 1151 433 1151 486 1173 c 128,-1,71
 539 1195 539 1195 614 1195 c 256,0,1
EndSplineSet
Validated: 1
EndChar

StartChar: heart
Encoding: 9829 9829 238
Width: 1229
GlyphClass: 2
Flags: W
LayerCount: 2
Fore
SplineSet
588 -1 m 1,0,1
 588 46 588 46 564 101 c 128,-1,2
 540 156 540 156 503 214 c 128,-1,3
 466 272 466 272 422 328.5 c 128,-1,4
 378 385 378 385 337 434 c 0,5,6
 285 497 285 497 242 557.5 c 128,-1,7
 199 618 199 618 168 674.5 c 128,-1,8
 137 731 137 731 119.5 783 c 128,-1,9
 102 835 102 835 102 880 c 0,10,11
 102 938 102 938 123.5 984 c 128,-1,12
 145 1030 145 1030 179.5 1062 c 128,-1,13
 214 1094 214 1094 258 1111 c 128,-1,14
 302 1128 302 1128 347 1128 c 0,15,16
 394 1128 394 1128 436 1109.5 c 128,-1,17
 478 1091 478 1091 512 1059.5 c 128,-1,18
 546 1028 546 1028 571.5 986.5 c 128,-1,19
 597 945 597 945 611 898 c 1,20,-1
 617 898 l 1,21,22
 631 945 631 945 656.5 986.5 c 128,-1,23
 682 1028 682 1028 716 1059.5 c 128,-1,24
 750 1091 750 1091 792 1109.5 c 128,-1,25
 834 1128 834 1128 881 1128 c 0,26,27
 926 1128 926 1128 970 1111 c 128,-1,28
 1014 1094 1014 1094 1048.5 1062 c 128,-1,29
 1083 1030 1083 1030 1104.5 984 c 128,-1,30
 1126 938 1126 938 1126 880 c 0,31,32
 1126 835 1126 835 1108.5 783 c 128,-1,33
 1091 731 1091 731 1060 674.5 c 128,-1,34
 1029 618 1029 618 986 557.5 c 128,-1,35
 943 497 943 497 891 434 c 0,36,37
 851 385 851 385 806.5 328.5 c 128,-1,38
 762 272 762 272 725 214 c 128,-1,39
 688 156 688 156 664 101 c 128,-1,40
 640 46 640 46 640 -1 c 1,41,-1
 588 -1 l 1,0,1
EndSplineSet
Validated: 1
EndChar

StartChar: diamond
Encoding: 9830 9830 239
Width: 1229
GlyphClass: 2
Flags: W
LayerCount: 2
Fore
SplineSet
505 138.5 m 128,-1,1
 449 213 449 213 387.5 290.5 c 128,-1,2
 326 368 326 368 261 446 c 128,-1,3
 196 524 196 524 132 597 c 1,4,-1
 132 600 l 1,5,6
 196 673 196 673 261 751 c 128,-1,7
 326 829 326 829 387.5 906.5 c 128,-1,8
 449 984 449 984 505 1058.5 c 128,-1,9
 561 1133 561 1133 608 1198 c 1,10,-1
 620 1198 l 1,11,12
 667 1133 667 1133 723 1058.5 c 128,-1,13
 779 984 779 984 840.5 906.5 c 128,-1,14
 902 829 902 829 967 751 c 128,-1,15
 1032 673 1032 673 1096 600 c 1,16,-1
 1096 597 l 1,17,18
 1032 524 1032 524 967 446 c 128,-1,19
 902 368 902 368 840.5 290.5 c 128,-1,20
 779 213 779 213 723 138.5 c 128,-1,21
 667 64 667 64 620 -1 c 1,22,-1
 608 -1 l 1,23,0
 561 64 561 64 505 138.5 c 128,-1,1
EndSplineSet
Validated: 1
EndChar

